<svg xmlns="http://www.w3.org/2000/svg" width="222" height="59" fill="none" xmlns:v="https://vecta.io/nano"><path d="M73.082 33.91l-.104.286a.674.674 0 0 1-.156.286h-.052c-.017-.017-.035-.026-.052-.026a1.44 1.44 0 0 1 .13-.286 2.43 2.43 0 0 0 .13-.312c.035.035.07.052.104.052zm13.728.65a.354.354 0 0 1-.026.234.172.172 0 0 0-.026.156c.087.33.07.624-.052.884l-.39.78c-.087.208-.19.416-.312.624l-.39.65a2.685 2.685 0 0 1-.286.338l-.286.312a5.252 5.252 0 0 1-.286.364 2.65 2.65 0 0 0-.286.338 4.45 4.45 0 0 1-.624.65 2.91 2.91 0 0 0-.572.65 2.63 2.63 0 0 1-.572.598l-.858.65-.806.624a1.06 1.06 0 0 1-.208.078 1.415 1.415 0 0 0-.182.078c.035.121-.009.217-.13.286-.139.104-.269.19-.39.26a7.411 7.411 0 0 0-.39.182c-.139.07-.269.165-.39.286a1.577 1.577 0 0 1-.364.312.878.878 0 0 1-.234.208l-.26.104a7.376 7.376 0 0 0-.65.286 1.77 1.77 0 0 0-.572.39 1.198 1.198 0 0 1-.442.234 2.762 2.762 0 0 0-.468.208l-.26.104-.286.104a4.31 4.31 0 0 0-.494.234 1.918 1.918 0 0 1-.468.208l-.572.234-.572.208a3.82 3.82 0 0 0-.286.13 1.44 1.44 0 0 1-.286.13l-.364.104-.364.13-.676.182a2.768 2.768 0 0 1-.676.182.914.914 0 0 1-.26.026c0 .07-.009.121-.026.156-.121.312-.06.598.182.858.017.035.035.06.052.078a.59.59 0 0 1 .104.156.671.671 0 0 1-.312.026.816.816 0 0 1-.26-.104 3.565 3.565 0 0 1-.234-.13 1.369 1.369 0 0 0-.208-.13c-.07-.017-.121-.078-.156-.182l-.104-.312c-.035-.07-.104-.121-.208-.156-.087-.035-.121-.087-.104-.156a4.8 4.8 0 0 1-.832.078 1.746 1.746 0 0 1-.858-.182 9.881 9.881 0 0 1-.572-.338 9.881 9.881 0 0 1-.572-.338.357.357 0 0 1-.182-.078c-.035-.035-.026-.087.026-.156.035-.035.017-.087-.052-.156a2.218 2.218 0 0 1-.52-.546 4.188 4.188 0 0 1-.364-.676l-.26-.572a2.373 2.373 0 0 1-.182-.624 3.052 3.052 0 0 1-.052-.546l-.026-.546v-.078a.231.231 0 0 1-.026-.104c0-.07.017-.139.052-.208 0-.035.009-.07.026-.104l.052-.104a1.06 1.06 0 0 0 .078-.208c.017-.07-.017-.139-.104-.208 0-.017.017-.052.052-.104a.326.326 0 0 1 .078-.13.59.59 0 0 1 .104.156l.052.026.338-.754.312-.78c.087.087.104.173.052.26a.38.38 0 0 0-.078.234c0 .121-.017.269-.052.442 0 .121-.017.208-.052.26-.07.104-.095.19-.078.26 0 .07.078.113.234.13-.208.433-.243.858-.104 1.274v.078a.627.627 0 0 0-.026.468c.035.139.078.277.13.416.087.243.217.433.39.572a.93.93 0 0 0 .598.208h.312a1.48 1.48 0 0 0 .286-.026l.156-.104a.465.465 0 0 1 .13-.13c.139.156.286.234.442.234a2.28 2.28 0 0 0 .442-.104 1.6 1.6 0 0 1 .39-.052 1.93 1.93 0 0 0 .026-.312l.078-.364a3.23 3.23 0 0 0 .026-.39 3.38 3.38 0 0 1 .078-.416l.234-1.092.234-1.17.286-1.196.312-1.196.26-.832.286-.858.468-1.404.494-1.456c-.243.156-.442.182-.598.078a3.232 3.232 0 0 1-.468-.546.25.25 0 0 0-.078-.182l-.156-.26c-.035-.087-.026-.19.026-.312v-.078c-.139-.052-.2-.139-.182-.26a.463.463 0 0 0-.052-.312c-.017-.017-.017-.043 0-.078.017-.052.043-.087.078-.104l.416-.312.468-.286.624-.338.598-.338c.173-.07.32-.139.442-.208l.39-.234.546-1.326c.017-.035.043-.13.078-.286l.156-.468.442-1.066.416-.962.416-.988a4.46 4.46 0 0 1 .312-.65l.39-.624c.07-.156.156-.251.26-.286a.514.514 0 0 1 .364-.026 2.78 2.78 0 0 0 .364.078 1.4 1.4 0 0 1 .39.052c.035.017.07.026.104.026s.07.009.104.026c.139.121.286.234.442.338a.885.885 0 0 1 .39.364c.052.07.113.139.182.208a.69.69 0 0 1 .156.234c.052.087.078.19.078.312 0 .104-.052.217-.156.338v.026c0 .035.009.052.026.052.139.173.165.33.078.468a1.387 1.387 0 0 1-.39.39c-.035 0-.052.017-.052.052l-.234.338-.312.52-.338.572-.286.494.572-.442.546-.494.676-.468.65-.52.598-.546a8.92 8.92 0 0 0 .962-.936l.364-.416.494-.494c.173-.156.338-.33.494-.52a4.733 4.733 0 0 0 .754-.988l.572-.936c.208-.295.32-.633.338-1.014v-1.04a1.256 1.256 0 0 0-.078-.13.294.294 0 0 0-.104-.104 1.69 1.69 0 0 0-.52-.026c-.19.017-.355.009-.494-.026h-.286a1.35 1.35 0 0 0-.26.026 2.1 2.1 0 0 0-.338.026h-.338a.418.418 0 0 0-.182.052 1.042 1.042 0 0 1-.442.156 7.667 7.667 0 0 0-.572.156 4.76 4.76 0 0 1-.572.156 1.382 1.382 0 0 0-.572.234 1.733 1.733 0 0 1-.546.234c-.104.035-.2.06-.286.078a2.39 2.39 0 0 0-.286.078c.035.104.07.182.104.234a.231.231 0 0 0-.104.026h-.078c-.225-.035-.381.026-.468.182-.017.035-.06.06-.13.078a.176.176 0 0 0-.13.052.418.418 0 0 1-.182.052.176.176 0 0 0-.13.052 4.279 4.279 0 0 1-.286.26l-.286.234-.468.312-.52.364-.364.26a1.6 1.6 0 0 0-.338.26l-.52.364-.52.364-.624.52-.962.832-.936.832-.52.468c-.07.087-.147.104-.234.052a1.478 1.478 0 0 1-.234-.234 5.745 5.745 0 0 1-.26-.338 1.908 1.908 0 0 0-.26-.338.848.848 0 0 0-.156-.26c-.26-.243-.364-.442-.312-.598s.156-.347.312-.572c.225-.312.477-.572.754-.78a8.33 8.33 0 0 0 .832-.728l.468-.52a6 6 0 0 1 .494-.442l1.144-.832a48.97 48.97 0 0 0 1.144-.858l.546-.364.546-.416.806-.364.754-.39a10.96 10.96 0 0 1 1.066-.364 7.884 7.884 0 0 1 1.144-.286h.13a.492.492 0 0 1 .156-.026l.572.026.572-.026c.399-.017.797.009 1.196.078a4.03 4.03 0 0 1 1.118.364l.26.078.26.078c.035 0 .113.043.234.13a1.57 1.57 0 0 0 .286.234l.286.104c.035.035.06.052.078.052l.156.104c.07.017.121.06.156.13.07.139.156.251.26.338.121.087.208.19.26.312a2.51 2.51 0 0 1 .234.598l.234.598.026.026v.026a.499.499 0 0 0-.052.442.69.69 0 0 1 .026.416.398.398 0 0 1-.052.156c0 .035-.009.06-.026.078s-.017.035 0 .052c.052.104.06.2.026.286a1.477 1.477 0 0 1-.078.26c-.017.035-.017.078 0 .13s.017.095 0 .13c-.035.139-.087.26-.156.364l-.234.364a6.974 6.974 0 0 1-.182.338 2.276 2.276 0 0 0-.416.598.301.301 0 0 1-.052.078l-.026.052-.104.208a.386.386 0 0 1-.104.182l-.416.494a4.733 4.733 0 0 1-.39.442l-.104.208a1.81 1.81 0 0 1-.104.182c0 .052-.043.095-.13.13a.55.55 0 0 0-.364.312 1.372 1.372 0 0 1-.26.416l-.286.338a.979.979 0 0 1-.39.234c-.277.087-.46.225-.546.416a.517.517 0 0 1-.156.182c-.07.052-.139.113-.208.182-.07.104-.121.165-.156.182l.806.13c.277.052.537.121.78.208l.78.338a2.83 2.83 0 0 1 .728.494l.338.286.364.26.156.156c.07.052.095.13.078.234 0 .052.035.104.104.156l.182.13c.19.139.347.295.468.468a5.75 5.75 0 0 1 .338.546 2.4 2.4 0 0 1 .26.624 1.6 1.6 0 0 1 .052.39 3.23 3.23 0 0 0 .026.39l.052.572.052.598zm-13.104.338c-.035-.07-.026-.2.026-.39.07-.19.156-.347.26-.468a.662.662 0 0 0 .182-.442c0-.173.017-.338.052-.494l-.078-.052-.104.26-.13.234c-.087.19-.19.373-.312.546s-.2.381-.234.624a2.39 2.39 0 0 1-.078.286.816.816 0 0 1-.104.26c-.243.33-.416.676-.52 1.04l-.286 1.066a1.87 1.87 0 0 0-.13.52.934.934 0 0 1-.208.468.911.911 0 0 0-.13.26 2.39 2.39 0 0 1-.078.286 2.27 2.27 0 0 0-.104.494 2.27 2.27 0 0 1-.104.494c-.07.173-.113.355-.13.546s-.139.355-.364.494l.104.208.13.26.078-.182a.654.654 0 0 0 .078-.156l.312-1.092.364-1.04a13.15 13.15 0 0 0 .416-1.326l.104-.26.104-.286a3.52 3.52 0 0 0 .234-.312c.07-.104.121-.225.156-.364.035-.156.06-.32.078-.494a.906.906 0 0 1 .26-.468c.017-.017.026-.052.026-.104l.052-.156c.017-.07.043-.156.078-.26zm-1.066 4.758a.555.555 0 0 0-.338 0c-.07.017-.095.121-.078.312a1.08 1.08 0 0 0 .208-.156 1.08 1.08 0 0 1 .208-.156zm-1.56 2.028c.087.121.087.234 0 .338-.07.104-.121.2-.156.286a.429.429 0 0 1-.026.13v.13c0 .017.017.035.052.052.035 0 .052-.009.052-.026a.854.854 0 0 1 .13-.104c.052-.052.078-.095.078-.13.035-.139.052-.277.052-.416l.052-.442-.026-.026a1.035 1.035 0 0 0-.156.13c-.052.035-.07.06-.052.078zm-.104.988a.406.406 0 0 1-.104.078c-.017 0-.035.017-.052.052l-.104.286a1.477 1.477 0 0 1-.078.26c0 .017.035.095.104.234.017-.035.043-.052.078-.052l.104-.338c.052-.104.095-.225.13-.364 0-.017-.009-.035-.026-.052l-.052-.104zM69.39 46.13a.556.556 0 0 0 .13.104v-.13c-.017 0-.035-.009-.052-.026h-.078v.052zm.442-.884c-.19.035-.312.07-.364.104v.156a.29.29 0 0 1-.026.13h.078a.231.231 0 0 1 .104-.026v-.104a.429.429 0 0 0 .026-.13c.035.035.06.07.078.104.035.017.07.043.104.078h.052c.017-.017.043-.026.078-.026 0-.173-.017-.26-.052-.26h-.052c0-.017-.009-.026-.026-.026zm-.156 1.04v-.026c.017 0 .026-.009.026-.026v-.026c0-.017-.009-.026-.026-.026v-.026.13zm2.236-8.58a1.78 1.78 0 0 1 .052-.208l.052-.182h-.182a.765.765 0 0 1-.026.182v.182l.104.026zm1.846-4.784a1.14 1.14 0 0 1-.234.13c0 .017.009.035.026.052a.406.406 0 0 1 .104-.078l.104-.104zm.52-.286c-.104.208-.043.32.182.338a.855.855 0 0 0 .052-.26.925.925 0 0 1 .078-.234c-.087.035-.19.087-.312.156zm5.772-4.238a.418.418 0 0 1 .182-.052.28.28 0 0 0 .156-.052c.052-.017.095-.087.13-.208 0-.035-.017-.07-.052-.104h-.078c-.035 0-.052.009-.052.026a.663.663 0 0 0-.156.156 1.035 1.035 0 0 1-.13.156v.078zm1.664-1.196c.017-.017.026-.043.026-.078s.009-.07.026-.104h-.078c-.017-.017-.043-.017-.078 0a1.06 1.06 0 0 0-.182.052c-.07.035-.139.078-.208.13a1.035 1.035 0 0 0-.156.13v.052c.017 0 .026.017.026.052a2.43 2.43 0 0 1 .312-.13l.312-.104zm.624-.572c0-.017.009-.035.026-.052l-.104-.052c-.017-.035-.043-.043-.078-.026a.231.231 0 0 0-.104.026.282.282 0 0 1-.104.052l.078.078c.017.017.043.026.078.026a.11.11 0 0 0 .104 0l.104-.052zm.156-2.002a.447.447 0 0 0-.026.182c0 .07.043.078.13.026.104 0 .156-.026.156-.078a.451.451 0 0 1 .156-.312l.26-.286.104-.104c.035-.052.026-.13-.026-.234a.854.854 0 0 1-.13.104l-.104.104a.606.606 0 0 0-.104.156.326.326 0 0 1-.078.13l-.156.156a1.7 1.7 0 0 1-.182.156zm-2.47 2.574a.409.409 0 0 0-.156.104.695.695 0 0 0-.13.182c.173.121.295.173.364.156s.147-.104.234-.26c.052-.052.095-.104.13-.156l.13-.13c.087-.087.156-.165.208-.234a3.23 3.23 0 0 1 .234-.26c.035-.035.06-.052.078-.052s.043-.017.078-.052c.017-.017.035-.026.052-.026l.052-.052a2.7 2.7 0 0 1 .312-.312l.26-.312a6.01 6.01 0 0 1 .312-.338.878.878 0 0 0 .208-.234.878.878 0 0 1 .208-.234c-.139-.087-.277-.07-.416.052a.854.854 0 0 0-.104.13 1.523 1.523 0 0 0-.13.156 3.154 3.154 0 0 1-.26.234l-.234.234a7.585 7.585 0 0 1-.26.39 9.084 9.084 0 0 0-.286.364.326.326 0 0 1-.13.078c-.035 0-.07.017-.104.052a.2.2 0 0 1-.078.026c-.017 0-.035.009-.052.026-.087.07-.165.156-.234.26a.497.497 0 0 1-.286.208zm-.832.78c-.312.104-.537.277-.676.52a1.49 1.49 0 0 1 .286-.026c.104 0 .217-.009.338-.026a.652.652 0 0 1 .208-.182 2.73 2.73 0 0 0 .234-.156c.017-.017.026-.035.026-.052a.2.2 0 0 1 .026-.078.301.301 0 0 1 .052-.078l.052-.104.104-.104a.301.301 0 0 1-.078-.052c-.017-.017-.035-.026-.052-.026a.585.585 0 0 0-.208.104 1.035 1.035 0 0 0-.156.13 1.035 1.035 0 0 1-.156.13zm-4.784 1.04a9.095 9.095 0 0 1-.156.39 9.095 9.095 0 0 0-.156.39l.286-.104a.326.326 0 0 1 .13-.078c.052-.035.095-.06.13-.078a4.02 4.02 0 0 0 .182-.598 4.69 4.69 0 0 0 .104-.468.2.2 0 0 0-.026-.078c-.017-.052-.035-.078-.052-.078-.087 0-.139.043-.156.13l-.156.312a1.822 1.822 0 0 1-.13.26zM69.52 44.258c-.017.035-.009.104.026.208.07 0 .121-.009.156-.026a.233.233 0 0 0 .156-.13c.017.035.026.07.026.104.07 0 .156-.017.26-.052.087-.295.043-.58-.13-.858l.286-.208a2.37 2.37 0 0 0 .26-.182c-.07-.07-.139-.13-.208-.182-.052-.052-.035-.139.052-.26.052-.052.043-.121-.026-.208s-.087-.147-.052-.182a.465.465 0 0 1 .13-.13v-.416c.017 0-.043-.035-.182-.104a.638.638 0 0 1 .234-.052.357.357 0 0 0 .182-.078 2.31 2.31 0 0 0 .208-.416l.182-.52c-.07.017-.156.026-.26.026l-.026-.052c.139-.07.243-.13.312-.182a4.243 4.243 0 0 1-.026-.468c0-.173-.095-.303-.286-.39a.52.52 0 0 1 .234 0c.035.035.06.07.078.104l.078.078c-.017-.139-.017-.225 0-.26.017-.052.095-.147.234-.286l.026-.052.182-.598a4.92 4.92 0 0 1 .208-.598c0-.017-.026-.043-.078-.078a.406.406 0 0 1-.104.078.2.2 0 0 0-.078.026c-.017 0-.043-.017-.078-.052.121-.225.234-.407.338-.546v-.286l.39.104a7.27 7.27 0 0 0-.078-.26c0-.07-.009-.13-.026-.182a2.6 2.6 0 0 1 .234-.26 1.256 1.256 0 0 0-.13-.078.406.406 0 0 1-.104-.078c.035-.156.078-.303.13-.442.07-.139.121-.277.156-.416h.078l-.156.546a.515.515 0 0 0-.052.234.406.406 0 0 1 .104-.078.156.156 0 0 0 .104-.104 5.01 5.01 0 0 0 .234-.416 3.09 3.09 0 0 1 .286-.494l-.286.078-.156.052-.052-.052a.406.406 0 0 1 .104-.078.406.406 0 0 0 .104-.078.606.606 0 0 1 .156-.104.446.446 0 0 0 .13-.13l.182-.546.182-.546a4.031 4.031 0 0 1-.312-.078l.104-.234c.052-.07.095-.139.13-.208l-.416.208c-.139.07-.26.139-.364.208-.07.225-.147.407-.234.546l-.104.286a2.045 2.045 0 0 1-.078.312l-.208.494-.182.494a63.87 63.87 0 0 0-.312.962l-.338.962-.182.676a8.483 8.483 0 0 1-.182.624l-.13.572a1.78 1.78 0 0 1-.156.572c-.121.225-.182.46-.182.702a1.87 1.87 0 0 1-.13.676 2.14 2.14 0 0 0-.156.676 2.38 2.38 0 0 1-.104.702c-.087.243-.13.477-.13.702.017.225-.043.46-.182.702zm-1.56 1.586l.546-.052.494-.078h.13a.231.231 0 0 1 .104-.026v-.286a1.01 1.01 0 0 1-.13.052.29.29 0 0 0-.13.026 2.764 2.764 0 0 1-.546.104 1.37 1.37 0 0 0-.572.13l-.078.078a.231.231 0 0 0-.104.026c0 .035.009.06.026.078.035 0 .121-.017.26-.052zm3.25-.052l.182-.052a1.81 1.81 0 0 0 .182-.104c0-.035-.009-.052-.026-.052v-.052a.856.856 0 0 1-.208.026.418.418 0 0 0-.182.052l-.156.052a1.01 1.01 0 0 0-.13.052c0 .035-.009.06-.026.078v.078a.765.765 0 0 1 .182-.026l.182-.052zm.598-.364c.295.07.468.017.52-.156a1.51 1.51 0 0 1-.26.078 1.477 1.477 0 0 0-.26.078zm.962-.234l.988-.338a8.26 8.26 0 0 0 .91-.364c0-.017-.009-.026-.026-.026v-.026c-.156-.017-.26-.009-.312.026a9.806 9.806 0 0 0-.286.104 1.194 1.194 0 0 1-.364.182l-.39.104h-.052a.453.453 0 0 0-.338.026c-.087.052-.13.156-.13.312zm4.03-2.548c.139-.19.32-.243.546-.156h.052a.231.231 0 0 1 .104-.026c-.052-.052-.078-.087-.078-.104a.231.231 0 0 1-.026-.104c-.052-.139-.156-.165-.312-.078a5.49 5.49 0 0 1-.468.312l-.468.26a.363.363 0 0 1-.156.026h-.13a.2.2 0 0 1-.078.026.2.2 0 0 0-.078.026 3.63 3.63 0 0 0-.442.234 3.556 3.556 0 0 1-.442.234l-.546.26a5.152 5.152 0 0 1-.546.234c-.243.139-.503.26-.78.364l-.754.312a1.93 1.93 0 0 1-.208.078l-.494.156-.494.156v.13a.11.11 0 0 1 0 .104v.104a.2.2 0 0 1 .078-.026l.104-.052c.087-.035.165-.06.234-.078a.96.96 0 0 0 .208-.078l.494-.104a1.9 1.9 0 0 0 .468-.208 3.7 3.7 0 0 1 .884-.338c.295-.07.572-.217.832-.442a2.32 2.32 0 0 1 .442-.26l.494-.234a.654.654 0 0 1 .156-.078 1.57 1.57 0 0 1 .182-.104 4.98 4.98 0 0 1 .546-.234l.572-.208c.035-.017.052-.035.052-.052l.052-.052zm.312.52a1.21 1.21 0 0 0 .208-.104 1.81 1.81 0 0 0 .182-.104c-.017-.017-.026-.035-.026-.052s-.009-.035-.026-.052l-.39.208c.035.035.052.07.052.104zm1.04-.546c.017 0 .026-.043.026-.13l-.078-.026-.364.26.078.078a.654.654 0 0 1 .156-.078 1.81 1.81 0 0 0 .182-.104zm.13-1.04c-.052.035-.095.06-.13.078a.406.406 0 0 0-.104.078h-.026l-.26.104a1.73 1.73 0 0 0-.234.078c-.052.052-.078.095-.078.13 0 .07.026.104.078.104.035.017.087.009.156-.026.087-.035.173-.087.26-.156s.2-.087.338-.052v-.338zm.156.026a.326.326 0 0 1 .13-.078c.052-.035.078-.095.078-.182 0 .017-.017-.009-.052-.078a2.6 2.6 0 0 0-.234.26c0 .017.009.035.026.052s.035.026.052.026zm1.664-.078c.035-.017.052-.043.052-.078a1.01 1.01 0 0 1 .052-.13c-.017-.017-.043-.026-.078-.026a2.503 2.503 0 0 1-.182.052 3.937 3.937 0 0 0-.208.078l-.26.156-.234.13-.234.208a.61.61 0 0 1-.208.13c-.07.017-.121.087-.156.208h.104a.429.429 0 0 1 .13-.026l.026-.026c.017 0 .035-.009.052-.026a5.06 5.06 0 0 0 .234-.052c.087-.017.173-.043.26-.078l.312-.26.338-.26zm-.494-.962a.17.17 0 0 1 .078.078c.017.017.035.026.052.026l.208-.078a1.57 1.57 0 0 1 .182-.104c.017-.017.017-.035 0-.052a.2.2 0 0 1 .026-.078h-.13l-.104.052a.282.282 0 0 1-.104.052c0-.017-.009-.026-.026-.026v-.052l-.182.182zm.65.65c.087.035.19.026.312-.026a.67.67 0 0 0 .286-.234.427.427 0 0 0-.026-.104c-.017-.052-.035-.078-.052-.078-.087 0-.139.017-.156.052l-.208.234-.156.156zm2.522-2.522a.447.447 0 0 0 .182-.026 2.87 2.87 0 0 0 .234-.338c-.139-.035-.277.087-.416.364zm1.014-1.508c.017-.017.026-.035.026-.052 0-.035.009-.07.026-.104-.087 0-.182.052-.286.156a2.48 2.48 0 0 0-.26.312 4.266 4.266 0 0 0-.234.364 6.33 6.33 0 0 0-.156.286.429.429 0 0 1 .13-.026l.104-.052.312-.442a4.26 4.26 0 0 1 .338-.442zm.26.234l.26-.364.26-.416c-.121.035-.26.156-.416.364-.156.19-.234.338-.234.442.035 0 .06.009.078.026h.104l-.052-.052zm1.014-3.562a7.81 7.81 0 0 0 .26-.832 1.61 1.61 0 0 0-.026-.858.478.478 0 0 0-.182-.286 4.279 4.279 0 0 1-.286-.26 1.987 1.987 0 0 0-.416-.286l-.416-.26a9.149 9.149 0 0 0-.962-.364 3.138 3.138 0 0 0-1.092-.182h-.026a2.39 2.39 0 0 0-.286-.078.555.555 0 0 0-.338 0 .478.478 0 0 1-.312 0 .98.98 0 0 0-.312-.052 1.93 1.93 0 0 0-.312.026l-.312.052h-.078a1.095 1.095 0 0 0-.624-.026c-.19.052-.407.087-.65.104a.17.17 0 0 0-.078.078c0 .017-.009.035-.026.052a2.56 2.56 0 0 0-.26.156l-.26.104a.658.658 0 0 1-.26 0 .514.514 0 0 0-.364.026 1.959 1.959 0 0 1-.338.13l-.572.234a2.08 2.08 0 0 0-.52.312.807.807 0 0 0-.156.052.406.406 0 0 0-.104.078.363.363 0 0 0-.026.156 4.279 4.279 0 0 0-.26.286l-.208.26c-.052.052-.06.113-.026.182.035.156.043.251.026.286s-.095.095-.234.182c.07.139.078.243.026.312a.38.38 0 0 1-.182.13c-.07.035-.156.07-.26.104a.33.33 0 0 0-.182.156 1.15 1.15 0 0 0 .208.026h.234c-.208.139-.355.277-.442.416-.087.121-.087.277 0 .468l-.208.182a1.035 1.035 0 0 0-.156.13c.035.052.087.113.156.182.035.139 0 .208-.104.208a.91.91 0 0 0-.286.052c.052.104.104.19.156.26l-.234.104-.234.104a.176.176 0 0 0-.052.13c0 .052.026.078.078.078l.286.078c-.156.017-.243.07-.26.156l-.052.26a2.574 2.574 0 0 1-.13.39l-.104.39a.2.2 0 0 0-.026.078.2.2 0 0 1-.026.078c0 .104-.017.225-.052.364h-.13a.231.231 0 0 0-.104-.026.363.363 0 0 0-.156.026h-.078c.052.07.113.13.182.182s.121.113.156.182a.652.652 0 0 1-.182.208.693.693 0 0 0-.156.234.324.324 0 0 0 0 .182 1.06 1.06 0 0 1 .078.208c.017.035.043.07.078.104.052.035.078.07.078.104a1.948 1.948 0 0 0-.208.364 1.202 1.202 0 0 1-.156.338c-.017.035-.06.06-.13.078a.418.418 0 0 0-.182.052c.052.017.087.078.104.182a1.628 1.628 0 0 1-.312.104c.104.225.139.425.104.598a8.2 8.2 0 0 1-.13.546 4.392 4.392 0 0 1-.13.338c-.035.104-.06.208-.078.312a9.3 9.3 0 0 0-.13.676l-.104.702a.29.29 0 0 0-.026.13c0 .035-.009.07-.026.104.139-.035.26-.078.364-.13a3.06 3.06 0 0 1 .364-.13l.962-.312.91-.338a16.29 16.29 0 0 0 1.092-.546l.962-.468 1.014-.468.624-.39.676-.442a11.92 11.92 0 0 0 1.3-.832l1.222-.936.702-.598.728-.702c.225-.208.442-.433.65-.676l.624-.728a3.8 3.8 0 0 0 .286-.442 2.55 2.55 0 0 1 .312-.442 2.6 2.6 0 0 0 .416-.702l.312-.754zm17.399 1.43v.104c-.052.087-.104.19-.156.312a.404.404 0 0 1-.208.208.55.55 0 0 0-.234.208c-.034.07-.086.147-.156.234a6.211 6.211 0 0 0-.26.338l-.26.364-.104.234a.563.563 0 0 1-.078.182 1.54 1.54 0 0 1-.312.364 2.057 2.057 0 0 0-.286.364 3 3 0 0 1-.26.234c-.069.07-.138.156-.208.26a.576.576 0 0 1-.182.234 1.57 1.57 0 0 0-.234.234l-.078.078a.49.49 0 0 1-.234.338 6.974 6.974 0 0 0-.338.182c-.104-.104-.156-.165-.156-.182 0-.035.06-.095.182-.182a.86.86 0 0 0 .104-.13.464.464 0 0 1 .13-.13l.156-.156.208-.156a2.21 2.21 0 0 1 .286-.286l.286-.312.234-.286.26-.312.234-.39c.07-.139.148-.269.234-.39a1.55 1.55 0 0 1 .234-.234 3 3 0 0 0 .26-.234l-.078-.052a.352.352 0 0 0 .026-.156c.018-.07.035-.104.052-.104.191 0 .278-.052.26-.156a.615.615 0 0 1 .026-.312.414.414 0 0 0 .052-.182c.018 0 .026.009.026.026h.052a3.992 3.992 0 0 0-.078-.078.392.392 0 0 0-.078-.104l-.884 1.222c-.294.399-.615.78-.962 1.144l-.052-.052c.035-.035.052-.07.052-.104a.411.411 0 0 1 .078-.104l.546-.702.572-.728a7.81 7.81 0 0 0 .364-.598c.035-.087.078-.165.13-.234l.182-.234.208-.208.156.156.13.13a.82.82 0 0 1 .13.104v.13c.018.035.026.07.026.104zm-4.238 4.706a.549.549 0 0 1 .26-.182c.122-.052.26-.035.416.052l-.442.442-.546.546-.494.52a.326.326 0 0 1-.13.078c-.034 0-.07.017-.104.052l-.104.104a.41.41 0 0 1-.078.104l-.234.234c0-.017-.026 0-.078.052a1.81 1.81 0 0 1-.572.676 4.717 4.717 0 0 0-.65.546l-.65.598-.676.572-.104.052a.305.305 0 0 1-.078.052l-.416.234-.546.338-.52.364-.39.234c-.19.139-.39.243-.598.312a3.96 3.96 0 0 1-.65.156 4.39 4.39 0 0 1-.676.052.964.964 0 0 1-.624-.234c-.138-.104-.251-.087-.338.052-.052.121-.13.182-.234.182-.086 0-.182-.009-.286-.026a.545.545 0 0 1-.286-.078c-.07-.035-.112-.121-.13-.26-.017 0-.034.009-.052.026h-.026a.429.429 0 0 1-.026.13v.156a2.259 2.259 0 0 1-.208-.234 2.37 2.37 0 0 0-.182-.26c0-.017-.008-.035-.026-.052 0-.017-.008-.035-.026-.052v-.026l-.078-.156c-.086-.312-.216-.555-.39-.728a.515.515 0 0 1-.156-.182 1.494 1.494 0 0 0-.078-.26 2.37 2.37 0 0 0-.182-.26l-.156-.26a1.812 1.812 0 0 1-.13-.26 2.428 2.428 0 0 0-.078-.286l-.182-.702a2.559 2.559 0 0 1 0-.728l.052-.494c.035-.156.06-.32.078-.494.018-.017.026-.043.026-.078a1.757 1.757 0 0 1 .13-.806l.286-.754c.018-.052.07-.095.156-.13-.156-.208-.104-.355.156-.442.052-.052.078-.104.078-.156-.052-.19 0-.32.156-.39l.052-.208a.577.577 0 0 0 .182-.078c.07-.035.06-.121-.026-.26-.017-.017 0-.06.052-.13a.886.886 0 0 1 .182-.182l.078-.078c.035-.017.035-.052 0-.104l.234-.156a1.263 1.263 0 0 0-.156-.182c.243 0 .32-.07.234-.208a2.27 2.27 0 0 0 .208-.234l.208-.26.104-.208a1 1 0 0 0 .13-.234h.026c.018-.017.035-.026.052-.026.19-.087.304-.147.338-.182.035-.052.035-.165 0-.338a.23.23 0 0 1 .104-.026.29.29 0 0 0 .13-.026l-.104-.104-.104-.156.858-1.092a1.93 1.93 0 0 1-.078.208c.018 0 .026.009.026.026h.052l.104-.156a5.44 5.44 0 0 0 .13-.208c.139-.035.19-.147.156-.338-.017-.104.044-.225.182-.364a.92.92 0 0 1 .416-.26h.104c-.052-.156-.034-.269.052-.338a.75.75 0 0 0 .234-.234c.139-.208.295-.399.468-.572l.52-.546a5.71 5.71 0 0 1 .546-.572 2.93 2.93 0 0 0 .52-.624 3.68 3.68 0 0 1 .572-.676c.208-.208.434-.407.676-.598a.325.325 0 0 1 .13-.078l.156-.104c.07-.035.122-.043.156-.026l.702.312c.018 0 .035.009.052.026h.052l.234.104c.07.035.13.095.182.182.052.07.113.13.182.182s.139.095.208.13c.19.121.33.26.416.416l.26.52c0 .017.009.035.026.052.035.104.052.217.052.338.018.121.052.243.104.364.087.19.148.373.182.546.052.173.122.347.208.52a.73.73 0 0 1 .026.572.812.812 0 0 0 0 .572.2.2 0 0 1-.026.078.299.299 0 0 0-.052.078c.156.104.2.208.13.312a.918.918 0 0 0-.156.286l-.052.312a2.428 2.428 0 0 1-.078.286c-.034.087-.06.173-.078.26 0 .07-.043.139-.13.208a.176.176 0 0 0-.052.13.22.22 0 0 1-.026.104 4.599 4.599 0 0 1-.286.494 4.85 4.85 0 0 1-.494.728l-.312.468a9.778 9.778 0 0 1-.312.442 2 2 0 0 1-.286.364 3.29 3.29 0 0 0-.26.364 1.23 1.23 0 0 0-.182.338c-.034.087-.078.139-.13.156a1.06 1.06 0 0 0-.416.364 3.13 3.13 0 0 1-.312.416 2.48 2.48 0 0 1-.312.26 5.712 5.712 0 0 0-.338.26l-.26.208c-.07.07-.147.139-.234.208a2.337 2.337 0 0 1-.338.234l-.338.234c-.034 0-.06.009-.078.026a2.43 2.43 0 0 1-.78.416l-.832.234a.824.824 0 0 1-.234.052h-.026a5.288 5.288 0 0 1-.91.104c-.381.017-.684 0-.91-.052l-.026-.026-.156.078c.035.173-.043.312-.234.416a.17.17 0 0 0-.078.078.22.22 0 0 1-.026.104.406.406 0 0 0-.078.104c0 .017-.017.043-.052.078-.086.087-.104.147-.052.182a.33.33 0 0 1 .156.078c-.034.087-.06.173-.078.26l-.052.26c-.034.07-.07.113-.104.13-.156.156-.173.338-.052.546.052.087.044.182-.026.286a.22.22 0 0 0 .052.312c.052.017.096.087.13.208l.078.156c.018.087.026.182.026.286a.816.816 0 0 0 .104.26.648.648 0 0 0 .442.286c.347.052.737.026 1.17-.078a3.98 3.98 0 0 0 1.092-.468l.572-.364.702-.468.676-.494.572-.416 1.118-.91 1.092-.936a43.412 43.412 0 0 0 1.794-1.69l.754-.676.754-.702a.907.907 0 0 0 .182-.182l.156-.208.052.052c.018 0 .035.017.052.052l-1.274 1.326-1.222 1.3-.104.156a.41.41 0 0 1-.078.104 6.488 6.488 0 0 1-.338.364l-.312.312-.052.052c-.017 0-.034.009-.052.026a.301.301 0 0 0-.078.052c0 .017-.017.043-.052.078.035 0 .07.009.104.026.052.017.096.017.13 0a.854.854 0 0 0 .13-.104c.052-.052.104-.095.156-.13l.754-.65a9.16 9.16 0 0 0 .702-.728zm-9.62-2.132a.55.55 0 0 1 .234-.208c.104-.052.13-.156.078-.312-.086 0-.138.009-.156.026-.07.07-.13.139-.182.208a1.27 1.27 0 0 1-.13.208c-.052.052-.043.078.026.078.035.052.078.052.13 0zm.286.78l.286-.364.286-.39c-.156.017-.294.104-.416.26a.632.632 0 0 0-.156.494zm4.472.364c.035-.035.052-.087.052-.156l.052-.234c-.138 0-.234.07-.286.208a1.035 1.035 0 0 1-.13.156 1.03 1.03 0 0 0-.13.156l-.312.234.078.078.338-.208a2.33 2.33 0 0 0 .338-.234zm.364-.442c.035 0 .07-.035.104-.104.018-.017.018-.035 0-.052s-.034-.026-.052-.026c-.07-.035-.13-.026-.182.026a.406.406 0 0 0-.078.104c0 .017-.017.043-.052.078a.914.914 0 0 0 .26-.026zm-1.742-2.262a4.94 4.94 0 0 0-.338.494 7.922 7.922 0 0 1-.338.468.305.305 0 0 1-.078.052c-.034.017-.06.017-.078 0-.086-.017-.138 0-.156.052a.8.8 0 0 0-.052.156c0 .052-.017.13-.052.234l-.104.208c-.034.052-.07.113-.104.182l-.13.13a1.035 1.035 0 0 1-.13.156.693.693 0 0 0-.13.182 6.833 6.833 0 0 0-.234.52c-.052.173-.156.33-.312.468l-.052.052-.338.494a2.02 2.02 0 0 1 .442.052.762.762 0 0 0 .442-.026c.087-.035.165-.06.234-.078s.148-.043.234-.078a1.61 1.61 0 0 1 .234-.026 1.32 1.32 0 0 0 .182-.078.654.654 0 0 1 .156-.078.96.96 0 0 0 .208-.078c.035 0 .07-.017.104-.052l.78-.546a1.91 1.91 0 0 1 .26-.13 2.38 2.38 0 0 0 .26-.182c.243-.173.46-.355.65-.546a4.04 4.04 0 0 0 .546-.676l.104-.104.338-.416.338-.416a1893.003 1893.003 0 0 1 .832-1.04.177.177 0 0 0 .052-.13.29.29 0 0 0 .026-.13.326.326 0 0 1 .078-.13 9.88 9.88 0 0 0 .676-1.274 5.29 5.29 0 0 0 .39-1.404c.035-.173.044-.347.026-.52v-.52a.253.253 0 0 0-.052-.13c-.017-.052-.043-.078-.078-.078a.323.323 0 0 0-.234.104l-.208.208a1.192 1.192 0 0 1-.208.182 1.88 1.88 0 0 1-.208.182 1.7 1.7 0 0 1-.182.156 1.86 1.86 0 0 0-.286.234c-.086.087-.19.165-.312.234a1.37 1.37 0 0 0-.364.338 3.633 3.633 0 0 1-.338.39 1.7 1.7 0 0 1-.182.156l-.208.104a.735.735 0 0 0-.13.156 4.266 4.266 0 0 0-.234.364 1.954 1.954 0 0 1-.208.364c-.086.121-.19.243-.312.364l-.312.312c-.138.156-.268.32-.39.494a.954.954 0 0 1-.52.364v.156a.11.11 0 0 1 0 .104zm-.624-3.146l-.13.13a.86.86 0 0 1-.104.13c0 .035.009.06.026.078a.23.23 0 0 1 .104-.026c.035 0 .06-.017.078-.052.035-.035.052-.07.052-.104 0-.052.009-.095.026-.13-.017-.017-.034-.026-.052-.026zm-.468.39a.556.556 0 0 0-.13.104l-.104.104a1.56 1.56 0 0 0 .234.182c0 .035.018.052.052.052.035-.052.06-.095.078-.13a1.72 1.72 0 0 0 .104-.182.305.305 0 0 0-.078-.052l-.104-.052c-.017-.017-.034-.026-.052-.026zm-.208.39c-.173-.017-.312.078-.416.286.07.035.156.087.26.156l-.052-.104a.429.429 0 0 0-.026-.13c.035 0 .07.009.104.026.035 0 .07-.009.104-.026.035 0 .087-.035.156-.104a.301.301 0 0 1-.078-.052c0-.035-.017-.052-.052-.052zm-3.406 5.772v-.026c.018 0 .026-.009.026-.026a2.03 2.03 0 0 0-.104-.26c-.017-.017-.043-.026-.078-.026a.22.22 0 0 1-.026.104.11.11 0 0 0 0 .104c0 .017.06.06.182.13zm-.104-.442a1.81 1.81 0 0 0 .182-.104l.234-.13c-.138-.139-.121-.277.052-.416.018-.017.018-.043 0-.078a.23.23 0 0 1 .026-.104h-.052c0-.017-.008-.026-.026-.026a5.01 5.01 0 0 0-.234.416l-.234.39.052.052zm.416 2.288c.052-.035.078-.095.078-.182a.42.42 0 0 0-.026-.26l-.078.182a1.444 1.444 0 0 1-.078.182v.052c.018.017.026.035.026.052.052 0 .078-.009.078-.026zm0-3.328a.81.81 0 0 0 .13.104.654.654 0 0 1 .156.078.661.661 0 0 0 .078-.156.581.581 0 0 0 .078-.182c.018-.035.018-.078 0-.13v-.182c.035.017.052.035.052.052a.2.2 0 0 1 .078.026 2.27 2.27 0 0 0 .208-.234l.208-.26.026-.052a.304.304 0 0 0 .052-.078c0-.017-.017-.035-.052-.052-.017-.017-.034-.017-.052 0-.034 0-.078.026-.13.078l-.052.104a.2.2 0 0 1-.026.078c-.017 0-.043-.017-.078-.052l.104-.208a.516.516 0 0 1 .182-.156c.156-.07.243-.121.26-.156.035-.035.009-.13-.078-.286l.156-.078.208-.104c.087-.035.139-.07.156-.104.018-.173.078-.286.182-.338a1.86 1.86 0 0 0 .286-.234 3.618 3.618 0 0 0-.078-.338c.122-.07.226-.147.312-.234a.907.907 0 0 0 .182-.182l.156-.208c.122-.139.087-.251-.104-.338a9.585 9.585 0 0 0-1.43 1.82 75.464 75.464 0 0 0-1.17 2.002zm.26 2.574a2.77 2.77 0 0 0 .208-.468l.234-.468c-.034 0-.052-.017-.052-.052-.07.035-.104.07-.104.104a1.315 1.315 0 0 1-.156.312 4.267 4.267 0 0 0-.156.286c-.034.052-.052.147-.052.286h.078zm28.032-16.094c-.087-.156-.217-.208-.39-.156a7.067 7.067 0 0 0-.364.13 1.26 1.26 0 0 1-.416.13 3.893 3.893 0 0 0-.39.078 2.045 2.045 0 0 0-.312.078 2.375 2.375 0 0 0-.286.078.417.417 0 0 1-.182.052 1.837 1.837 0 0 0-1.014.078 4.542 4.542 0 0 1-.988.208 5.359 5.359 0 0 0-.52.078c-.173.035-.338-.017-.494-.156-.017-.052-.078-.06-.182-.026a81.69 81.69 0 0 0-1.014.26l-1.04.26-.702.13-.728.104-.546.104-.546.104-.286-.286c.208-.468.503-.823.884-1.066.381-.26.797-.46 1.248-.598l.988-.312c.312-.121.641-.225.988-.312l1.378-.312 1.352-.286.962-.208.988-.234.988-.156 1.014-.182 1.014-.182 1.04-.234a.475.475 0 0 0 .364-.312l1.716-3.9.364-.728.364-.754c.087-.173.191-.277.312-.312a.668.668 0 0 1 .416-.026c.139.035.277.06.416.078a4.23 4.23 0 0 1 .468.078.231.231 0 0 0 .104.026c.035 0 .069.017.104.052l.52.338c.191.104.338.243.442.416a2.41 2.41 0 0 0 .182.26c.069.087.121.173.156.26.052.087.078.19.078.312a.592.592 0 0 1-.13.338v.104c.139.208.165.39.078.546a1.411 1.411 0 0 1-.416.442l-.052.026-.416.702-.416.702a2.202 2.202 0 0 1-.416.572c-.017.173.087.26.312.26l1.82-.104a6.47 6.47 0 0 1 1.82.156c.191.035.39.06.598.078a2.37 2.37 0 0 1 .624.078c.139.035.286.095.442.182.173.087.329.2.468.338a1.43 1.43 0 0 1 .338.442.92.92 0 0 1 .156.52 4.32 4.32 0 0 0 .026.468.837.837 0 0 1 0 .416.824.824 0 0 1-.156.338.521.521 0 0 1-.234.208c-.208.07-.416.121-.624.156l-.624.052-.728.026a3.133 3.133 0 0 1-.702-.13 6.028 6.028 0 0 0-1.768-.208 20.75 20.75 0 0 1-1.794-.026c-.243 0-.494.017-.754.052l-.832.078c0 .035-.043.165-.13.39l-.286.702-.26.754-.156.416a.822.822 0 0 1-.208.312.384.384 0 0 0-.104.338c.017.035-.009.07-.078.104a1.93 1.93 0 0 0-.182.104c.052.173.069.286.052.338s-.095.121-.234.208c-.035.052-.104.13-.208.234a.869.869 0 0 1-.13.104.292.292 0 0 0-.104.104c-.017.035-.009.078.026.13l.104.156a.6.6 0 0 0-.078.234 1.091 1.091 0 0 1-.104.312 8.185 8.185 0 0 0-.104.338c-.035.104-.121.2-.26.286a.324.324 0 0 0-.078.156v.13l-.286.338a4.279 4.279 0 0 0-.26.286c-.052.087-.061.156-.026.208.052.173.069.286.052.338-.017.035-.113.104-.286.208.069.156.078.269.026.338a.442.442 0 0 1-.208.182l-.286.104a.421.421 0 0 0-.208.182c.087.017.165.026.234.026h.286c-.243.139-.416.286-.52.442a.452.452 0 0 0 0 .468 2.323 2.323 0 0 1-.234.208 1.73 1.73 0 0 1-.182.156.41.41 0 0 1 .078.104l.104.104c.052.156.017.234-.104.234a.746.746 0 0 0-.338.078 1.66 1.66 0 0 1 .156.286 1.822 1.822 0 0 0-.26.13c-.069.035-.147.07-.234.104-.069.035-.104.078-.104.13l.104.104c.139.035.251.07.338.104-.173 0-.277.052-.312.156l-.052.312a6.186 6.186 0 0 1-.13.442 3.905 3.905 0 0 0-.13.416.294.294 0 0 0-.026.13c0 .035-.009.07-.026.104a1.4 1.4 0 0 1-.052.312h-.156a.492.492 0 0 0-.156-.026.203.203 0 0 0-.078.026h-.078l.156.234a1.7 1.7 0 0 1 .156.182l-.182.234a1.855 1.855 0 0 0-.13.26.273.273 0 0 0 0 .234l.104.208c0 .035.017.07.052.104s.043.07.026.104l-.156.416a4.415 4.415 0 0 1-.182.416c-.017.035-.061.06-.13.078l-.208.052c.017.035.026.07.026.104.017.035.043.07.078.104-.069.035-.13.06-.182.078l-.156.052c.104.225.139.442.104.65-.035.19-.087.381-.156.572a2.607 2.607 0 0 1-.13.39 1.8 1.8 0 0 0-.13.364l-.13.78-.104.754-.104.416-.104.364c-.017.035-.052.06-.104.078a.406.406 0 0 0-.104.078 2.224 2.224 0 0 0-.208.234c-.052.07-.069.173-.052.312s0 .295-.052.468a4.14 4.14 0 0 0-.13.494l-.052.156a.5.5 0 0 0-.026.156 3.38 3.38 0 0 0 .078.416.943.943 0 0 1 0 .442.972.972 0 0 0-.052.312c0 .104-.017.2-.052.286-.069.208-.087.39-.052.546a1.25 1.25 0 0 0 .26.468l.078.078a1.55 1.55 0 0 1 .13.156c-.277.087-.503.06-.676-.078a1.314 1.314 0 0 0-.494-.286c-.087-.035-.156-.113-.208-.234a8.185 8.185 0 0 0-.104-.338.526.526 0 0 0-.208-.234c-.104-.052-.104-.13 0-.234a10.793 10.793 0 0 0-.208-.442 1.284 1.284 0 0 1-.13-.416 8.389 8.389 0 0 1-.052-.936 16.743 16.743 0 0 1-.026-.91c0-.19.017-.373.052-.546l.104-.52a2.13 2.13 0 0 0 .052-.468 4.23 4.23 0 0 1 .078-.468l.234-1.248.234-1.248.702-2.73.286-.91.312-.936.624-1.794.624-1.82.26-.65.26-.676.364-.936.364-.91.416-1.04.442-1.066.13-.39.234-.676.156-.65c.035-.19.026-.286-.026-.286a3.357 3.357 0 0 0-.416-.026.473.473 0 0 1-.338-.156c-.035-.035-.095-.035-.182 0a.917.917 0 0 1-.234.078zm-1.82 11.648a1.232 1.232 0 0 0-.026.234.781.781 0 0 1-.026.182.29.29 0 0 0 .13.026.457.457 0 0 0 .052-.208.979.979 0 0 1 .078-.208h-.208a.5.5 0 0 0-.026-.156v-.156c.173.017.338.052.494.104a53.144 53.144 0 0 1-.078-.312 2.503 2.503 0 0 0-.052-.182c.052-.07.095-.121.13-.156l.104-.156a5.646 5.646 0 0 1-.26-.182l.182-.468.156-.494c.017.017.043.026.078.026l-.104.312a1.977 1.977 0 0 1-.078.312.294.294 0 0 0-.026.13c0 .035-.009.07-.026.104a.328.328 0 0 1 .13-.078.292.292 0 0 0 .104-.104l.26-.494.26-.572-.234.104a1.397 1.397 0 0 0-.182.078l-.026-.026c0-.017-.009-.035-.026-.052a1.58 1.58 0 0 1 .234-.182.869.869 0 0 1 .13-.104l.13-.13a3.76 3.76 0 0 0 .208-.572l.208-.624a.365.365 0 0 0-.156-.026 4.04 4.04 0 0 1-.208-.078l.416-.754a.702.702 0 0 1 .13.182c.381-.295.503-.58.364-.858a.328.328 0 0 1-.13.078.328.328 0 0 0-.13.078l-.052-.026.39-.962.416-.988h.078a.983.983 0 0 1-.026.234v.182c.017 0 .026.009.026.026h.052a2.41 2.41 0 0 0 .182-.26c.069-.104.13-.208.182-.312.017-.017.009-.043-.026-.078-.017-.035-.043-.052-.078-.052-.035-.017-.121.009-.26.078a.835.835 0 0 1-.052-.208l.26-.806.286-.806a.689.689 0 0 0 .052-.26l.052-.26c.017-.017.009-.035-.026-.052-.017-.035-.043-.052-.078-.052-.087 0-.139.026-.156.078-.121.173-.234.39-.338.65l-.52 1.274-.52 1.248-.338.806-.312.806a17.07 17.07 0 0 1-.338.832l-.312.78-.234.624-.234.572-.208.546-.702 2.184-.234.702-.208.702-.13.676a1.902 1.902 0 0 1-.208.624 1.964 1.964 0 0 0-.208.754 2.22 2.22 0 0 1-.13.754 2.327 2.327 0 0 0-.182.78c0 .277-.043.546-.13.806a2.22 2.22 0 0 0-.13.754 1.62 1.62 0 0 1-.13.754.219.219 0 0 0-.026.182c.035.07.052.147.052.234.069-.07.121-.13.156-.182s.078-.104.13-.156c.069.347-.061.529-.39.546l.234.104c.087.017.173.043.26.078a1.9 1.9 0 0 0 .26-.806 1.267 1.267 0 0 0-.208-.78l.65-.468-.234-.182c-.069-.07-.052-.173.052-.312.017-.052.009-.121-.026-.208-.087-.087-.113-.165-.078-.234a.396.396 0 0 1 .13-.156v-.234a.871.871 0 0 0 .026-.208l-.104-.052a.758.758 0 0 0-.104-.078 2.45 2.45 0 0 1 .286-.078.357.357 0 0 0 .182-.078 2.74 2.74 0 0 0 .208-.468l.234-.52a.492.492 0 0 0-.156.026h-.156c0-.035-.009-.06-.026-.078a1.93 1.93 0 0 0 .182-.104 1.57 1.57 0 0 1 .182-.104 5.325 5.325 0 0 1-.026-.52c.017-.19-.087-.338-.312-.442.139-.035.225-.035.26 0a.41.41 0 0 1 .078.104l.104.104c-.017-.156-.017-.26 0-.312s.095-.147.234-.286l.026-.026c0-.017.009-.035.026-.052l.208-.676.208-.676-.052-.104a.406.406 0 0 1-.104.078c-.035 0-.069.017-.104.052-.017-.017-.035-.026-.052-.026l-.026-.026.156-.286.208-.312zm2.548-4.758a5.214 5.214 0 0 0-.104.286 1.44 1.44 0 0 1-.13.286 4.208 4.208 0 0 1-.364.598c-.139.19-.225.407-.26.65a8.185 8.185 0 0 0-.104.338.803.803 0 0 1-.104.286c-.243.381-.425.78-.546 1.196a45.51 45.51 0 0 1-.338 1.222 5.81 5.81 0 0 0-.13.52.867.867 0 0 1-.234.494.892.892 0 0 0-.156.312 8.185 8.185 0 0 1-.104.338l-.078.572a2.26 2.26 0 0 1-.13.546c-.069.19-.121.39-.156.598-.017.208-.147.373-.39.494l.104.26.13.312c.104-.173.165-.303.182-.39l.39-1.196.39-1.196.468-1.404.104-.312.156-.312a1.8 1.8 0 0 1 .182-.364.836.836 0 0 0 .156-.39l.104-.572a1.12 1.12 0 0 1 .286-.546c.017-.017.026-.035.026-.052s.009-.035.026-.052l.052-.208c.017-.07.043-.156.078-.26-.035-.087-.017-.225.052-.416a1.5 1.5 0 0 1 .286-.52.734.734 0 0 0 .208-.494 3.17 3.17 0 0 1 .052-.572c.035 0 0-.017-.104-.052zm-1.56-8.554a.294.294 0 0 0-.026-.13c-.121 0-.217.009-.286.026l-.78.156a4.48 4.48 0 0 1-.468.078 2.02 2.02 0 0 0-.442.052l-.598.104a6.802 6.802 0 0 0-.572.13l-1.3.26a19.9 19.9 0 0 0-1.326.26l-.936.286-.936.286c-.208.07-.39.156-.546.26-.173.104-.286.208-.338.312l.754-.234.754-.234 1.092-.26 1.066-.286a10.46 10.46 0 0 1 1.066-.208l1.04-.208.962-.234c.312-.07.641-.121.988-.156a1.81 1.81 0 0 0 .416-.104l.416-.156zm2.288.338a1.397 1.397 0 0 0-.182-.078.172.172 0 0 0-.156-.026l-.598.13-.572.156a4.48 4.48 0 0 1-.468.078 2.02 2.02 0 0 0-.442.052l-.962.156-.962.104-.208.052a4.891 4.891 0 0 1-.234.052l-1.404.234a4.891 4.891 0 0 0-.234.052 1.35 1.35 0 0 0-.26.026.32.32 0 0 0-.078.13.854.854 0 0 0-.104.13c.139.07.243.104.312.104.069-.017.173-.06.312-.13a.546.546 0 0 1 .286-.078l.338-.052a.969.969 0 0 1 .39.026c.139.035.243-.026.312-.182l.858-.078a2.85 2.85 0 0 0 .78-.156c.312-.121.615-.173.91-.156a2.22 2.22 0 0 0 .936-.156c.26-.104.529-.165.806-.182l.858-.104a.633.633 0 0 0 .208-.156c0-.017-.009-.035-.026-.052l-.052-.052a.649.649 0 0 0-.234.026.167.167 0 0 0-.078.078l-.052.052zm-.338 8.112c0-.19.035-.373.104-.546a5.03 5.03 0 0 1 .234-.546l.234-.52c.069-.19.104-.381.104-.572a3.43 3.43 0 0 0-.416.754l-.234.546a6.605 6.605 0 0 1-.234.52c-.156.225-.087.347.208.364zm-5.512 14.846l.078-.494.052-.52a1.13 1.13 0 0 1 .104.208l.104.156a.231.231 0 0 1 .104-.026v-.26c0-.104-.017-.165-.052-.182a.608.608 0 0 1-.208-.13 1.153 1.153 0 0 1-.104-.208.406.406 0 0 1-.104.078c-.035.017-.052.043-.052.078v.234a.687.687 0 0 1 .026.208l-.052.39a1.22 1.22 0 0 1-.052.338c0-.017.052.026.156.13zm1.976-5.33l-.052-.052a1.053 1.053 0 0 1-.13.156c-.052.052-.078.087-.078.104.104.139.104.269 0 .39a.92.92 0 0 0-.182.338.438.438 0 0 1-.026.13v.13c0 .017.017.035.052.052h.078c.052-.035.104-.078.156-.13s.078-.095.078-.13c.035-.173.052-.338.052-.494l.052-.494zm-.65 2.34h.026c.017-.017.035-.026.052-.026l.156-.39c.052-.121.095-.251.13-.39 0-.035-.035-.104-.104-.208a.406.406 0 0 1-.104.078.167.167 0 0 0-.078.078l-.104.312-.052.312c-.017.035-.017.078 0 .13a.41.41 0 0 1 .078.104zm3.458-20.592l-.494.078a5.734 5.734 0 0 0-.494.078v.078l.286.13.364-.13a6.48 6.48 0 0 0 .338-.156v-.078zm-4.394 23.218a.29.29 0 0 1-.13.026l-.104.286c-.017.104.069.2.26.286a1.93 1.93 0 0 0-.026-.312v-.286zm-1.612-21.476a3.05 3.05 0 0 1-.338.078l-.364.052c0 .035.009.06.026.078v.078c.104-.035.217-.052.338-.052a3.05 3.05 0 0 0 .338-.078v-.156zm4.264 14.82c.121-.104.269-.217.442-.338-.173-.035-.303-.035-.39 0-.069.035-.087.147-.052.338zm.52-6.136l.104-.338a2.43 2.43 0 0 0 .13-.312.203.203 0 0 0 .078.026c.017 0 .043.009.078.026l-.234.624h-.078c-.017-.017-.043-.026-.078-.026zm14.804 9.282c.018.208 0 .347-.052.416s-.156.087-.312.052l.052-.104.052-.104.26-.26zm6.786-11.96c0 .035-.008.06-.026.078-.017 0-.017.017 0 .052a.666.666 0 0 1-.026.416.956.956 0 0 1-.182.312 4.112 4.112 0 0 1-.286.26 1.16 1.16 0 0 0-.26.234l-.312.364a2.057 2.057 0 0 0-.286.364 35.974 35.974 0 0 0-1.144 1.612c-.052.104-.13.208-.234.312-.086.087-.112.2-.078.338 0 .017-.017.043-.052.078a2.73 2.73 0 0 1-.156.234l-.182.234a.935.935 0 0 0-.182.338c-.017.121-.095.225-.234.312-.052.035-.086.095-.104.182 0 .07-.017.139-.052.208a.68.68 0 0 1-.13.182.61.61 0 0 0-.078.182c-.121.347-.338.676-.65.988a9.286 9.286 0 0 0-.39.416.8.8 0 0 0-.182.546c0 .035-.017.07-.052.104a.235.235 0 0 0-.026.104 4.021 4.021 0 0 1-.052.234v.208a135.336 135.336 0 0 1-.728.832c.104.035.174.07.208.104s.035.078 0 .13c0 .035-.026.052-.078.052a.563.563 0 0 0-.338.156c-.069.087-.086.225-.052.416l.104-.208c.052-.07.096-.139.13-.208l.026.026c.018 0 .035.009.052.026l-.104.26a2.22 2.22 0 0 0-.104.26 5.01 5.01 0 0 0-.286-.104l-.208.468a5.67 5.67 0 0 1-.234.468c.139.07.234.07.286 0a.996.996 0 0 0 .156-.26c.07.243-.026.381-.286.416a1.1 1.1 0 0 0-.312.104 5.01 5.01 0 0 1-.286.104c.018.052.052.078.104.078h.13c.052 0 .087.017.104.052.035.017.044.07.026.156-.104.07-.164.121-.182.156a7.43 7.43 0 0 0-.234.52 5.958 5.958 0 0 1-.182.52l-.468 1.248a.659.659 0 0 0 0 .364l.26-.416.26-.442a.675.675 0 0 1 .026.026c.018 0 .035.009.052.026a.294.294 0 0 0-.026.13.28.28 0 0 1-.026.13l-.208.624a3.456 3.456 0 0 1-.208.598.979.979 0 0 1-.208.312 17.15 17.15 0 0 0-.234.364h.234l-.13.598-.104.598c-.034.087-.06.173-.078.26l-.052.26a5.076 5.076 0 0 0-.026.494v.494c0 .104-.017.2-.052.286-.017.087-.104.113-.26.078.035.139.052.26.052.364.018.104.044.208.078.312s.087.147.156.13a1.34 1.34 0 0 0 .26-.026c.087-.035.165-.06.234-.078a1.34 1.34 0 0 0 .26-.026c0 .52-.216.832-.65.936-.086 0-.138-.017-.156-.052a.564.564 0 0 0-.364-.208 1.84 1.84 0 0 1-.416-.104c-.052-.017-.095-.06-.13-.13a.456.456 0 0 0-.13-.13c-.468-.347-.78-.763-.936-1.248a5.68 5.68 0 0 1-.208-1.56 9.078 9.078 0 0 1 0-.962l.078-.936a4.39 4.39 0 0 1 .078-.52c.052-.173.096-.355.13-.546l.208-.884.234-.884.286-.858.286-.832.572-1.508.598-1.534.728-1.794.78-1.794.598-1.17.598-1.17.598-1.144.624-1.144c.035-.087.078-.165.13-.234a.673.673 0 0 0 .156-.234v-.026l-.936.806-.91.78c-.017 0-.043-.017-.078-.052l.988-.858.988-.858v-.052c.018-.017.026-.043.026-.078a3.8 3.8 0 0 0 .286-.442c.104-.156.217-.303.338-.442.156-.173.338-.33.546-.468a.58.58 0 0 1 .832.078.177.177 0 0 0 .13.052.859.859 0 0 1 .468.234c.122.104.226.234.312.39a.76.76 0 0 0 .286.286 2.33 2.33 0 0 1 .338.234l.078.078c.018 0 .035.017.052.052a1.58 1.58 0 0 1 .182.286 2.28 2.28 0 0 1 .182.26.28.28 0 0 1 .026.13c0 .052.009.095.026.13zm-7.098 6.552a9.73 9.73 0 0 0-.884 2.158c.122 0 .182-.017.182-.052l.234-.858a.597.597 0 0 1 .13-.234 1.49 1.49 0 0 0 .338-1.014zm-1.3 2.21a.285.285 0 0 0-.052.156.473.473 0 0 1-.026.156c.018.017.035.026.052.026s.035.009.052.026l.156-.364.156-.39c0-.035-.017-.07-.052-.104-.069.035-.104.06-.104.078l-.104.208a.979.979 0 0 1-.078.208zm-1.222 3.458l-.182.468c.052 0 .096.009.13.026h.13a.28.28 0 0 1 .156-.052.57.57 0 0 0 .182-.078c0-.035.009-.06.026-.078a.492.492 0 0 0-.156-.026.492.492 0 0 1-.156-.026.235.235 0 0 1-.026-.104.222.222 0 0 0-.026-.104h-.052c0-.017-.008-.026-.026-.026zm-.702 4.342l.104-.494c.052-.156.096-.312.13-.468 0-.017-.034-.06-.104-.13-.017.035-.043.052-.078.052-.034.017-.052.043-.052.078-.034.104-.06.208-.078.312 0 .104-.008.208-.026.312a1.57 1.57 0 0 0-.026.338h.13zm2.366-4.602l-.156-.052a.288.288 0 0 0-.13-.026.492.492 0 0 0-.156.026l-.156.052a.632.632 0 0 0 .052-.234 2.06 2.06 0 0 1 .078-.234h-.052c0-.017-.008-.026-.026-.026a2.627 2.627 0 0 1-.286.338c-.086.104-.121.243-.104.416.018.121-.008.269-.078.442a2.735 2.735 0 0 1-.104.234.797.797 0 0 1-.104.13 3.037 3.037 0 0 0-.208-.156l-.156-.156a7.18 7.18 0 0 1-.078.364h-.078a.884.884 0 0 0-.052-.13v-.156a2.799 2.799 0 0 1-.182.312c-.052.087 0 .182.156.286.018 0 .018.017 0 .052a.22.22 0 0 1-.026.104.68.68 0 0 1-.13.182 1.894 1.894 0 0 0-.104.182h.052l-.052.494a4.08 4.08 0 0 1-.026.468l.078.026a.392.392 0 0 0 .078-.104.884.884 0 0 0 .052-.13l.39-1.326c.035-.121.078-.173.13-.156.07.017.148.07.234.156-.19-.035-.286 0-.286.104a.689.689 0 0 1-.052.26.367.367 0 0 0-.026.156.473.473 0 0 1 .026.156.433.433 0 0 1 .13-.026l.182-.052a1.18 1.18 0 0 0-.052.13c0 .035-.008.06-.026.078a.85.85 0 0 1-.208.026c-.069-.017-.104-.009-.104.026-.034.104-.06.208-.078.312a1.22 1.22 0 0 1-.052.338.656.656 0 0 1-.026.208 2.24 2.24 0 0 0-.286.702 3.688 3.688 0 0 0-.026.754v.13c-.138.104-.182.208-.13.312.07.121.078.243.026.364.018.017.044.026.078.026l.156-.156c.052-.035.104-.078.156-.13a3.282 3.282 0 0 0-.182-.442h.286a1.18 1.18 0 0 1-.052-.13l-.052-.156a.328.328 0 0 1 .13-.078c.07 0 .13-.009.182-.026.087-.035.156-.13.208-.286.07-.139.07-.234 0-.286-.138-.121-.199-.234-.182-.338a2.36 2.36 0 0 1 .156-.39c.07-.139.122-.277.156-.416l.182-.468c.312-.121.373-.277.182-.468l.234-.39.208-.416c.035-.035.052-.087.052-.156s-.008-.113-.026-.13c-.104-.087-.147-.156-.13-.208a1.09 1.09 0 0 0 .104-.208 1.26 1.26 0 0 0 .286.026v-.13zm.052-.832l.052-.182c.035-.07.044-.13.026-.182a2.295 2.295 0 0 0-.13-.312.468.468 0 0 1 .026-.338l-.052-.104-.234.39a3.431 3.431 0 0 1-.182.364.194.194 0 0 0-.078-.026l-.052-.026a1.35 1.35 0 0 0 .026-.312l.052-.286c.035-.121.035-.19 0-.208-.138-.087-.19-.156-.156-.208a.992.992 0 0 0 .13-.234c.018-.035.018-.06 0-.078v-.104c-.017-.017-.034-.026-.052-.026a.203.203 0 0 1-.078-.026 1.585 1.585 0 0 1-.156.364.341.341 0 0 0-.026.286 1.32 1.32 0 0 1 .052.52.53.53 0 0 1-.156.39c-.069.07-.138.165-.208.286-.052.121-.069.217-.052.286-.121.017-.225.113-.312.286a.678.678 0 0 0 0 .52l.078-.26c.035.035.052.06.052.078v.078a.8.8 0 0 0 .026.234c0 .017.018.026.052.026.052 0 .087-.009.104-.026.035-.035.052-.07.052-.104s.009-.07.026-.104a.222.222 0 0 0 .026-.104c0-.035.009-.07.026-.104l.104-.312c.035-.121.078-.234.13-.338a1.21 1.21 0 0 1 .104-.208 1.57 1.57 0 0 0 .104-.182c.104.07.182.113.234.13.018.017.044.026.078.026l.13-.13a2.6 2.6 0 0 1 .234.26zm.182-.598a.46.46 0 0 1 .13-.234c.087-.087.061-.182-.078-.286a.413.413 0 0 1-.104.26c-.069.087-.052.173.052.26zm.338-.936a1.18 1.18 0 0 1 .052-.13c.035-.052.044-.095.026-.13a3.075 3.075 0 0 0-.234-.312v-.182a.97.97 0 0 1-.13.052c-.034.017-.043.035-.026.052.035.139.009.251-.078.338-.069.087-.13.182-.182.286a.235.235 0 0 0-.026.104c.018.017.018.043 0 .078a.675.675 0 0 1 .026.026c.018 0 .035.009.052.026a1.7 1.7 0 0 1 .156-.182l.13-.182c.035.035.07.06.104.078a.321.321 0 0 1 .13.078zm.494-1.118h-.182a.228.228 0 0 0-.104-.026 2.18 2.18 0 0 0 .156-.39c.052-.139.113-.277.182-.416-.173.07-.329.234-.468.494-.138.243-.19.425-.156.546a.85.85 0 0 1 .208.026h.234c0-.017.044-.095.13-.234zm-3.198-1.664l-.728.884-.572.754-.572.728-.494.702-.52.676c-.121.156-.216.32-.286.494l-.208.546a1.778 1.778 0 0 1-.416.624l-.494.598c-.208.295-.398.598-.572.91-.173.295-.242.641-.208 1.04v.104a3.334 3.334 0 0 0-.39.286c-.121.104-.251.2-.39.286h-.026a.97.97 0 0 1-.13.052l-.104.052h-.078c0 .017-.017.026-.052.026V46c-.242-.035-.416-.182-.52-.442a.762.762 0 0 0-.338-.364 1.555 1.555 0 0 1-.546-.676 7.135 7.135 0 0 1-.26-.858 5.999 5.999 0 0 1 .052-2.6l.26-1.378.364-1.404c.139-.503.304-.997.494-1.482l.572-1.482.26-.676.286-.65.442-.91.494-.91.936-1.69.962-1.69.91-1.508.936-1.534.988-1.664.988-1.664a23.5 23.5 0 0 0 1.04-1.768c.087-.139.191-.217.312-.234l.416-.104a.71.71 0 0 0-.078.156.25.25 0 0 1-.052.13h.364a2.61 2.61 0 0 1 .364.026c.174 0 .295.07.364.208s.156.251.26.338c.087.07.165.156.234.26s.148.173.234.208c.26.07.425.217.494.442l.208.65c.07.208.044.433-.078.676a.82.82 0 0 1-.13.104.869.869 0 0 0-.13.104l-.104.104-.052.104-.156.364a1.264 1.264 0 0 1-.156.312l-.52.728a19.17 19.17 0 0 1-.546.728l-.312.416-.312.416c-.017.035-.043.052-.078.052-.034-.017-.06-.009-.078.026a1.123 1.123 0 0 0-.26.208.343.343 0 0 0-.078.156c-.017.052-.043.087-.078.104-.121.035-.19.095-.208.182a.81.81 0 0 1-.104.26.785.785 0 0 1-.156.208 1.7 1.7 0 0 0-.156.182.278.278 0 0 1-.052.078c-.017.017-.026.043-.026.078-.052.347-.234.65-.546.91a1.7 1.7 0 0 0-.416.468l-.156.364c-.034.121-.121.208-.26.26.018 0 0 .026-.052.078a1.05 1.05 0 0 1-.26.52c-.138.156-.26.32-.364.494a9.283 9.283 0 0 1-.078.078c-.017.035-.017.052 0 .052.087.139.087.243 0 .312a1.042 1.042 0 0 0-.182.13c-.242.139-.407.33-.494.572a3.038 3.038 0 0 1-.338.676l-.52.832-.442.858a.294.294 0 0 0-.026.13.175.175 0 0 1-.052.13.995.995 0 0 1-.13.156.92.92 0 0 0-.104.13h-.052c-.017-.017-.034-.026-.052-.026.035.104.052.19.052.26a1.15 1.15 0 0 0-.338.26c-.069.07-.034.2.104.39a.433.433 0 0 0-.13.026h-.104c0 .017-.008.026-.026.026v.286a.633.633 0 0 1-.104.494 1.223 1.223 0 0 0-.104.208l-.104.208c-.034.052-.112.07-.234.052-.034 0-.069.026-.104.078a.392.392 0 0 1-.078.104c.018.017.026.035.026.052l.052.052.208-.13.078.026-.26.416-.26.494c.018.035 0 .165-.052.39a7.162 7.162 0 0 1-.208.676 6.015 6.015 0 0 1-.234.676c-.086.208-.164.32-.234.338l-.104.312-.052.312-.104.52-.078.494a.901.901 0 0 1-.078.234l-.052.234a.777.777 0 0 0-.052.286.689.689 0 0 1-.052.26v.026a2.8 2.8 0 0 0 .182-.312 2.47 2.47 0 0 1 .234-.338 9.26 9.26 0 0 1 .494-.65l.546-.65a.424.424 0 0 1 .104-.078c.052-.017.078-.043.078-.078.139-.381.304-.737.494-1.066a4.67 4.67 0 0 1 .754-.91l.494-.52a1.84 1.84 0 0 0 .39-.546 2.17 2.17 0 0 1 .338-.624l.442-.546a2.1 2.1 0 0 1 .416-.364c.156-.104.234-.277.234-.52.139 0 .243-.026.312-.078a.785.785 0 0 0 .156-.208 1.75 1.75 0 0 0 .13-.26.92.92 0 0 1 .13-.26l.754-.884.78-.91.598-.546c.208-.19.382-.39.52-.598.139-.19.295-.33.468-.416a2.89 2.89 0 0 1 .572-.26 61.587 61.587 0 0 0-2.834 3.198 81.733 81.733 0 0 0-2.574 3.354l.156.156.936-1.144.936-1.144.104.052-.312.494-.312.468zm-5.538.598a.663.663 0 0 0-.156-.156l-.104-.156a.893.893 0 0 1 .234-.104c.087-.035.078-.121-.026-.26-.017.052-.052.078-.104.078a.433.433 0 0 0-.13.026c-.034 0-.069.017-.104.052-.034.017-.043.07-.026.156l.052.234.052.234h.078l-.208.156-.234.182a.67.67 0 0 0 .156.078c.052 0 .096.017.13.052l-.052.208a.884.884 0 0 1-.052.13 1.115 1.115 0 0 1-.208.026.77.77 0 0 0-.182.026l.182.208a1.7 1.7 0 0 1 .156.182.424.424 0 0 1 .104-.078.292.292 0 0 0 .104-.104l.182-.572.156-.598zm-.312 5.798c0 .017-.008.026-.026.026v.026-.026c.018 0 .026-.009.026-.026zm1.664-8.32l.286-.156a.352.352 0 0 0-.026-.156c-.138.139-.268.19-.39.156a1.2 1.2 0 0 1-.364-.26c.018.087.026.156.026.208a.5.5 0 0 0 .026.156 1.998 1.998 0 0 0-.26-.104l-.104.208-.104.156v.052c.018 0 .026.009.026.026a.28.28 0 0 1 .156-.052.654.654 0 0 0 .156-.078.397.397 0 0 1-.182.286.991.991 0 0 1-.208.078.28.28 0 0 0-.156.052l.182.182a.82.82 0 0 1 .13.104c-.086.035-.19.06-.312.078a1.49 1.49 0 0 0 .052.338l-.26.13a.82.82 0 0 1 .13.104.39.39 0 0 1 .104.078l-.156.052a.433.433 0 0 0-.13.026c.052.07.104.13.156.182l.156.156c.104-.19.191-.39.26-.598s.226-.364.468-.468a3.992 3.992 0 0 0-.078-.078.329.329 0 0 1-.052-.078c-.034-.07-.043-.13-.026-.182a.176.176 0 0 1 .078-.078c.035-.035.061-.043.078-.026.104.052.174.052.208 0a.995.995 0 0 0 .13-.156l-.156-.104-.104-.104a.177.177 0 0 1 .13-.052.321.321 0 0 0 .13-.078zm-.416-.676a.28.28 0 0 1 .026.13c0 .035.018.07.052.104s.07.06.104.078l.104.052.182-.13.208-.156c.07-.139.052-.251-.052-.338a.782.782 0 0 0-.26-.182c-.086-.017-.138-.009-.156.026a.883.883 0 0 0-.052.156.473.473 0 0 1-.026.156c-.017.052-.06.087-.13.104zm.962-.832l.104-.572.13-.572a.29.29 0 0 1-.13-.026 1.18 1.18 0 0 0-.052.13.28.28 0 0 1-.026.13c-.104-.017-.182-.009-.234.026-.034.017-.06.06-.078.13v.182c0 .07-.017.121-.052.156-.017.017.009.078.078.182.07.087.122.173.156.26h.052c.018-.017.035-.026.052-.026zm.182.338c.087-.121.165-.243.234-.364l.234-.39c-.364.087-.52.338-.468.754zm.65-1.898a.515.515 0 0 0 .026-.286 2.1 2.1 0 0 1 .026-.338l-.104-.052a71.57 71.57 0 0 1-.26.312l-.234.286a.18.18 0 0 0-.052.13.277.277 0 0 1-.052.156h.286c-.034.104-.06.208-.078.312a.901.901 0 0 1-.052.286h.104l.078-.312c.191.017.278-.035.26-.156 0-.121.018-.234.052-.338zm.884-.754a.19.19 0 0 0-.026-.078 5.039 5.039 0 0 0-.052-.104 6.86 6.86 0 0 1-.312.52l-.26.416c.122-.035.252-.13.39-.286.139-.173.226-.33.26-.468zm-.104-3.354a4.64 4.64 0 0 0-.234.364l-.26.442.286-.052a4.12 4.12 0 0 0 .13-.338 2.94 2.94 0 0 0 .13-.364l-.052-.052zm-4.914 12.116c.035-.087.061-.173.078-.26.018-.104.044-.2.078-.286a.47.47 0 0 1 .13-.13l.208-.104a1.243 1.243 0 0 0-.182-.13.82.82 0 0 0-.13-.104 1.21 1.21 0 0 1 .104-.208l.104-.156a.972.972 0 0 0 .052-.312c.018-.104.044-.208.078-.312l.234-.65.26-.676.312-.806a12.304 12.304 0 0 1 .546-1.274c.07-.156.148-.303.234-.442l.208-.39.208-.39.286-.546.312-.572a.92.92 0 0 1 .104-.13c.052-.052.078-.104.078-.156a.79.79 0 0 1 .13-.468l.286-.416a1.1 1.1 0 0 1 .208-.286.897.897 0 0 0 .234-.286 2.05 2.05 0 0 0 .208-.442c.052-.173.122-.33.208-.468l.416-.702.416-.676c.035-.07.061-.13.078-.182a1.1 1.1 0 0 1 .078-.208c-.19-.035-.32-.009-.39.078a.665.665 0 0 0-.104.312.946.946 0 0 1-.182.494 3.907 3.907 0 0 0-.286.442c-.052.087-.112.113-.182.078-.138-.035-.225-.009-.26.078a1.428 1.428 0 0 1-.078.26c.139-.035.234-.07.286-.104-.034.243-.112.39-.234.442s-.286.06-.494.026a.61.61 0 0 0-.078.182.632.632 0 0 1-.078.156l.078.052a1.06 1.06 0 0 1 .208-.078l.234-.104.026.026a3.608 3.608 0 0 1-.13.182 1.053 1.053 0 0 0-.13.156 1.225 1.225 0 0 0-.13-.078.424.424 0 0 1-.104-.078l-.104.052a2.56 2.56 0 0 1 .208.364.775.775 0 0 1-.156.052.492.492 0 0 0-.156.026.57.57 0 0 1-.182.078c-.052 0-.086.017-.104.052a2.07 2.07 0 0 1-.364.702l-.26.416a8.908 8.908 0 0 0-.208.39 3.113 3.113 0 0 0-.13.364l-.104.312.052.104a.856.856 0 0 1 .208-.052.41.41 0 0 1 .078.104.323.323 0 0 1-.156.078.158.158 0 0 0-.104.104 2.072 2.072 0 0 0-.156.416 4.861 4.861 0 0 1-.13.39.785.785 0 0 1-.156.208 1.7 1.7 0 0 0-.156.182l-.078-.078.208-.26a2.28 2.28 0 0 0 .182-.26c.018-.035.018-.078 0-.13v-.13a.39.39 0 0 1-.104.078c-.034 0-.06.017-.078.052-.069.104-.13.208-.182.312a2.295 2.295 0 0 1-.13.312 15.74 15.74 0 0 1-.078.156c-.034.052-.043.095-.026.13 0 .035.026.06.078.078a.57.57 0 0 1 .182.078l-.156.26a3.556 3.556 0 0 1-.13.286.323.323 0 0 0-.156-.078 1.999 1.999 0 0 1-.234-.104v.962l-.156.052a2.405 2.405 0 0 1-.182.052v.052c.018 0 .026.009.026.026l.312.078a2.735 2.735 0 0 1-.104.234 1.335 1.335 0 0 1-.078.182c-.19.017-.312.06-.364.13-.052.052-.104.234-.156.546l.208-.208a2.3 2.3 0 0 1 .208-.234 6.51 6.51 0 0 1-.104.416 1.874 1.874 0 0 1-.078.338 2.06 2.06 0 0 0-.208.182 1.634 1.634 0 0 1-.182.156l.156.234c-.069.035-.13.06-.182.078a.6.6 0 0 0-.208.052c.07.052.122.104.156.156a.82.82 0 0 1 .13.104.343.343 0 0 0-.078.13v.13a.175.175 0 0 1-.052.13c-.017.035-.06.06-.13.078a.252.252 0 0 0-.13.104c-.034.035-.008.087.078.156.07.052.096.104.078.156 0 .052-.052.087-.156.104-.069 0-.121.043-.156.13a1.038 1.038 0 0 0-.104.286c-.104.139-.078.217.078.234.174.017.2.104.078.26a.18.18 0 0 0-.052.13l-.078.39-.052.39a1.93 1.93 0 0 0 .026.312l.052.338h.078a1.063 1.063 0 0 0 0-.338c0-.121.018-.234.052-.338l.26-.884.26-.884zm.39.65a.107.107 0 0 0 0-.104c-.017-.035-.017-.06 0-.078a.755.755 0 0 0 .234-.468 1.97 1.97 0 0 1 .13-.546.689.689 0 0 0 .052-.26l.052-.26a.85.85 0 0 0-.208-.026 1.781 1.781 0 0 0-.208-.052c.035.087.078.173.13.26s.061.165.026.234a1.72 1.72 0 0 0-.182.494.815.815 0 0 1-.208.468c-.034.035-.052.095-.052.182v.208c0 .017.044.043.13.078l.052-.052c.035-.017.052-.043.052-.078zm2.418-8.424c-.069.121-.13.286-.182.494a.444.444 0 0 0-.13-.052c.035-.087.061-.173.078-.26l.104-.26a.633.633 0 0 0 .13.078zm28.705 2.73v.104c-.052.087-.104.19-.156.312a.404.404 0 0 1-.208.208.55.55 0 0 0-.234.208 1.39 1.39 0 0 1-.156.234 5.745 5.745 0 0 0-.26.338l-.26.364-.104.234a.563.563 0 0 1-.078.182c-.087.139-.191.26-.312.364a2.057 2.057 0 0 0-.286.364 3.154 3.154 0 0 1-.26.234c-.069.07-.139.156-.208.26a.575.575 0 0 1-.182.234 1.48 1.48 0 0 0-.234.234l-.078.078a.491.491 0 0 1-.234.338 6.836 6.836 0 0 0-.338.182c-.104-.104-.156-.165-.156-.182 0-.035.061-.095.182-.182a.854.854 0 0 0 .104-.13.47.47 0 0 1 .13-.13l.156-.156.208-.156a2.21 2.21 0 0 1 .286-.286l.286-.312.234-.286.26-.312.234-.39c.069-.139.147-.269.234-.39a1.44 1.44 0 0 1 .234-.234 3.23 3.23 0 0 0 .26-.234l-.078-.052a.367.367 0 0 0 .026-.156c.017-.07.035-.104.052-.104.191 0 .277-.052.26-.156a.605.605 0 0 1 .026-.312.414.414 0 0 0 .052-.182c.017 0 .026.009.026.026h.052a9.283 9.283 0 0 1-.078-.078.392.392 0 0 0-.078-.104l-.884 1.222a11.96 11.96 0 0 1-.962 1.144l-.052-.052c.035-.035.052-.07.052-.104a.392.392 0 0 1 .078-.104l.546-.702.572-.728a7.81 7.81 0 0 0 .364-.598c.035-.087.078-.165.13-.234l.182-.234.208-.208.156.156.13.13c.052.035.095.07.13.104v.13c.017.035.026.07.026.104zm-4.238 4.706a.547.547 0 0 1 .26-.182c.121-.052.26-.035.416.052l-.442.442-.546.546-.494.52a.328.328 0 0 1-.13.078c-.035 0-.069.017-.104.052l-.104.104a.392.392 0 0 1-.078.104l-.234.234c0-.017-.026 0-.078.052a1.81 1.81 0 0 1-.572.676 4.741 4.741 0 0 0-.65.546l-.65.598-.676.572-.104.052a.291.291 0 0 1-.078.052 6.49 6.49 0 0 0-.416.234l-.546.338-.52.364-.39.234a2.18 2.18 0 0 1-.598.312c-.208.07-.425.121-.65.156a4.435 4.435 0 0 1-.676.052.966.966 0 0 1-.624-.234c-.139-.104-.251-.087-.338.052-.052.121-.13.182-.234.182-.087 0-.182-.009-.286-.026a.546.546 0 0 1-.286-.078c-.069-.035-.113-.121-.13-.26-.017 0-.035.009-.052.026h-.026a.438.438 0 0 1-.026.13v.156a2.224 2.224 0 0 1-.208-.234 2.412 2.412 0 0 0-.182-.26c0-.017-.009-.035-.026-.052 0-.017-.009-.035-.026-.052v-.026l-.078-.156c-.087-.312-.217-.555-.39-.728a.523.523 0 0 1-.156-.182 1.428 1.428 0 0 0-.078-.26 2.412 2.412 0 0 0-.182-.26l-.156-.26a1.855 1.855 0 0 1-.13-.26 2.282 2.282 0 0 0-.078-.286l-.182-.702a2.537 2.537 0 0 1 0-.728l.052-.494a4.05 4.05 0 0 0 .078-.494c.017-.017.026-.043.026-.078a1.762 1.762 0 0 1 .13-.806l.286-.754c.017-.052.069-.095.156-.13-.156-.208-.104-.355.156-.442.052-.052.078-.104.078-.156-.052-.19 0-.32.156-.39l.052-.208a.58.58 0 0 0 .182-.078c.069-.035.061-.121-.026-.26-.017-.017 0-.06.052-.13a.88.88 0 0 1 .182-.182l.078-.078c.035-.017.035-.052 0-.104l.234-.156a1.303 1.303 0 0 0-.156-.182c.243 0 .321-.07.234-.208.087-.087.156-.165.208-.234l.208-.26.104-.208c.052-.07.095-.147.13-.234h.026c.017-.017.035-.026.052-.026.191-.087.303-.147.338-.182.035-.052.035-.165 0-.338a.231.231 0 0 1 .104-.026.29.29 0 0 0 .13-.026l-.104-.104-.104-.156.858-1.092a2.074 2.074 0 0 1-.078.208c.017 0 .026.009.026.026h.052l.104-.156.13-.208c.139-.035.191-.147.156-.338-.017-.104.043-.225.182-.364a.92.92 0 0 1 .416-.26h.104c-.052-.156-.035-.269.052-.338a.75.75 0 0 0 .234-.234 3.78 3.78 0 0 1 .468-.572l.52-.546a5.61 5.61 0 0 1 .546-.572 2.94 2.94 0 0 0 .52-.624c.173-.26.364-.485.572-.676.208-.208.433-.407.676-.598a.328.328 0 0 1 .13-.078l.156-.104c.069-.035.121-.043.156-.026l.702.312c.017 0 .035.009.052.026h.052l.234.104a.46.46 0 0 1 .182.182c.052.07.113.13.182.182s.139.095.208.13c.191.121.329.26.416.416l.26.52c0 .017.009.035.026.052.035.104.052.217.052.338.017.121.052.243.104.364.087.19.147.373.182.546.052.173.121.347.208.52a.73.73 0 0 1 .026.572.816.816 0 0 0 0 .572.206.206 0 0 1-.026.078.301.301 0 0 0-.052.078c.156.104.199.208.13.312a.935.935 0 0 0-.156.286l-.052.312a2.282 2.282 0 0 1-.078.286 1.428 1.428 0 0 0-.078.26c0 .07-.043.139-.13.208a.175.175 0 0 0-.052.13c0 .035-.009.07-.026.104a4.65 4.65 0 0 1-.286.494c-.156.277-.321.52-.494.728l-.312.468a9.778 9.778 0 0 1-.312.442c-.087.139-.182.26-.286.364a3.303 3.303 0 0 0-.26.364c-.069.087-.13.2-.182.338-.035.087-.078.139-.13.156a1.062 1.062 0 0 0-.416.364 3.316 3.316 0 0 1-.312.416 2.524 2.524 0 0 1-.312.26 5.847 5.847 0 0 0-.338.26l-.26.208a2.57 2.57 0 0 1-.234.208 2.353 2.353 0 0 1-.338.234l-.338.234c-.035 0-.061.009-.078.026-.243.19-.503.33-.78.416l-.832.234a.824.824 0 0 1-.234.052h-.026a5.286 5.286 0 0 1-.91.104c-.381.017-.685 0-.91-.052l-.026-.026-.156.078c.035.173-.043.312-.234.416a.167.167 0 0 0-.078.078c0 .035-.009.07-.026.104a.392.392 0 0 0-.078.104c0 .017-.017.043-.052.078-.087.087-.104.147-.052.182a.332.332 0 0 1 .156.078 1.428 1.428 0 0 0-.078.26l-.052.26c-.035.07-.069.113-.104.13-.156.156-.173.338-.052.546.052.087.043.182-.026.286a.22.22 0 0 0 .052.312c.052.017.095.087.13.208l.078.156a1.49 1.49 0 0 1 .026.286.81.81 0 0 0 .104.26.648.648 0 0 0 .442.286c.347.052.737.026 1.17-.078a3.989 3.989 0 0 0 1.092-.468l.572-.364.702-.468.676-.494.572-.416 1.118-.91 1.092-.936a44.178 44.178 0 0 0 1.794-1.69l.754-.676.754-.702a.915.915 0 0 0 .182-.182l.156-.208.052.052c.017 0 .035.017.052.052l-1.274 1.326-1.222 1.3-.104.156a.392.392 0 0 1-.078.104 6.603 6.603 0 0 1-.338.364l-.312.312-.052.052c-.017 0-.035.009-.052.026a.291.291 0 0 0-.078.052c0 .017-.017.043-.052.078.035 0 .069.009.104.026.052.017.095.017.13 0a.869.869 0 0 0 .13-.104c.052-.052.104-.095.156-.13l.754-.65a9.21 9.21 0 0 0 .702-.728zm-9.62-2.132a.55.55 0 0 1 .234-.208c.104-.052.13-.156.078-.312-.087 0-.139.009-.156.026a1.99 1.99 0 0 0-.182.208c-.035.07-.078.139-.13.208-.052.052-.043.078.026.078.035.052.078.052.13 0zm.286.78l.286-.364.286-.39c-.156.017-.295.104-.416.26a.635.635 0 0 0-.156.494zm4.472.364c.035-.035.052-.087.052-.156a5.06 5.06 0 0 1 .052-.234c-.139 0-.234.07-.286.208a1.053 1.053 0 0 1-.13.156 1.053 1.053 0 0 0-.13.156l-.312.234.078.078a5.89 5.89 0 0 0 .338-.208c.121-.07.234-.147.338-.234zm.364-.442c.035 0 .069-.035.104-.104.017-.017.017-.035 0-.052s-.035-.026-.052-.026c-.069-.035-.13-.026-.182.026a.392.392 0 0 0-.078.104c0 .017-.017.043-.052.078a.915.915 0 0 0 .26-.026zm-1.742-2.262a4.94 4.94 0 0 0-.338.494 8.062 8.062 0 0 1-.338.468.291.291 0 0 1-.078.052c-.035.017-.061.017-.078 0-.087-.017-.139 0-.156.052a.807.807 0 0 0-.052.156c0 .052-.017.13-.052.234l-.104.208a1.703 1.703 0 0 0-.104.182l-.13.13a1.053 1.053 0 0 1-.13.156.702.702 0 0 0-.13.182 6.605 6.605 0 0 0-.234.52c-.052.173-.156.33-.312.468a6.35 6.35 0 0 0-.052.052l-.338.494a2.02 2.02 0 0 1 .442.052.763.763 0 0 0 .442-.026c.087-.035.165-.06.234-.078s.147-.043.234-.078a1.61 1.61 0 0 1 .234-.026 1.32 1.32 0 0 0 .182-.078.654.654 0 0 1 .156-.078.98.98 0 0 0 .208-.078c.035 0 .069-.017.104-.052l.78-.546c.087-.052.173-.095.26-.13a2.37 2.37 0 0 0 .26-.182 5.09 5.09 0 0 0 .65-.546 4.04 4.04 0 0 0 .546-.676l.104-.104a7.26 7.26 0 0 0 .338-.416 7.26 7.26 0 0 0 .338-.416l.416-.52.416-.52a.175.175 0 0 0 .052-.13.294.294 0 0 0 .026-.13.32.32 0 0 1 .078-.13c.26-.416.485-.84.676-1.274s.321-.901.39-1.404a1.75 1.75 0 0 0 .026-.52v-.52a.25.25 0 0 0-.052-.13c-.017-.052-.043-.078-.078-.078a.322.322 0 0 0-.234.104l-.208.208a1.177 1.177 0 0 1-.208.182 1.88 1.88 0 0 1-.208.182 1.73 1.73 0 0 1-.182.156c-.104.07-.199.147-.286.234a1.482 1.482 0 0 1-.312.234c-.139.087-.26.2-.364.338a3.667 3.667 0 0 1-.338.39 1.73 1.73 0 0 1-.182.156l-.208.104a.738.738 0 0 0-.13.156 4.124 4.124 0 0 0-.234.364 1.932 1.932 0 0 1-.208.364 2.97 2.97 0 0 1-.312.364l-.312.312a5.23 5.23 0 0 0-.39.494.954.954 0 0 1-.52.364v.156a.112.112 0 0 1 0 .104zm-.624-3.146l-.13.13a.854.854 0 0 1-.104.13c0 .035.009.06.026.078a.231.231 0 0 1 .104-.026c.035 0 .061-.017.078-.052.035-.035.052-.07.052-.104 0-.052.009-.095.026-.13-.017-.017-.035-.026-.052-.026zm-.468.39a.55.55 0 0 0-.13.104l-.104.104a1.56 1.56 0 0 0 .234.182c0 .035.017.052.052.052a1.13 1.13 0 0 0 .078-.13c.035-.052.069-.113.104-.182a.291.291 0 0 0-.078-.052l-.104-.052c-.017-.017-.035-.026-.052-.026zm-.208.39c-.173-.017-.312.078-.416.286.069.035.156.087.26.156l-.052-.104a.438.438 0 0 0-.026-.13c.035 0 .069.009.104.026a.231.231 0 0 0 .104-.026c.035 0 .087-.035.156-.104a.291.291 0 0 1-.078-.052c0-.035-.017-.052-.052-.052zm-3.406 5.772v-.026c.017 0 .026-.009.026-.026a2.016 2.016 0 0 0-.104-.26c-.017-.017-.043-.026-.078-.026 0 .035-.009.07-.026.104a.112.112 0 0 0 0 .104c0 .017.061.06.182.13zm-.104-.442a1.93 1.93 0 0 0 .182-.104l.234-.13c-.139-.139-.121-.277.052-.416.017-.017.017-.043 0-.078 0-.035.009-.07.026-.104h-.052c0-.017-.009-.026-.026-.026a4.842 4.842 0 0 0-.234.416 10.62 10.62 0 0 1-.234.39l.052.052zm.416 2.288c.052-.035.078-.095.078-.182a.42.42 0 0 0-.026-.26c-.035.07-.061.13-.078.182a1.335 1.335 0 0 1-.078.182v.052c.017.017.026.035.026.052.052 0 .078-.009.078-.026zm0-3.328a.81.81 0 0 0 .13.104.654.654 0 0 1 .156.078.632.632 0 0 0 .078-.156.563.563 0 0 0 .078-.182c.017-.035.017-.078 0-.13v-.182c.035.017.052.035.052.052.017 0 .043.009.078.026.087-.087.156-.165.208-.234l.208-.26.026-.052a.301.301 0 0 0 .052-.078c0-.017-.017-.035-.052-.052-.017-.017-.035-.017-.052 0-.035 0-.078.026-.13.078l-.052.104a.206.206 0 0 1-.026.078c-.017 0-.043-.017-.078-.052l.104-.208a.52.52 0 0 1 .182-.156c.156-.07.243-.121.26-.156.035-.035.009-.13-.078-.286l.156-.078.208-.104c.087-.035.139-.07.156-.104.017-.173.078-.286.182-.338.104-.07.199-.147.286-.234a3.834 3.834 0 0 0-.078-.338c.121-.07.225-.147.312-.234a.915.915 0 0 0 .182-.182l.156-.208c.121-.139.087-.251-.104-.338a9.589 9.589 0 0 0-1.43 1.82 73.854 73.854 0 0 0-1.17 2.002zm.26 2.574a2.74 2.74 0 0 0 .208-.468 5.67 5.67 0 0 1 .234-.468c-.035 0-.052-.017-.052-.052-.069.035-.104.07-.104.104a1.338 1.338 0 0 1-.156.312 4.267 4.267 0 0 0-.156.286c-.035.052-.052.147-.052.286h.078zm35.572-4.888c-.139-.087-.208-.156-.208-.208.017-.052.13-.182.338-.39a2.935 2.935 0 0 0-.078.338l-.052.26zm-.702-1.56a.631.631 0 0 1-.078.13.797.797 0 0 0-.104.13.441.441 0 0 1-.078.104l-.052-.13.052-.182c.034-.07.121-.087.26-.052zm-1.534 5.382a9.283 9.283 0 0 1-.078-.078.441.441 0 0 0-.078-.104c.086-.087.156-.147.208-.182a1.93 1.93 0 0 1 .182.104.57.57 0 0 0 .182.078c.104.035.156.087.156.156a.542.542 0 0 1 0 .234.578.578 0 0 1-.13-.078c-.087-.07-.165-.087-.234-.052-.052.035-.096.104-.13.208a3.905 3.905 0 0 1-.13.416l-.104.39a1.977 1.977 0 0 0-.078.312.93.93 0 0 1-.052.286 3.905 3.905 0 0 1-.13.416l-.104.416c-.035-.052-.035-.19 0-.416l.13-.78a8.42 8.42 0 0 1 .182-.78l.208-.546zm1.768-2.886c.086.052.13.121.13.208s-.061.165-.182.234a.4.4 0 0 0-.156.234.65.65 0 0 1-.052.234 1.34 1.34 0 0 0-.078.286 2.224 2.224 0 0 1-.078.312c-.139-.173-.174-.399-.104-.676.086-.277.26-.555.52-.832zm5.2-9.048a1.73 1.73 0 0 0 .286.442.527.527 0 0 1 .182.468.452.452 0 0 1-.026.182 2.073 2.073 0 0 0-.234.442l-.182.468c0 .017-.009.035-.026.052l-.234.234-.26.416-.26.416c-.035.07-.122.19-.26.364l-.416.52a11.32 11.32 0 0 0-.442.52 2.35 2.35 0 0 0-.234.338l-.104.156v.052l-.052.156c-.035.087-.07.19-.104.312-.035.104-.122.182-.26.234l-.052.182a.797.797 0 0 0-.104.13 1.57 1.57 0 0 0-.104.182v.078a.294.294 0 0 1 .026.13.964.964 0 0 0-.234.026c-.07 0-.087.07-.052.208l-.078.13a.441.441 0 0 1-.078.104c-.018.017-.026.035-.026.052.069.087.086.173.052.26a1.1 1.1 0 0 1-.078.208 1.57 1.57 0 0 0-.104.182.273.273 0 0 0 0 .234h-.234a.492.492 0 0 0-.156-.026c0 .017-.009.035-.026.052.104.07.19.121.26.156l-.104.364a1.338 1.338 0 0 1-.156.312.332.332 0 0 1-.156.078 1.22 1.22 0 0 0-.234.026.92.92 0 0 1 .104.13l.156.156c0 .035-.009.052-.026.052-.139.07-.226.156-.26.26-.035.087-.035.217 0 .39a.729.729 0 0 1-.104.442 4.842 4.842 0 0 0-.286.52c-.018.017-.026.043-.026.078.052.156-.009.269-.182.338-.139.087-.174.19-.104.312.034.035.052.113.052.234-.018.277-.174.364-.468.26 0 .017-.009.035-.026.052v.026l.26.182a.32.32 0 0 0-.078.13c0 .035-.018.07-.052.104a.907.907 0 0 1-.234.156.92.92 0 0 1 .104.13l.104.104-.104.208a1.57 1.57 0 0 0-.104.182c-.156.416-.26.84-.312 1.274a8.492 8.492 0 0 1-.208 1.3 1.801 1.801 0 0 0-.052.442.963.963 0 0 1-.13.468.623.623 0 0 0-.104.442c.017.173.008.338-.026.494l-.104.364a6.89 6.89 0 0 0-.104.338.814.814 0 0 0-.052.234c0 .139.026.286.078.442l.078.442c.017.156.052.303.104.442a.324.324 0 0 0 .156.182 2.64 2.64 0 0 0 .234.156c.034.035.069.043.104.026h.13c-.122.26-.373.33-.754.208a1.02 1.02 0 0 1-.26-.156 1.047 1.047 0 0 0-.234-.13 1.979 1.979 0 0 1-.702-.598 8.192 8.192 0 0 1-.442-.78 2.867 2.867 0 0 1-.286-1.118v-1.326l.052-1.326a.781.781 0 0 0 .026-.182c.017-.07.086-.104.208-.104.017 0 .034-.017.052-.052l.052-.104c0-.017-.018-.026-.052-.026a.291.291 0 0 1-.078-.052.329.329 0 0 0-.052-.078c-.018-.017-.026-.043-.026-.078l.104-.676.13-.676c.017-.087.026-.165.026-.234l.052-.208.208-.91.234-.91.052-.182a1.32 1.32 0 0 1 .078-.182c.034 0 .052.009.052.026h.052a.414.414 0 0 0-.052.182v.104c.017.035.026.07.026.104.034-.035.06-.052.078-.052a.176.176 0 0 0 .078-.078c.104-.156.078-.286-.078-.39a.39.39 0 0 1-.104-.078.107.107 0 0 1 0-.104l.312-1.092.364-1.092.208-.65.26-.65.364-.858.39-.858.338-.858.39-.858.26-.572.312-.572a.234.234 0 0 1-.104.026c-.018 0-.035.017-.052.052l-.962.884-.832.78-.78.754c-.104.121-.2.251-.286.39a6.984 6.984 0 0 0-.26.39 8.947 8.947 0 0 0-.39.468 2.941 2.941 0 0 1-.364.442c-.07.104-.122.173-.156.208l-.442.572-.416.572a.563.563 0 0 0-.078.182.71.71 0 0 1-.078.156l-.234.468-.442.676-.468.676a6.066 6.066 0 0 1-.286.416l-.286.416a2.06 2.06 0 0 0-.182.338 1.953 1.953 0 0 1-.156.338l-.39.624-.364.624c-.191.33-.364.667-.52 1.014l-.494 1.014a3.907 3.907 0 0 1-.286.442 3.478 3.478 0 0 0-.234.442.957.957 0 0 1-.39.468c-.174.104-.33.225-.468.364a.92.92 0 0 1-.26.13c-.087.035-.191.017-.312-.052a2.71 2.71 0 0 0-.598-.286 1.455 1.455 0 0 1-.494-.364 3.049 3.049 0 0 1-.234-.26.894.894 0 0 1-.156-.286 2.386 2.386 0 0 1-.312-1.04v-1.092a3.88 3.88 0 0 1 .104-.65l.13-.65a4.35 4.35 0 0 1 .156-.728l.416-1.404.494-1.404.442-1.066.52-1.066.676-1.352.702-1.378.598-1.118.65-1.118a.71.71 0 0 1 .286-.312c.121-.07.268-.07.442 0 0 .243.104.33.312.26.156-.052.303-.078.442-.078.138-.017.268.043.39.182a.646.646 0 0 1-.364 0c-.122-.035-.252.026-.39.182l.338.104a.338.338 0 0 0 .26 0c.138-.07.26-.07.364 0 .121.052.251.095.39.13a.53.53 0 0 1 .26.156 1.14 1.14 0 0 1 .26.312c.086.121.147.243.182.364a.54.54 0 0 1 .052.312 1.554 1.554 0 0 1-.156.39l-.208.338c-.139.19-.269.39-.39.598l-.39.598a7.875 7.875 0 0 0-.39.65 3.602 3.602 0 0 1-.442.598 1.376 1.376 0 0 0-.312.468l-.234.468-.104.104-.104.104a.424.424 0 0 1-.104.078c-.018.017-.026.043-.026.078 0 .225-.07.399-.208.52l-.416.364c-.087.07-.148.2-.182.39-.018.19.017.33.104.416-.26.121-.425.295-.494.52l-.234.676-.052.104-.26.546-.26.52a.632.632 0 0 0-.078.156l-.052.104v.104c.017.035.026.07.026.104h.026c.017-.017.034-.026.052-.026l.286-.52c.104-.19.225-.355.364-.494a1.41 1.41 0 0 0 .312-.468c.069-.173.156-.33.26-.468a7.7 7.7 0 0 0 .442-.598l.416-.598a.248.248 0 0 1 .13-.104l.156-.078c.034-.087.06-.173.078-.26a.567.567 0 0 1 .104-.234 13.59 13.59 0 0 0 .884-1.092l.858-1.144h.026c-.018 0 .026-.017.13-.052l-.286.546a2.31 2.31 0 0 1-.26.442 3.316 3.316 0 0 1-.312.416 4.165 4.165 0 0 0-.338.442c-.07.087-.13.19-.182.312a2.43 2.43 0 0 1-.13.312.156.156 0 0 0 .104.104.654.654 0 0 1 .156-.078.252.252 0 0 0 .13-.104l.754-.962.78-.988.468-.494.494-.468a1.97 1.97 0 0 0 .234-.286 3.52 3.52 0 0 1 .234-.312l.026-.052c0-.017.008-.026.026-.026.138.017.251 0 .338-.052s.164-.113.234-.182a2.41 2.41 0 0 0 .182-.26.745.745 0 0 1 .234-.234c.121-.07.225-.147.312-.234l.26-.26a.343.343 0 0 0 .078-.13.324.324 0 0 1 .078-.156 2.28 2.28 0 0 0 .312-.182c.156-.104.277-.225.364-.364.086-.156.164-.32.234-.494.017-.035.034-.052.052-.052l.052-.052c.242-.139.468-.33.676-.572a1.44 1.44 0 0 1 .234-.234l.26-.208c.017-.017.026-.035.026-.052.017-.017.026-.035.026-.052l.052-.052v-.026l.078-.182a.582.582 0 0 1 .104-.156.671.671 0 0 1 .078-.104l.078-.078a.674.674 0 0 0 .208-.39.979.979 0 0 1 .208-.312l.312-.26c.086-.087.216-.095.39-.026l.624.13c.26.052.45.156.572.312l.234.312a.72.72 0 0 0 .364.182c.034 0 .052.009.052.026zm-11.778 10.062l.26-.39.26-.416c-.018-.017-.035-.026-.052-.026l-.052-.052a6.236 6.236 0 0 0-.338.364 7.648 7.648 0 0 0-.312.39v.078c.017.035.034.052.052.052.086.035.147.035.182 0zm7.956-6.526c-.035-.035-.061-.052-.078-.052a.415.415 0 0 0-.234.182l-.104.26c0 .07.026.104.078.104.034.035.078.026.13-.026l.104-.234.104-.234zm-4.16 12.636c.069-.07.104-.113.104-.13.034-.087.06-.182.078-.286a.93.93 0 0 0 .052-.286l.052-.416c.034-.156-.018-.303-.156-.442l-.104.416a4.291 4.291 0 0 1-.078.39 10.15 10.15 0 0 0-.078-.338h-.104v.234c0 .087.017.147.052.182.086.087.13.173.13.26a.386.386 0 0 1-.026.234.107.107 0 0 0 0 .104c.034.017.06.043.078.078zm2.08-1.82a.578.578 0 0 1-.13-.078.632.632 0 0 0-.078.156l-.052.104c-.018.017-.009.035.026.052s.06.043.078.078l.156-.312zm-.104-.858l.234-.104c.069-.035.147-.07.234-.104a2.984 2.984 0 0 1-.234-.104.7.7 0 0 0-.182-.13.235.235 0 0 0 .026-.104.28.28 0 0 1 .026-.13l-.052-.078c-.07.035-.139.078-.208.13-.052.035-.122.07-.208.104a.329.329 0 0 0-.052-.078.278.278 0 0 1-.052-.078c-.018 0-.035.009-.052.026h-.026a.586.586 0 0 1 .026.182.632.632 0 0 0 .078.156c.017.017.043.026.078.026h.104c.19-.052.277.026.26.234v.052zm-.182-1.066a1.25 1.25 0 0 1 .208.104 1 1 0 0 1 .208.078c.017.017.034.026.052.026a.194.194 0 0 1 .078-.026c.034-.07.034-.121 0-.156-.07-.139-.156-.208-.26-.208s-.2.06-.286.182zm.442-.728a4.5 4.5 0 0 1 .104-.286l.104-.338a.711.711 0 0 0-.338.26c-.07.121-.087.225-.052.312 0 .052.034.078.104.078 0 .017.008.026.026.026.034-.017.052-.035.052-.052zm.676-1.014a.964.964 0 0 1 .208-.468c.121-.139.147-.303.078-.494a9.097 9.097 0 0 0-.26.442l-.26.468c.034 0 .069.009.104.026.034 0 .078.009.13.026zm1.222-2.938c.173 0 .26-.095.26-.286l-.052-.052c0-.017-.009-.035-.026-.052-.07.052-.156.13-.26.234-.018 0-.018.026 0 .078.034.052.06.078.078.078zm1.196-4.706c.034-.035.043-.078.026-.13 0-.07-.009-.113-.026-.13h-.156c-.052-.017-.096-.009-.13.026a.873.873 0 0 0-.208.234 2.73 2.73 0 0 0-.156.234l-.338.676-.338.676-.286.598c-.104.19-.2.39-.286.598l-.26.598a23.69 23.69 0 0 1-.26.598 1.81 1.81 0 0 1-.104.182 1.57 1.57 0 0 0-.104.182l-.26.728-.26.728a12.89 12.89 0 0 1-.286.728l-.286.728-.156.52-.104.546c-.052.173-.148.243-.286.208l.156-.442c.052-.156.095-.312.13-.468.034-.121.052-.243.052-.364a2.63 2.63 0 0 1 .078-.364c.034-.121.078-.225.13-.312l.156-.312a.299.299 0 0 0 .026-.208.51.51 0 0 1 .052-.234l.208-.494a8.729 8.729 0 0 0 .338-.91c.034-.139.086-.269.156-.39l.338-.65a2.2 2.2 0 0 0 .208-.676.568.568 0 0 1 .078-.208.702.702 0 0 0 .13-.182l.182-.39.182-.39a.175.175 0 0 1-.13-.052c-.07.087-.13.19-.182.312a.318.318 0 0 1-.182.208c-.139.087-.2.19-.182.312a.392.392 0 0 1-.078.312h-.182a2.304 2.304 0 0 0-.026.338c0 .087-.009.19-.026.312-.191-.087-.33-.104-.416-.052-.087.035-.174.156-.26.364s.017.381.312.52c-.035.07-.087.19-.156.364a.707.707 0 0 1-.13-.156 2.1 2.1 0 0 0-.312.182.55.55 0 0 0-.104.208.68.68 0 0 1 .208.026.6.6 0 0 1 .208.052 1.781 1.781 0 0 0-.208.052.427.427 0 0 0-.13.026l.104.104c.052.035.104.078.156.13l-.234.104a.382.382 0 0 0-.182.104.88.88 0 0 0-.234.338c0 .035.026.078.078.13a.869.869 0 0 0 .13-.104.869.869 0 0 0 .13-.104l.078-.078a1.116 1.116 0 0 1-.104.338l-.104.312a6.89 6.89 0 0 0-.104.338 2.224 2.224 0 0 1-.078.312l-.156.52a2.52 2.52 0 0 1-.156.468 1.029 1.029 0 0 1-.13.234 2.73 2.73 0 0 0-.156.234l-.208.286-.208.26.078.078a.228.228 0 0 1 .104-.026.424.424 0 0 0 .104-.078v.104l-.13.78-.13.78-.104.572-.104.572a1.62 1.62 0 0 0 .312.13c.069.295.052.563-.052.806a1.663 1.663 0 0 0-.078.78c.017.173.008.347-.026.52a4.05 4.05 0 0 0-.078.494c0 .052.017.113.052.182a.772.772 0 0 0 .13-.156 2.13 2.13 0 0 0 .078-.234.567.567 0 0 1 .104-.234c.052-.104.069-.19.052-.26 0-.07-.078-.13-.234-.182l.26-.078c.052-.139.086-.277.104-.416a.551.551 0 0 1 .182-.312 1.2 1.2 0 0 0 .208-.208.595.595 0 0 0 .104-.26.5.5 0 0 0-.026-.156v-.182a.797.797 0 0 0-.104.13l-.104.104-.078.026a.73.73 0 0 1 .026-.182.615.615 0 0 0 .052-.208c.017-.07 0-.121-.052-.156-.035-.035-.13-.043-.286-.026l.104-.234.104-.234.078.26.078.208c.052-.07.095-.121.13-.156l.104-.156v.494c.138-.156.208-.26.208-.312s-.052-.139-.156-.26c-.035-.035-.052-.087-.052-.156a.82.82 0 0 1 .026-.208.632.632 0 0 1 .078-.156.61.61 0 0 0 .078-.182c.017-.035.017-.078 0-.13a1.18 1.18 0 0 0-.052-.13h-.052c0-.017-.009-.026-.026-.026a.632.632 0 0 0-.078.156 8.487 8.487 0 0 0-.078.156c-.087-.139-.13-.243-.13-.312a.872.872 0 0 1 .13-.26c.138-.19.268-.39.39-.598l.442-.702h-.442l.182-.468.208-.442c0-.035.034-.052.104-.052.138-.035.216-.009.234.078a.542.542 0 0 1 0 .234l.104.052c.069-.121.164-.243.286-.364l.208-.806a3.5 3.5 0 0 1 .312-.806 3.87 3.87 0 0 0 .208-.572l.234-.572c.086-.243.182-.468.286-.676l.286-.702c.052-.139.095-.286.13-.442a3.3 3.3 0 0 1 .182-.442l.286-.598.286-.598c0-.017-.009-.035-.026-.052v-.104a2.59 2.59 0 0 1-.364.39c-.122.121-.165.277-.13.468 0 .035-.018.07-.052.104l-.208.39-.208.338a2.73 2.73 0 0 1-.156.234 2.73 2.73 0 0 0-.156.234c-.035.07-.078.139-.13.208-.052.052-.07.104-.052.156.034.104.043.182.026.234a.254.254 0 0 1-.104.13 1.57 1.57 0 0 1-.182.104.456.456 0 0 0-.13.13l.104-.39a1.17 1.17 0 0 1 .156-.338l.26-.52c.086-.173.19-.33.312-.468s.138-.26.052-.364l.104-.104a.576.576 0 0 0 .104-.13l.468-1.04a6.83 6.83 0 0 1 .546-.988zm-.182-.39c.121-.035.242-.139.364-.312.121-.19.164-.347.13-.468-.122.035-.234.139-.338.312s-.156.33-.156.468zm17.065 4.836v.104c-.052.087-.104.19-.156.312a.404.404 0 0 1-.208.208.55.55 0 0 0-.234.208 1.39 1.39 0 0 1-.156.234 5.745 5.745 0 0 0-.26.338l-.26.364-.104.234a.563.563 0 0 1-.078.182c-.087.139-.191.26-.312.364a2.057 2.057 0 0 0-.286.364 3.154 3.154 0 0 1-.26.234c-.069.07-.139.156-.208.26a.575.575 0 0 1-.182.234 1.48 1.48 0 0 0-.234.234l-.078.078a.491.491 0 0 1-.234.338 6.836 6.836 0 0 0-.338.182c-.104-.104-.156-.165-.156-.182 0-.035.061-.095.182-.182a.854.854 0 0 0 .104-.13.47.47 0 0 1 .13-.13l.156-.156.208-.156a2.21 2.21 0 0 1 .286-.286l.286-.312.234-.286.26-.312.234-.39c.069-.139.147-.269.234-.39a1.44 1.44 0 0 1 .234-.234 3.23 3.23 0 0 0 .26-.234l-.078-.052a.367.367 0 0 0 .026-.156c.017-.07.035-.104.052-.104.191 0 .277-.052.26-.156a.605.605 0 0 1 .026-.312.414.414 0 0 0 .052-.182c.017 0 .026.009.026.026h.052a9.283 9.283 0 0 1-.078-.078.392.392 0 0 0-.078-.104l-.884 1.222a11.96 11.96 0 0 1-.962 1.144l-.052-.052c.035-.035.052-.07.052-.104a.392.392 0 0 1 .078-.104l.546-.702.572-.728a7.81 7.81 0 0 0 .364-.598c.035-.087.078-.165.13-.234l.182-.234.208-.208.156.156.13.13c.052.035.095.07.13.104v.13c.017.035.026.07.026.104zm-4.238 4.706a.547.547 0 0 1 .26-.182c.121-.052.26-.035.416.052l-.442.442-.546.546-.494.52a.328.328 0 0 1-.13.078c-.035 0-.069.017-.104.052l-.104.104a.392.392 0 0 1-.078.104l-.234.234c0-.017-.026 0-.078.052a1.81 1.81 0 0 1-.572.676 4.741 4.741 0 0 0-.65.546l-.65.598-.676.572-.104.052a.291.291 0 0 1-.078.052 6.49 6.49 0 0 0-.416.234l-.546.338-.52.364-.39.234a2.18 2.18 0 0 1-.598.312c-.208.07-.425.121-.65.156a4.435 4.435 0 0 1-.676.052.966.966 0 0 1-.624-.234c-.139-.104-.251-.087-.338.052-.052.121-.13.182-.234.182-.087 0-.182-.009-.286-.026a.546.546 0 0 1-.286-.078c-.069-.035-.113-.121-.13-.26-.017 0-.035.009-.052.026h-.026a.438.438 0 0 1-.026.13v.156a2.224 2.224 0 0 1-.208-.234 2.412 2.412 0 0 0-.182-.26c0-.017-.009-.035-.026-.052 0-.017-.009-.035-.026-.052v-.026l-.078-.156c-.087-.312-.217-.555-.39-.728a.523.523 0 0 1-.156-.182 1.428 1.428 0 0 0-.078-.26 2.412 2.412 0 0 0-.182-.26l-.156-.26a1.855 1.855 0 0 1-.13-.26 2.282 2.282 0 0 0-.078-.286l-.182-.702a2.537 2.537 0 0 1 0-.728l.052-.494a4.05 4.05 0 0 0 .078-.494c.017-.017.026-.043.026-.078a1.762 1.762 0 0 1 .13-.806l.286-.754c.017-.052.069-.095.156-.13-.156-.208-.104-.355.156-.442.052-.052.078-.104.078-.156-.052-.19 0-.32.156-.39l.052-.208a.58.58 0 0 0 .182-.078c.069-.035.061-.121-.026-.26-.017-.017 0-.06.052-.13a.88.88 0 0 1 .182-.182l.078-.078c.035-.017.035-.052 0-.104l.234-.156a1.303 1.303 0 0 0-.156-.182c.243 0 .321-.07.234-.208.087-.087.156-.165.208-.234l.208-.26.104-.208c.052-.07.095-.147.13-.234h.026c.017-.017.035-.026.052-.026.191-.087.303-.147.338-.182.035-.052.035-.165 0-.338a.231.231 0 0 1 .104-.026.29.29 0 0 0 .13-.026l-.104-.104-.104-.156.858-1.092a2.074 2.074 0 0 1-.078.208c.017 0 .026.009.026.026h.052l.104-.156.13-.208c.139-.035.191-.147.156-.338-.017-.104.043-.225.182-.364a.92.92 0 0 1 .416-.26h.104c-.052-.156-.035-.269.052-.338a.75.75 0 0 0 .234-.234 3.78 3.78 0 0 1 .468-.572l.52-.546a5.61 5.61 0 0 1 .546-.572 2.94 2.94 0 0 0 .52-.624c.173-.26.364-.485.572-.676.208-.208.433-.407.676-.598a.328.328 0 0 1 .13-.078l.156-.104c.069-.035.121-.043.156-.026l.702.312c.017 0 .035.009.052.026h.052l.234.104a.46.46 0 0 1 .182.182c.052.07.113.13.182.182s.139.095.208.13c.191.121.329.26.416.416l.26.52c0 .017.009.035.026.052.035.104.052.217.052.338.017.121.052.243.104.364.087.19.147.373.182.546.052.173.121.347.208.52a.73.73 0 0 1 .026.572.816.816 0 0 0 0 .572.206.206 0 0 1-.026.078.301.301 0 0 0-.052.078c.156.104.199.208.13.312a.935.935 0 0 0-.156.286l-.052.312a2.282 2.282 0 0 1-.078.286 1.428 1.428 0 0 0-.078.26c0 .07-.043.139-.13.208a.175.175 0 0 0-.052.13c0 .035-.009.07-.026.104a4.65 4.65 0 0 1-.286.494c-.156.277-.321.52-.494.728l-.312.468a9.778 9.778 0 0 1-.312.442c-.087.139-.182.26-.286.364a3.303 3.303 0 0 0-.26.364c-.069.087-.13.2-.182.338-.035.087-.078.139-.13.156a1.062 1.062 0 0 0-.416.364 3.316 3.316 0 0 1-.312.416 2.524 2.524 0 0 1-.312.26 5.847 5.847 0 0 0-.338.26l-.26.208a2.57 2.57 0 0 1-.234.208 2.353 2.353 0 0 1-.338.234l-.338.234c-.035 0-.061.009-.078.026-.243.19-.503.33-.78.416l-.832.234a.824.824 0 0 1-.234.052h-.026a5.286 5.286 0 0 1-.91.104c-.381.017-.685 0-.91-.052l-.026-.026-.156.078c.035.173-.043.312-.234.416a.167.167 0 0 0-.078.078c0 .035-.009.07-.026.104a.392.392 0 0 0-.078.104c0 .017-.017.043-.052.078-.087.087-.104.147-.052.182a.332.332 0 0 1 .156.078 1.428 1.428 0 0 0-.078.26l-.052.26c-.035.07-.069.113-.104.13-.156.156-.173.338-.052.546.052.087.043.182-.026.286a.22.22 0 0 0 .052.312c.052.017.095.087.13.208l.078.156a1.49 1.49 0 0 1 .026.286.81.81 0 0 0 .104.26.648.648 0 0 0 .442.286c.347.052.737.026 1.17-.078a3.989 3.989 0 0 0 1.092-.468l.572-.364.702-.468.676-.494.572-.416 1.118-.91 1.092-.936a44.178 44.178 0 0 0 1.794-1.69l.754-.676.754-.702a.915.915 0 0 0 .182-.182l.156-.208.052.052c.017 0 .035.017.052.052l-1.274 1.326-1.222 1.3-.104.156a.392.392 0 0 1-.078.104 6.603 6.603 0 0 1-.338.364l-.312.312-.052.052c-.017 0-.035.009-.052.026a.291.291 0 0 0-.078.052c0 .017-.017.043-.052.078.035 0 .069.009.104.026.052.017.095.017.13 0a.869.869 0 0 0 .13-.104c.052-.052.104-.095.156-.13l.754-.65a9.21 9.21 0 0 0 .702-.728zm-9.62-2.132a.55.55 0 0 1 .234-.208c.104-.052.13-.156.078-.312-.087 0-.139.009-.156.026a1.99 1.99 0 0 0-.182.208c-.035.07-.078.139-.13.208-.052.052-.043.078.026.078.035.052.078.052.13 0zm.286.78l.286-.364.286-.39c-.156.017-.295.104-.416.26a.635.635 0 0 0-.156.494zm4.472.364c.035-.035.052-.087.052-.156a5.06 5.06 0 0 1 .052-.234c-.139 0-.234.07-.286.208a1.053 1.053 0 0 1-.13.156 1.053 1.053 0 0 0-.13.156l-.312.234.078.078a5.89 5.89 0 0 0 .338-.208c.121-.07.234-.147.338-.234zm.364-.442c.035 0 .069-.035.104-.104.017-.017.017-.035 0-.052s-.035-.026-.052-.026c-.069-.035-.13-.026-.182.026a.392.392 0 0 0-.078.104c0 .017-.017.043-.052.078a.915.915 0 0 0 .26-.026zm-1.742-2.262a4.94 4.94 0 0 0-.338.494 8.062 8.062 0 0 1-.338.468.291.291 0 0 1-.078.052c-.035.017-.061.017-.078 0-.087-.017-.139 0-.156.052a.807.807 0 0 0-.052.156c0 .052-.017.13-.052.234l-.104.208a1.703 1.703 0 0 0-.104.182l-.13.13a1.053 1.053 0 0 1-.13.156.702.702 0 0 0-.13.182 6.605 6.605 0 0 0-.234.52c-.052.173-.156.33-.312.468a6.35 6.35 0 0 0-.052.052l-.338.494a2.02 2.02 0 0 1 .442.052.763.763 0 0 0 .442-.026c.087-.035.165-.06.234-.078s.147-.043.234-.078a1.61 1.61 0 0 1 .234-.026 1.32 1.32 0 0 0 .182-.078.654.654 0 0 1 .156-.078.98.98 0 0 0 .208-.078c.035 0 .069-.017.104-.052l.78-.546c.087-.052.173-.095.26-.13a2.37 2.37 0 0 0 .26-.182 5.09 5.09 0 0 0 .65-.546 4.04 4.04 0 0 0 .546-.676l.104-.104a7.26 7.26 0 0 0 .338-.416 7.26 7.26 0 0 0 .338-.416l.416-.52.416-.52a.175.175 0 0 0 .052-.13.294.294 0 0 0 .026-.13.32.32 0 0 1 .078-.13c.26-.416.485-.84.676-1.274s.321-.901.39-1.404a1.75 1.75 0 0 0 .026-.52v-.52a.25.25 0 0 0-.052-.13c-.017-.052-.043-.078-.078-.078a.322.322 0 0 0-.234.104l-.208.208a1.177 1.177 0 0 1-.208.182 1.88 1.88 0 0 1-.208.182 1.73 1.73 0 0 1-.182.156c-.104.07-.199.147-.286.234a1.482 1.482 0 0 1-.312.234c-.139.087-.26.2-.364.338a3.667 3.667 0 0 1-.338.39 1.73 1.73 0 0 1-.182.156l-.208.104a.738.738 0 0 0-.13.156 4.124 4.124 0 0 0-.234.364 1.932 1.932 0 0 1-.208.364 2.97 2.97 0 0 1-.312.364l-.312.312a5.23 5.23 0 0 0-.39.494.954.954 0 0 1-.52.364v.156a.112.112 0 0 1 0 .104zm-.624-3.146l-.13.13a.854.854 0 0 1-.104.13c0 .035.009.06.026.078a.231.231 0 0 1 .104-.026c.035 0 .061-.017.078-.052.035-.035.052-.07.052-.104 0-.052.009-.095.026-.13-.017-.017-.035-.026-.052-.026zm-.468.39a.55.55 0 0 0-.13.104l-.104.104a1.56 1.56 0 0 0 .234.182c0 .035.017.052.052.052a1.13 1.13 0 0 0 .078-.13c.035-.052.069-.113.104-.182a.291.291 0 0 0-.078-.052l-.104-.052c-.017-.017-.035-.026-.052-.026zm-.208.39c-.173-.017-.312.078-.416.286.069.035.156.087.26.156l-.052-.104a.438.438 0 0 0-.026-.13c.035 0 .069.009.104.026a.231.231 0 0 0 .104-.026c.035 0 .087-.035.156-.104a.291.291 0 0 1-.078-.052c0-.035-.017-.052-.052-.052zm-3.406 5.772v-.026c.017 0 .026-.009.026-.026a2.016 2.016 0 0 0-.104-.26c-.017-.017-.043-.026-.078-.026 0 .035-.009.07-.026.104a.112.112 0 0 0 0 .104c0 .017.061.06.182.13zm-.104-.442a1.93 1.93 0 0 0 .182-.104l.234-.13c-.139-.139-.121-.277.052-.416.017-.017.017-.043 0-.078 0-.035.009-.07.026-.104h-.052c0-.017-.009-.026-.026-.026a4.842 4.842 0 0 0-.234.416 10.62 10.62 0 0 1-.234.39l.052.052zm.416 2.288c.052-.035.078-.095.078-.182a.42.42 0 0 0-.026-.26c-.035.07-.061.13-.078.182a1.335 1.335 0 0 1-.078.182v.052c.017.017.026.035.026.052.052 0 .078-.009.078-.026zm0-3.328a.81.81 0 0 0 .13.104.654.654 0 0 1 .156.078.632.632 0 0 0 .078-.156.563.563 0 0 0 .078-.182c.017-.035.017-.078 0-.13v-.182c.035.017.052.035.052.052.017 0 .043.009.078.026.087-.087.156-.165.208-.234l.208-.26.026-.052a.301.301 0 0 0 .052-.078c0-.017-.017-.035-.052-.052-.017-.017-.035-.017-.052 0-.035 0-.078.026-.13.078l-.052.104a.206.206 0 0 1-.026.078c-.017 0-.043-.017-.078-.052l.104-.208a.52.52 0 0 1 .182-.156c.156-.07.243-.121.26-.156.035-.035.009-.13-.078-.286l.156-.078.208-.104c.087-.035.139-.07.156-.104.017-.173.078-.286.182-.338.104-.07.199-.147.286-.234a3.834 3.834 0 0 0-.078-.338c.121-.07.225-.147.312-.234a.915.915 0 0 0 .182-.182l.156-.208c.121-.139.087-.251-.104-.338a9.589 9.589 0 0 0-1.43 1.82 73.854 73.854 0 0 0-1.17 2.002zm.26 2.574a2.74 2.74 0 0 0 .208-.468 5.67 5.67 0 0 1 .234-.468c-.035 0-.052-.017-.052-.052-.069.035-.104.07-.104.104a1.338 1.338 0 0 1-.156.312 4.267 4.267 0 0 0-.156.286c-.035.052-.052.147-.052.286h.078zm20.411-5.2a.329.329 0 0 0-.13.208l-.052.208a.392.392 0 0 1-.104.182c-.052.035-.148.026-.286-.026.034.052.069.13.104.234a2.62 2.62 0 0 1-.026.364c0 .121.017.234.052.338l.338 1.04.364 1.04c.086.295.19.58.312.858l.39.78.286.52.26.546c.034.035.052.07.052.104-.087.156-.096.286-.026.39l.234.26.39.546c.138.156.26.33.364.52a.375.375 0 0 1 .052.208v.26a.438.438 0 0 1-.026.13c0 .035.017.07.052.104l.754.806c.242.26.572.433.988.52-.139.243-.33.33-.572.26a5.3 5.3 0 0 0-.754-.156 5.34 5.34 0 0 1-.754-.208 4.452 4.452 0 0 1-.65-.312 3.519 3.519 0 0 1-.598-.442 12.148 12.148 0 0 1-2.262-2.756 24.246 24.246 0 0 1-.884-1.43l-.832-1.482a.617.617 0 0 0-.156-.104c-.052-.052-.096-.07-.13-.052a4.21 4.21 0 0 0-.364.234l-.338.234c.173.104.216.2.13.286a3 3 0 0 0-.26.234c-.139.139-.278.26-.416.364a6.551 6.551 0 0 0-.39.364 1.48 1.48 0 0 0-.234.234 2.3 2.3 0 0 1-.208.234l.026.026c0 .017.008.035.026.052a6.211 6.211 0 0 1-.26.338 3.43 3.43 0 0 1-.234.26 4.085 4.085 0 0 0-.494.728 1.285 1.285 0 0 1-.598.572.334.334 0 0 0-.156.156l-.13.234a1.22 1.22 0 0 1-.182.234c-.052.07-.148.104-.286.104-.052-.017-.122.017-.208.104l-.572.728c-.191.225-.304.511-.338.858a1.609 1.609 0 0 1-.13.468 2.38 2.38 0 0 0-.156.468.407.407 0 0 0 0 .208v.286a.68.68 0 0 0-.208-.026c-.087.017-.156.009-.208-.026a1.792 1.792 0 0 1-.572-.572 1.356 1.356 0 0 1-.26-.754 4.804 4.804 0 0 1 .26-1.872 12.51 12.51 0 0 1 .754-1.716l.39-.754a5.1 5.1 0 0 1 .468-.728 104.7 104.7 0 0 1 1.612-2.08l1.638-2.08a3.36 3.36 0 0 1 .312-.364l.338-.364c.138-.121.173-.277.104-.468a5.013 5.013 0 0 1-.182-.468l-.156-.52a27.49 27.49 0 0 0-.286-.91l-.26-.936-.468-1.638a61.628 61.628 0 0 0-.494-1.664.814.814 0 0 1-.052-.234c.017-.07.086-.139.208-.208l.39-.182a.741.741 0 0 1 .442-.026.67.67 0 0 0 .364-.052 1.51 1.51 0 0 1 .39-.156l.156-.052c.052-.017.095-.009.13.026.19.139.39.2.598.182.225-.035.433-.017.624.052.156.035.32.165.494.39.19.208.294.39.312.546l.104 1.196.104 1.17a3.38 3.38 0 0 0 .078.416l.104.468c.034-.035.069-.052.104-.052a.328.328 0 0 0 .13-.078l1.56-1.482 1.092-.988 1.092-.988 1.118-.884 1.144-.884.572-.39a.97.97 0 0 1 .702-.104l.182.052c.052 0 .104.026.156.078a1.57 1.57 0 0 1-.182.104 1.397 1.397 0 0 0-.182.078v.078c.069 0 .13.009.182.026h.182c.138 0 .286.009.442.026a.47.47 0 0 1 .39.208.18.18 0 0 1 .052.13.32.32 0 0 0 .078.13c.017.035.026.07.026.104 0 .017.008.035.026.052l.312.286c.104.087.216.165.338.234.225.104.268.251.13.442a1.49 1.49 0 0 0 .104.182l.104.156c.086.19.121.33.104.416s-.113.2-.286.338l-.572.442-.546.468a1.566 1.566 0 0 1-.208.156l-.546.234a4.257 4.257 0 0 0-.546.208 7.332 7.332 0 0 0-.39.26 8.25 8.25 0 0 1-.39.26 5.176 5.176 0 0 1-.416.234 4.21 4.21 0 0 0-.364.234 7.26 7.26 0 0 0-.546.494 7.674 7.674 0 0 1-.546.494c-.07.07-.148.13-.234.182-.07.035-.139.078-.208.13l-.78.65-.754.65c-.33.277-.685.416-1.066.416-.035-.017-.061-.009-.078.026a.328.328 0 0 1-.078.052v.052c.017 0 .026.009.026.026h.364zm-6.734 5.122c.19.052.312.07.364.052a.597.597 0 0 0 .208-.208.343.343 0 0 0 .078-.13c.017-.052.043-.078.078-.078.225 0 .372-.087.442-.26.086-.173.199-.312.338-.416a4.5 4.5 0 0 0 .65-.624l.572-.728.182-.234c.069-.087.121-.173.156-.26.034-.035.043-.078.026-.13a.408.408 0 0 1-.026-.13h-.13c-.052-.017-.096-.009-.13.026-.156.156-.33.295-.52.416s-.304.312-.338.572l-.078.078a238.725 238.725 0 0 0-.78.78c-.087.087-.165.19-.234.312a3.962 3.962 0 0 1-.52.624l-.338.338zm-1.404 1.092l.312-.702c.017-.035.086-.052.208-.052.104.052.173.052.208 0a.606.606 0 0 0 .078-.208l.104-.364a1.17 1.17 0 0 1 .156-.338l.364-.494.364-.468a.494.494 0 0 0 .052-.26c-.122 0-.2.017-.234.052a.456.456 0 0 0-.13.13.797.797 0 0 0-.104.13 327.865 327.865 0 0 0-1.04 1.456l-.104.234c-.035.07-.078.139-.13.208a5.345 5.345 0 0 1-.286.364 3.391 3.391 0 0 0-.312.364c-.035.035-.052.087-.052.156a.5.5 0 0 1-.026.156l.026.026c.017 0 .034.009.052.026.173-.173.338-.312.494-.416zm1.95-2.99a.654.654 0 0 1 .156-.078.617.617 0 0 0 .156-.104.675.675 0 0 0 .156-.156 1.88 1.88 0 0 1 .182-.208.441.441 0 0 0 .078-.104.392.392 0 0 1 .078-.104l.26-.338.26-.338a2.7 2.7 0 0 1 .312-.312l.364-.338a.469.469 0 0 0 .13-.208c.017-.07-.018-.147-.104-.234a4.185 4.185 0 0 0-.624.572l-.676.754a9.03 9.03 0 0 0-.546.754c-.139.225-.2.373-.182.442zm6.734-7.124c-.035-.035-.061-.052-.078-.052a3.992 3.992 0 0 1-.078-.078l-.104.104a.441.441 0 0 1-.078.104.392.392 0 0 0-.078.104.441.441 0 0 1-.078.104l-.728.624-.702.65a.324.324 0 0 0-.078.156c0 .07-.009.139-.026.208.069-.035.13-.06.182-.078a.58.58 0 0 0 .182-.078c.104-.087.199-.182.286-.286a2.44 2.44 0 0 1 .26-.312l.39-.338.416-.338a1.43 1.43 0 0 0 .156-.234l.156-.26zm-8.97 10.608l-.312.104a1.02 1.02 0 0 0-.26.156.346.346 0 0 0-.13.234l-.104.26c0 .035.034.078.104.13.052.035.121.087.208.156l.026-.546c.017-.156.147-.225.39-.208.034 0 .06-.026.078-.078a.32.32 0 0 1 .078-.13l-.078-.078zm3.822-2.86l-.26.26a3 3 0 0 0-.26.234.548.548 0 0 0 .104.13 3.43 3.43 0 0 0 .234-.26l.26-.286-.078-.078zm.728-.702c-.26-.121-.408.07-.442.572l.208-.312a3.05 3.05 0 0 1 .234-.26zm14.872-14.04c-.087-.156-.217-.208-.39-.156a7.067 7.067 0 0 0-.364.13 1.26 1.26 0 0 1-.416.13 3.893 3.893 0 0 0-.39.078 2.045 2.045 0 0 0-.312.078 2.375 2.375 0 0 0-.286.078.417.417 0 0 1-.182.052 1.837 1.837 0 0 0-1.014.078 4.542 4.542 0 0 1-.988.208 5.359 5.359 0 0 0-.52.078c-.173.035-.338-.017-.494-.156-.017-.052-.078-.06-.182-.026a81.69 81.69 0 0 0-1.014.26l-1.04.26-.702.13-.728.104-.546.104-.546.104-.286-.286c.208-.468.503-.823.884-1.066.381-.26.797-.46 1.248-.598l.988-.312c.312-.121.641-.225.988-.312l1.378-.312 1.352-.286.962-.208.988-.234.988-.156 1.014-.182 1.014-.182 1.04-.234a.475.475 0 0 0 .364-.312l1.716-3.9.364-.728.364-.754c.087-.173.191-.277.312-.312a.668.668 0 0 1 .416-.026c.139.035.277.06.416.078a4.23 4.23 0 0 1 .468.078.231.231 0 0 0 .104.026c.035 0 .069.017.104.052l.52.338c.191.104.338.243.442.416a2.41 2.41 0 0 0 .182.26c.069.087.121.173.156.26.052.087.078.19.078.312a.592.592 0 0 1-.13.338v.104c.139.208.165.39.078.546a1.411 1.411 0 0 1-.416.442l-.052.026-.416.702-.416.702a2.202 2.202 0 0 1-.416.572c-.017.173.087.26.312.26l1.82-.104a6.47 6.47 0 0 1 1.82.156c.191.035.39.06.598.078a2.37 2.37 0 0 1 .624.078c.139.035.286.095.442.182.173.087.329.2.468.338a1.43 1.43 0 0 1 .338.442.92.92 0 0 1 .156.52 4.32 4.32 0 0 0 .026.468.837.837 0 0 1 0 .416.824.824 0 0 1-.156.338.521.521 0 0 1-.234.208c-.208.07-.416.121-.624.156l-.624.052-.728.026a3.133 3.133 0 0 1-.702-.13 6.028 6.028 0 0 0-1.768-.208 20.75 20.75 0 0 1-1.794-.026c-.243 0-.494.017-.754.052l-.832.078c0 .035-.043.165-.13.39l-.286.702-.26.754-.156.416a.822.822 0 0 1-.208.312.384.384 0 0 0-.104.338c.017.035-.009.07-.078.104a1.93 1.93 0 0 0-.182.104c.052.173.069.286.052.338s-.095.121-.234.208c-.035.052-.104.13-.208.234a.869.869 0 0 1-.13.104.292.292 0 0 0-.104.104c-.017.035-.009.078.026.13l.104.156a.6.6 0 0 0-.078.234 1.091 1.091 0 0 1-.104.312 8.185 8.185 0 0 0-.104.338c-.035.104-.121.2-.26.286a.324.324 0 0 0-.078.156v.13l-.286.338a4.279 4.279 0 0 0-.26.286c-.052.087-.061.156-.026.208.052.173.069.286.052.338-.017.035-.113.104-.286.208.069.156.078.269.026.338a.442.442 0 0 1-.208.182l-.286.104a.421.421 0 0 0-.208.182c.087.017.165.026.234.026h.286c-.243.139-.416.286-.52.442a.452.452 0 0 0 0 .468 2.323 2.323 0 0 1-.234.208 1.73 1.73 0 0 1-.182.156.41.41 0 0 1 .078.104l.104.104c.052.156.017.234-.104.234a.746.746 0 0 0-.338.078 1.66 1.66 0 0 1 .156.286 1.822 1.822 0 0 0-.26.13c-.069.035-.147.07-.234.104-.069.035-.104.078-.104.13l.104.104c.139.035.251.07.338.104-.173 0-.277.052-.312.156l-.052.312a6.186 6.186 0 0 1-.13.442 3.905 3.905 0 0 0-.13.416.294.294 0 0 0-.026.13c0 .035-.009.07-.026.104a1.4 1.4 0 0 1-.052.312h-.156a.492.492 0 0 0-.156-.026.203.203 0 0 0-.078.026h-.078l.156.234a1.7 1.7 0 0 1 .156.182l-.182.234a1.855 1.855 0 0 0-.13.26.273.273 0 0 0 0 .234l.104.208c0 .035.017.07.052.104s.043.07.026.104l-.156.416a4.415 4.415 0 0 1-.182.416c-.017.035-.061.06-.13.078l-.208.052c.017.035.026.07.026.104.017.035.043.07.078.104-.069.035-.13.06-.182.078l-.156.052c.104.225.139.442.104.65-.035.19-.087.381-.156.572a2.607 2.607 0 0 1-.13.39 1.8 1.8 0 0 0-.13.364l-.13.78-.104.754-.104.416-.104.364c-.017.035-.052.06-.104.078a.406.406 0 0 0-.104.078 2.224 2.224 0 0 0-.208.234c-.052.07-.069.173-.052.312s0 .295-.052.468a4.14 4.14 0 0 0-.13.494l-.052.156a.5.5 0 0 0-.026.156 3.38 3.38 0 0 0 .078.416.943.943 0 0 1 0 .442.972.972 0 0 0-.052.312c0 .104-.017.2-.052.286-.069.208-.087.39-.052.546a1.25 1.25 0 0 0 .26.468l.078.078a1.55 1.55 0 0 1 .13.156c-.277.087-.503.06-.676-.078a1.314 1.314 0 0 0-.494-.286c-.087-.035-.156-.113-.208-.234a8.185 8.185 0 0 0-.104-.338.526.526 0 0 0-.208-.234c-.104-.052-.104-.13 0-.234a10.793 10.793 0 0 0-.208-.442 1.284 1.284 0 0 1-.13-.416 8.389 8.389 0 0 1-.052-.936 16.743 16.743 0 0 1-.026-.91c0-.19.017-.373.052-.546l.104-.52a2.13 2.13 0 0 0 .052-.468 4.23 4.23 0 0 1 .078-.468l.234-1.248.234-1.248.702-2.73.286-.91.312-.936.624-1.794.624-1.82.26-.65.26-.676.364-.936.364-.91.416-1.04.442-1.066.13-.39.234-.676.156-.65c.035-.19.026-.286-.026-.286a3.357 3.357 0 0 0-.416-.026.473.473 0 0 1-.338-.156c-.035-.035-.095-.035-.182 0a.917.917 0 0 1-.234.078zm-1.82 11.648a1.232 1.232 0 0 0-.026.234.781.781 0 0 1-.026.182.29.29 0 0 0 .13.026.457.457 0 0 0 .052-.208.979.979 0 0 1 .078-.208h-.208a.5.5 0 0 0-.026-.156v-.156c.173.017.338.052.494.104a53.144 53.144 0 0 1-.078-.312 2.503 2.503 0 0 0-.052-.182c.052-.07.095-.121.13-.156l.104-.156a5.646 5.646 0 0 1-.26-.182l.182-.468.156-.494c.017.017.043.026.078.026l-.104.312a1.977 1.977 0 0 1-.078.312.294.294 0 0 0-.026.13c0 .035-.009.07-.026.104a.328.328 0 0 1 .13-.078.292.292 0 0 0 .104-.104l.26-.494.26-.572-.234.104a1.397 1.397 0 0 0-.182.078l-.026-.026c0-.017-.009-.035-.026-.052a1.58 1.58 0 0 1 .234-.182.869.869 0 0 1 .13-.104l.13-.13a3.76 3.76 0 0 0 .208-.572l.208-.624a.365.365 0 0 0-.156-.026 4.04 4.04 0 0 1-.208-.078l.416-.754a.702.702 0 0 1 .13.182c.381-.295.503-.58.364-.858a.328.328 0 0 1-.13.078.328.328 0 0 0-.13.078l-.052-.026.39-.962.416-.988h.078a.983.983 0 0 1-.026.234v.182c.017 0 .026.009.026.026h.052a2.41 2.41 0 0 0 .182-.26c.069-.104.13-.208.182-.312.017-.017.009-.043-.026-.078-.017-.035-.043-.052-.078-.052-.035-.017-.121.009-.26.078a.835.835 0 0 1-.052-.208l.26-.806.286-.806a.689.689 0 0 0 .052-.26l.052-.26c.017-.017.009-.035-.026-.052-.017-.035-.043-.052-.078-.052-.087 0-.139.026-.156.078-.121.173-.234.39-.338.65l-.52 1.274-.52 1.248-.338.806-.312.806a17.07 17.07 0 0 1-.338.832l-.312.78-.234.624-.234.572-.208.546-.702 2.184-.234.702-.208.702-.13.676a1.902 1.902 0 0 1-.208.624 1.964 1.964 0 0 0-.208.754 2.22 2.22 0 0 1-.13.754 2.327 2.327 0 0 0-.182.78c0 .277-.043.546-.13.806a2.22 2.22 0 0 0-.13.754 1.62 1.62 0 0 1-.13.754.219.219 0 0 0-.026.182c.035.07.052.147.052.234.069-.07.121-.13.156-.182s.078-.104.13-.156c.069.347-.061.529-.39.546l.234.104c.087.017.173.043.26.078a1.9 1.9 0 0 0 .26-.806 1.267 1.267 0 0 0-.208-.78l.65-.468-.234-.182c-.069-.07-.052-.173.052-.312.017-.052.009-.121-.026-.208-.087-.087-.113-.165-.078-.234a.396.396 0 0 1 .13-.156v-.234a.871.871 0 0 0 .026-.208l-.104-.052a.758.758 0 0 0-.104-.078 2.45 2.45 0 0 1 .286-.078.357.357 0 0 0 .182-.078 2.74 2.74 0 0 0 .208-.468l.234-.52a.492.492 0 0 0-.156.026h-.156c0-.035-.009-.06-.026-.078a1.93 1.93 0 0 0 .182-.104 1.57 1.57 0 0 1 .182-.104 5.325 5.325 0 0 1-.026-.52c.017-.19-.087-.338-.312-.442.139-.035.225-.035.26 0a.41.41 0 0 1 .078.104l.104.104c-.017-.156-.017-.26 0-.312s.095-.147.234-.286l.026-.026c0-.017.009-.035.026-.052l.208-.676.208-.676-.052-.104a.406.406 0 0 1-.104.078c-.035 0-.069.017-.104.052-.017-.017-.035-.026-.052-.026l-.026-.026.156-.286.208-.312zm2.548-4.758a5.214 5.214 0 0 0-.104.286 1.44 1.44 0 0 1-.13.286 4.208 4.208 0 0 1-.364.598c-.139.19-.225.407-.26.65a8.185 8.185 0 0 0-.104.338.803.803 0 0 1-.104.286c-.243.381-.425.78-.546 1.196a45.51 45.51 0 0 1-.338 1.222 5.81 5.81 0 0 0-.13.52.867.867 0 0 1-.234.494.892.892 0 0 0-.156.312 8.185 8.185 0 0 1-.104.338l-.078.572a2.26 2.26 0 0 1-.13.546c-.069.19-.121.39-.156.598-.017.208-.147.373-.39.494l.104.26.13.312c.104-.173.165-.303.182-.39l.39-1.196.39-1.196.468-1.404.104-.312.156-.312a1.8 1.8 0 0 1 .182-.364.836.836 0 0 0 .156-.39l.104-.572a1.12 1.12 0 0 1 .286-.546c.017-.017.026-.035.026-.052s.009-.035.026-.052l.052-.208c.017-.07.043-.156.078-.26-.035-.087-.017-.225.052-.416a1.5 1.5 0 0 1 .286-.52.734.734 0 0 0 .208-.494 3.17 3.17 0 0 1 .052-.572c.035 0 0-.017-.104-.052zm-1.56-8.554a.294.294 0 0 0-.026-.13c-.121 0-.217.009-.286.026l-.78.156a4.48 4.48 0 0 1-.468.078 2.02 2.02 0 0 0-.442.052l-.598.104a6.802 6.802 0 0 0-.572.13l-1.3.26a19.9 19.9 0 0 0-1.326.26l-.936.286-.936.286c-.208.07-.39.156-.546.26-.173.104-.286.208-.338.312l.754-.234.754-.234 1.092-.26 1.066-.286a10.46 10.46 0 0 1 1.066-.208l1.04-.208.962-.234c.312-.07.641-.121.988-.156a1.81 1.81 0 0 0 .416-.104l.416-.156zm2.288.338a1.397 1.397 0 0 0-.182-.078.172.172 0 0 0-.156-.026l-.598.13-.572.156a4.48 4.48 0 0 1-.468.078 2.02 2.02 0 0 0-.442.052l-.962.156-.962.104-.208.052a4.891 4.891 0 0 1-.234.052l-1.404.234a4.891 4.891 0 0 0-.234.052 1.35 1.35 0 0 0-.26.026.32.32 0 0 0-.078.13.854.854 0 0 0-.104.13c.139.07.243.104.312.104.069-.017.173-.06.312-.13a.546.546 0 0 1 .286-.078l.338-.052a.969.969 0 0 1 .39.026c.139.035.243-.026.312-.182l.858-.078a2.85 2.85 0 0 0 .78-.156c.312-.121.615-.173.91-.156a2.22 2.22 0 0 0 .936-.156c.26-.104.529-.165.806-.182l.858-.104a.633.633 0 0 0 .208-.156c0-.017-.009-.035-.026-.052l-.052-.052a.649.649 0 0 0-.234.026.167.167 0 0 0-.078.078l-.052.052zm-.338 8.112c0-.19.035-.373.104-.546a5.03 5.03 0 0 1 .234-.546l.234-.52c.069-.19.104-.381.104-.572a3.43 3.43 0 0 0-.416.754l-.234.546a6.605 6.605 0 0 1-.234.52c-.156.225-.087.347.208.364zm-5.512 14.846l.078-.494.052-.52a1.13 1.13 0 0 1 .104.208l.104.156a.231.231 0 0 1 .104-.026v-.26c0-.104-.017-.165-.052-.182a.608.608 0 0 1-.208-.13 1.153 1.153 0 0 1-.104-.208.406.406 0 0 1-.104.078c-.035.017-.052.043-.052.078v.234a.687.687 0 0 1 .026.208l-.052.39a1.22 1.22 0 0 1-.052.338c0-.017.052.026.156.13zm1.976-5.33l-.052-.052a1.053 1.053 0 0 1-.13.156c-.052.052-.078.087-.078.104.104.139.104.269 0 .39a.92.92 0 0 0-.182.338.438.438 0 0 1-.026.13v.13c0 .017.017.035.052.052h.078c.052-.035.104-.078.156-.13s.078-.095.078-.13c.035-.173.052-.338.052-.494l.052-.494zm-.65 2.34h.026c.017-.017.035-.026.052-.026l.156-.39c.052-.121.095-.251.13-.39 0-.035-.035-.104-.104-.208a.406.406 0 0 1-.104.078.167.167 0 0 0-.078.078l-.104.312-.052.312c-.017.035-.017.078 0 .13a.41.41 0 0 1 .078.104zm3.458-20.592l-.494.078a5.734 5.734 0 0 0-.494.078v.078l.286.13.364-.13a6.48 6.48 0 0 0 .338-.156v-.078zm-4.394 23.218a.29.29 0 0 1-.13.026l-.104.286c-.017.104.069.2.26.286a1.93 1.93 0 0 0-.026-.312v-.286zm-1.612-21.476a3.05 3.05 0 0 1-.338.078l-.364.052c0 .035.009.06.026.078v.078c.104-.035.217-.052.338-.052a3.05 3.05 0 0 0 .338-.078v-.156zm4.264 14.82c.121-.104.269-.217.442-.338-.173-.035-.303-.035-.39 0-.069.035-.087.147-.052.338zm.52-6.136l.104-.338a2.43 2.43 0 0 0 .13-.312.203.203 0 0 0 .078.026c.017 0 .043.009.078.026l-.234.624h-.078c-.017-.017-.043-.026-.078-.026z" fill="#000"/><path d="M11.028 9.932c3.435 6.872 8.886 27.685 45.296 26.435M3.722 18.677L7.737 1l12.802 7.85" stroke="#000" stroke-linecap="round"/></svg>