<svg width="41" height="42" fill="none" xmlns="http://www.w3.org/2000/svg"><path d="M1.61 30.635v8.12h11.36v-8.12L7.29 27.52l-5.68 3.115z" stroke="#1A2578" stroke-width="1.5" stroke-linecap="round" stroke-linejoin="round"/><path d="M9.381 32.427h-3.96v6.327h3.96v-6.327z" stroke="#1A2578" stroke-width="1.5" stroke-linecap="round" stroke-linejoin="round"/><path d="M20.486 30.875a9.588 9.588 0 1 0 0-19.175 9.588 9.588 0 1 0 0 19.175z" stroke="#BF0830" stroke-width="1.5" stroke-linecap="round" stroke-linejoin="round"/><path d="m14.316 23.163 3.777 3.774 8.754-8.755-1.968-1.968-6.831 6.83-1.792-1.792-1.94 1.91z" stroke="#BF0830" stroke-width="1.5" stroke-linecap="round" stroke-linejoin="round"/><path d="M39.42 2.487h-11.2v10.98h11.2V2.486z" stroke="#1A2578" stroke-width="1.5" stroke-linecap="round" stroke-linejoin="round"/><path d="M35.913 8.813h-4.186v4.653h4.186V8.813zM3.748 21A16.74 16.74 0 0 1 19.153 4.312" stroke="#1A2578" stroke-width="1.5" stroke-linecap="round" stroke-linejoin="round"/><path d="m15.8 9.975-.953-.781 3.85-4.69-4.96-3.498L14.448 0l6.04 4.261L15.8 9.975z" fill="#1A2578"/><path d="M37.228 21a16.74 16.74 0 0 1-15.405 16.688" stroke="#1A2578" stroke-width="1.5" stroke-linecap="round" stroke-linejoin="round"/><path d="m25.176 32.025.953.78-3.85 4.692 4.96 3.497L26.526 42l-6.04-4.261 4.689-5.714z" fill="#1A2578"/></svg>