<?xml version="1.0" encoding="utf-8"?>
<svg viewBox="0 0 500 500" xmlns="http://www.w3.org/2000/svg">
  <path d="M 120.25 428.915 C 100.413 416.504 82.715 401.244 67.789 383.683 C 70.586 379.007 71.769 373.59 71.769 367.606 C 71.769 306.408 71.769 245.214 71.769 184.043 L 71.769 180.224 C 73.15 181.182 73.913 181.826 74.78 182.303 C 89.059 190.165 103.341 198.079 117.714 205.803 C 119.749 206.899 120.143 208.158 120.143 210.149 C 120.105 281.524 120.119 352.927 120.067 424.302 C 120.067 425.865 120.119 427.389 120.25 428.915 Z M 226.472 463.538 C 205.171 461.936 184.718 457.541 165.472 450.711 C 173.248 445.433 177.439 438.414 177.464 429.166 C 177.505 367.051 177.479 304.922 177.479 242.819 L 177.479 238.41 C 182.55 241.345 187.018 244.067 191.602 246.537 C 201.323 251.804 211.058 257.056 220.9 262.084 C 225.064 264.213 226.612 266.847 226.601 271.66 C 226.402 335.627 226.442 399.595 226.472 463.538 Z M 244.52 464.217 C 244.469 464.217 244.43 464.217 244.377 464.217 C 257.817 464.217 271.009 463.084 283.804 460.928 C 283.87 394.972 283.844 328.987 283.804 263.016 C 283.804 256.867 283.884 250.668 283.001 244.633 C 282.488 241.054 280.442 237.554 278.562 234.276 C 275.499 228.972 270.074 226.112 264.805 223.215 C 257.382 219.144 249.934 215.125 242.51 211.056 C 234.379 206.57 226.326 202.009 218.18 197.561 C 207.577 191.803 196.884 186.248 186.347 180.414 C 174.691 173.963 163.212 167.273 151.595 160.759 C 145.934 157.583 140.114 154.61 134.399 151.485 C 123.126 145.375 111.867 139.264 100.647 133.128 C 93.645 129.284 86.695 125.379 79.665 121.573 C 74.542 118.814 69.078 116.547 64.229 113.409 C 63.966 113.234 63.692 113.069 63.402 112.905 C 79.442 92.809 98.992 75.485 121.234 61.765 C 119.317 67.559 119.737 73.709 122.247 79.995 C 124.925 86.736 130.393 91.322 136.804 94.825 C 147.419 100.608 158.153 106.24 168.78 112.037 C 178.687 117.454 188.528 123.012 198.421 128.478 C 207.027 133.253 215.618 138.004 224.263 142.715 C 231.567 146.698 238.924 150.603 246.242 154.559 C 252.062 157.697 257.895 160.795 263.636 164.021 C 269.967 167.586 276.158 171.38 282.528 174.87 C 290.884 179.457 299.358 183.842 307.766 188.35 C 314.348 191.892 320.891 195.495 327.449 199.048 C 330.496 200.699 332.335 202.463 332.309 206.57 C 332.098 277.215 332.178 347.886 332.098 418.532 C 332.098 424.202 332.965 429.405 335.881 434.47 C 337.855 437.872 340.271 440.568 343.043 442.673 C 359.74 434.962 375.294 425.373 389.457 414.159 C 389.618 377.318 389.526 340.466 389.526 303.625 C 389.526 265.109 389.497 226.592 389.537 188.062 C 389.537 183.11 388.645 178.461 386.358 173.912 C 383.784 168.734 379.907 164.827 374.875 162.004 C 366.782 157.457 358.518 153.21 350.387 148.738 C 338.524 142.199 326.764 135.51 314.901 128.996 C 304.299 123.174 293.566 117.556 282.949 111.785 C 269.338 104.389 255.78 96.918 242.209 89.446 C 232.316 84.003 222.461 78.496 212.596 72.99 C 205.265 68.896 197.973 64.75 190.63 60.68 C 185.901 58.061 181.118 55.489 176.336 52.932 C 172.236 50.764 167.873 48.989 164.051 46.454 C 162.03 45.119 159.875 44.124 157.68 43.431 C 182.115 33.781 208.668 28.073 236.494 27.154 C 237.926 28.275 239.487 29.319 241.236 30.278 C 254.413 37.561 267.498 44.994 280.704 52.251 C 289.847 57.278 299.148 62.092 308.333 67.081 C 317.055 71.819 325.687 76.696 334.397 81.445 C 341.794 85.49 349.258 89.383 356.667 93.376 C 362.499 96.527 368.294 99.726 374.075 102.977 C 379.225 105.874 384.257 108.974 389.457 111.795 C 395.792 115.236 402.333 118.31 408.667 121.762 C 417.391 126.512 425.969 131.489 434.652 136.29 C 436.874 137.537 437.952 138.897 437.952 141.707 C 437.806 212.984 437.795 284.246 437.965 355.51 C 437.965 357.147 438.083 358.835 438.306 360.51 C 459.906 327.097 472.399 287.674 472.426 245.479 C 472.426 245.529 472.426 245.565 472.426 245.617 C 472.438 366.357 370.382 464.217 244.52 464.217 Z" fill="#D60936" style=""/>
  <path d="M 67.606 383.997 C 35.351 346.248 15.987 297.955 15.987 245.34 C 15.987 195.395 33.433 149.356 62.81 112.515 C 63.02 112.641 63.232 112.767 63.442 112.905 C 34.064 149.697 16.604 195.71 16.604 245.641 C 16.604 297.991 35.786 346.046 67.802 383.683 C 67.752 383.796 67.685 383.884 67.606 383.997 Z M 165.339 450.787 C 149.403 445.155 134.334 437.884 120.288 429.166 C 120.288 429.078 120.261 428.991 120.261 428.915 C 134.334 437.695 149.48 445.041 165.456 450.711 C 165.443 450.724 165.379 450.763 165.339 450.787 Z M 244.206 464.217 C 238.241 464.217 232.316 463.991 226.456 463.576 L 226.456 463.549 C 232.37 463.991 238.334 464.23 244.363 464.23 C 244.326 464.217 244.272 464.217 244.206 464.217 Z" fill="#E3E3E3" style=""/>
  <path d="M 244.377 464.217 C 238.345 464.217 232.383 463.978 226.472 463.538 C 226.442 399.595 226.402 335.627 226.612 271.66 C 226.641 266.86 225.091 264.227 220.912 262.084 C 211.058 257.032 201.35 251.79 191.626 246.537 C 187.029 244.042 182.577 241.331 177.505 238.41 L 177.505 242.819 C 177.505 304.922 177.518 367.037 177.491 429.166 C 177.491 438.414 173.299 445.433 165.508 450.7 C 149.507 445.029 134.373 437.683 120.288 428.901 C 120.156 427.378 120.105 425.853 120.105 424.29 C 120.156 352.913 120.143 281.513 120.183 210.135 C 120.183 208.133 119.802 206.886 117.754 205.789 C 103.38 198.065 89.112 190.153 74.818 182.279 C 73.953 181.8 73.19 181.158 71.809 180.213 L 71.809 184.031 C 71.809 245.214 71.809 306.396 71.809 367.592 C 71.809 373.577 70.627 378.982 67.828 383.67 C 35.826 346.035 16.631 297.968 16.631 245.628 C 16.631 195.696 34.079 149.697 63.453 112.88 C 63.716 113.045 63.979 113.234 64.269 113.397 C 69.13 116.534 74.582 118.814 79.719 121.561 C 86.735 125.367 93.683 129.272 100.687 133.102 C 111.894 139.277 123.14 145.375 134.399 151.485 C 140.114 154.598 145.907 157.559 151.584 160.759 C 163.197 167.273 174.667 173.963 186.32 180.414 C 196.871 186.248 207.577 191.803 218.167 197.561 C 226.313 202.009 234.364 206.57 242.499 211.056 C 249.922 215.152 257.371 219.144 264.794 223.215 C 270.074 226.112 275.488 228.985 278.549 234.276 C 280.427 237.554 282.463 241.031 282.988 244.633 C 283.87 250.68 283.791 256.894 283.791 263.016 C 283.831 328.987 283.844 394.972 283.791 460.928 C 271.009 463.084 257.83 464.206 244.377 464.217 Z" fill="#BF0830" style=""/>
  <path d="M 121.274 61.739 C 121.392 61.374 121.524 61.034 121.655 60.655 C 132.717 53.89 144.421 48.017 156.667 43.143 C 157.036 43.229 157.377 43.344 157.745 43.443 C 144.961 48.509 132.757 54.657 121.274 61.739 Z" fill="#E3E3E3" style=""/>
  <path d="M 343.068 442.673 C 340.284 440.581 337.866 437.884 335.921 434.47 C 332.992 429.405 332.125 424.177 332.125 418.532 C 332.202 347.861 332.113 277.215 332.335 206.57 C 332.363 202.463 330.523 200.699 327.473 199.048 C 320.919 195.471 314.375 191.88 307.794 188.339 C 299.398 183.828 290.898 179.444 282.557 174.844 C 276.184 171.343 270.007 167.55 263.676 164.01 C 257.908 160.771 252.075 157.672 246.282 154.535 C 238.95 150.591 231.607 146.684 224.288 142.704 C 215.671 137.991 207.052 133.229 198.446 128.465 C 188.566 122.998 178.74 117.44 168.807 112.023 C 158.193 106.228 147.459 100.608 136.828 94.812 C 130.417 91.322 124.952 86.723 122.273 79.984 C 119.763 73.695 119.344 67.522 121.261 61.739 C 132.744 54.646 144.95 48.509 157.732 43.47 C 159.927 44.187 162.055 45.171 164.104 46.52 C 167.926 49.051 172.289 50.816 176.388 52.995 C 181.172 55.539 185.925 58.11 190.681 60.731 C 198 64.813 205.316 68.959 212.635 73.053 C 222.515 78.559 232.37 84.053 242.261 89.509 C 255.82 96.98 269.391 104.426 282.988 111.834 C 293.618 117.619 304.353 123.237 314.953 129.046 C 326.804 135.559 338.576 142.262 350.44 148.789 C 358.571 153.273 366.834 157.507 374.928 162.057 C 379.959 164.892 383.824 168.797 386.41 173.974 C 388.669 178.498 389.591 183.149 389.591 188.099 C 389.551 226.616 389.566 265.133 389.566 303.663 C 389.566 340.504 389.682 377.357 389.511 414.198 C 375.334 425.373 359.78 434.974 343.068 442.673 Z" fill="#BF0830" style=""/>
  <path d="M 472.438 245.49 C 472.346 124.85 370.342 27.066 244.52 27.066 C 241.841 27.066 239.187 27.102 236.519 27.191 C 236.284 27.015 236.046 26.814 235.824 26.613 C 238.608 26.511 241.408 26.46 244.221 26.46 C 370.265 26.46 472.438 124.446 472.438 245.326 C 472.438 245.389 472.438 245.44 472.438 245.49 Z" fill="#E3E3E3" style=""/>
  <path d="M 438.306 360.524 C 438.069 358.848 437.965 357.159 437.965 355.534 C 437.806 284.26 437.831 212.996 437.938 141.72 C 437.938 138.924 436.887 137.562 434.652 136.327 C 425.969 131.528 417.391 126.539 408.667 121.801 C 402.333 118.349 395.803 115.262 389.457 111.834 C 384.257 109.026 379.225 105.913 374.075 103.028 C 368.294 99.776 362.499 96.59 356.667 93.427 C 349.258 89.432 341.781 85.526 334.384 81.507 C 325.687 76.759 317.043 71.868 308.333 67.132 C 299.148 62.141 289.872 57.342 280.704 52.314 C 267.498 45.044 254.413 37.611 241.236 30.327 C 239.503 29.372 237.926 28.325 236.48 27.204 C 239.148 27.115 241.801 27.078 244.482 27.078 C 370.305 27.078 472.321 124.863 472.399 245.515 C 472.399 287.7 459.93 327.109 438.306 360.524 Z" fill="#BF0830" style=""/>
  <path d="M 204.162 165.633 C 213.083 165.633 221.843 166.844 230.451 169.238 C 239.044 171.644 246.505 175.236 252.825 180.048 C 259.34 175.878 266.71 172.424 274.87 169.718 C 283.028 166.995 292.87 165.633 304.431 165.633 C 312.693 165.633 320.799 166.68 328.748 168.773 C 336.684 170.864 343.766 174.152 349.967 178.65 C 356.168 183.149 361.121 189.094 364.813 196.503 C 368.504 203.911 370.357 212.946 370.357 223.579 L 370.357 322.235 C 368.177 322.853 364.747 323.48 360.07 324.098 C 355.379 324.73 350.532 325.043 345.537 325.043 C 340.744 325.043 336.448 324.73 332.651 324.098 C 328.841 323.48 325.622 322.235 323.006 320.345 C 320.407 318.454 318.37 315.897 316.949 312.671 C 315.546 309.446 314.836 305.199 314.836 299.997 L 314.836 225.142 C 314.836 218.892 312.983 214.331 309.278 211.509 C 305.573 208.7 300.581 207.289 294.262 207.289 C 291.2 207.289 287.955 207.969 284.473 209.33 C 280.991 210.69 278.363 212.101 276.617 213.551 C 276.84 214.394 276.946 215.164 276.946 215.894 L 276.946 217.935 L 276.946 322.208 C 274.556 322.839 271.02 323.456 266.331 324.086 C 261.64 324.703 256.911 325.018 252.129 325.018 C 247.344 325.018 243.05 324.703 239.239 324.086 C 235.43 323.456 232.209 322.208 229.61 320.318 C 226.996 318.428 224.986 315.883 223.565 312.658 C 222.146 309.419 221.437 305.186 221.437 299.971 L 221.437 225.128 C 221.437 218.868 219.428 214.319 215.394 211.496 C 211.361 208.687 206.514 207.276 200.877 207.276 C 196.949 207.276 193.587 207.843 190.747 209.001 C 187.922 210.149 185.532 211.232 183.56 212.279 L 183.56 322.196 C 181.381 322.813 177.951 323.444 173.288 324.062 C 168.597 324.691 163.75 325.005 158.758 325.005 C 153.961 325.005 149.679 324.691 145.869 324.062 C 142.057 323.444 138.84 322.196 136.239 320.306 C 133.636 318.417 131.615 315.859 130.194 312.634 C 128.775 309.408 128.068 305.162 128.068 299.958 L 128.068 205.386 C 128.068 199.754 129.315 195.257 131.825 191.916 C 134.307 188.578 137.75 185.441 142.097 182.517 C 149.507 177.516 158.704 173.433 169.688 170.296 C 180.712 167.223 192.191 165.633 204.162 165.633 Z" fill="white" style=""/>
</svg>