<svg viewBox="0 0 500 500" xmlns="http://www.w3.org/2000/svg"><path d="M120.25 428.915c-19.837-12.411-37.535-27.671-52.461-45.232 2.797-4.676 3.98-10.093 3.98-16.077V180.224c1.381.958 2.144 1.602 3.011 2.079 14.279 7.862 28.561 15.776 42.934 23.5 2.035 1.096 2.429 2.355 2.429 4.346-.038 71.375-.024 142.778-.076 214.153 0 1.563.052 3.087.183 4.613zm106.222 34.623c-21.301-1.602-41.754-5.997-61-12.827 7.776-5.278 11.967-12.297 11.992-21.545.041-62.115.015-124.244.015-186.347v-4.409c5.071 2.935 9.539 5.657 14.123 8.127 9.721 5.267 19.456 10.519 29.298 15.547 4.164 2.129 5.712 4.763 5.701 9.576-.199 63.967-.159 127.935-.129 191.878zm18.048.679h-.143a237.33 237.33 0 0 0 39.427-3.289c.066-65.956.04-131.941 0-197.912 0-6.149.08-12.348-.803-18.383-.513-3.579-2.559-7.079-4.439-10.357-3.063-5.304-8.488-8.164-13.757-11.061-7.423-4.071-14.871-8.09-22.295-12.159-8.131-4.486-16.184-9.047-24.33-13.495-10.603-5.758-21.296-11.313-31.833-17.147-11.656-6.451-23.135-13.141-34.752-19.655-5.661-3.176-11.481-6.149-17.196-9.274a10216.54 10216.54 0 0 1-33.752-18.357c-7.002-3.844-13.952-7.749-20.982-11.555-5.123-2.759-10.587-5.026-15.436-8.164-.263-.175-.537-.34-.827-.504 16.04-20.096 35.59-37.42 57.832-51.14-1.917 5.794-1.497 11.944 1.013 18.23 2.678 6.741 8.146 11.327 14.557 14.83 10.615 5.783 21.349 11.415 31.976 17.212 9.907 5.417 19.748 10.975 29.641 16.441a3875.367 3875.367 0 0 0 25.842 14.237c7.304 3.983 14.661 7.888 21.979 11.844 5.82 3.138 11.653 6.236 17.394 9.462 6.331 3.565 12.522 7.359 18.892 10.849 8.356 4.587 16.83 8.972 25.238 13.48 6.582 3.542 13.125 7.145 19.683 10.698 3.047 1.651 4.886 3.415 4.86 7.522-.211 70.645-.131 141.316-.211 211.962 0 5.67.867 10.873 3.783 15.938 1.974 3.402 4.39 6.098 7.162 8.203a230.231 230.231 0 0 0 46.414-28.514c.161-36.841.069-73.693.069-110.534 0-38.516-.029-77.033.011-115.563 0-4.952-.892-9.601-3.179-14.15-2.574-5.178-6.451-9.085-11.483-11.908-8.093-4.547-16.357-8.794-24.488-13.266-11.863-6.539-23.623-13.228-35.486-19.742-10.602-5.822-21.335-11.44-31.952-17.211-13.611-7.396-27.169-14.867-40.74-22.339-9.893-5.443-19.748-10.95-29.613-16.456-7.331-4.094-14.623-8.24-21.966-12.31-4.729-2.619-9.512-5.191-14.294-7.748-4.1-2.168-8.463-3.943-12.285-6.478a25.44 25.44 0 0 0-6.371-3.023c24.435-9.65 50.988-15.358 78.814-16.277a34.749 34.749 0 0 0 4.742 3.124c13.177 7.283 26.262 14.716 39.468 21.973 9.143 5.027 18.444 9.841 27.629 14.83 8.722 4.738 17.354 9.615 26.064 14.364 7.397 4.045 14.861 7.938 22.27 11.931 5.832 3.151 11.627 6.35 17.408 9.601 5.15 2.897 10.182 5.997 15.382 8.818 6.335 3.441 12.876 6.515 19.21 9.967 8.724 4.75 17.302 9.727 25.985 14.528 2.222 1.247 3.3 2.607 3.3 5.417-.146 71.277-.157 142.539.013 213.803 0 1.637.118 3.325.341 5 21.6-33.413 34.093-72.836 34.12-115.031v.138c.012 120.74-102.044 218.6-227.906 218.6z" fill="#D60936"/><path d="M67.606 383.997c-32.255-37.749-51.619-86.042-51.619-138.657 0-49.945 17.446-95.984 46.823-132.825.21.126.422.252.632.39-29.378 36.792-46.838 82.805-46.838 132.736 0 52.35 19.182 100.405 51.198 138.042-.05.113-.117.201-.196.314zm97.733 66.79a231.881 231.881 0 0 1-45.051-21.621c0-.088-.027-.175-.027-.251a231.997 231.997 0 0 0 45.195 21.796 1.156 1.156 0 0 1-.117.076zm78.867 13.43c-5.965 0-11.89-.226-17.75-.641v-.027c5.914.442 11.878.681 17.907.681-.037-.013-.091-.013-.157-.013z" fill="#E3E3E3"/><path d="M244.377 464.217c-6.032 0-11.994-.239-17.905-.679-.03-63.943-.07-127.911.14-191.878.029-4.8-1.521-7.433-5.7-9.576-9.854-5.052-19.562-10.294-29.286-15.547-4.597-2.495-9.049-5.206-14.121-8.127v4.409c0 62.103.013 124.218-.014 186.347 0 9.248-4.192 16.267-11.983 21.534a231.804 231.804 0 0 1-45.22-21.799 53.2 53.2 0 0 1-.183-4.611c.051-71.377.038-142.777.078-214.155 0-2.002-.381-3.249-2.429-4.346-14.374-7.724-28.642-15.636-42.936-23.51-.865-.479-1.628-1.121-3.009-2.066V367.592c0 5.985-1.182 11.39-3.981 16.078-32.002-37.635-51.197-85.702-51.197-138.042 0-49.932 17.448-95.931 46.822-132.748.263.165.526.354.816.517 4.861 3.137 10.313 5.417 15.45 8.164 7.016 3.806 13.964 7.711 20.968 11.541 11.207 6.175 22.453 12.273 33.712 18.383 5.715 3.113 11.508 6.074 17.185 9.274 11.613 6.514 23.083 13.204 34.736 19.655 10.551 5.834 21.257 11.389 31.847 17.147 8.146 4.448 16.197 9.009 24.332 13.495 7.423 4.096 14.872 8.088 22.295 12.159 5.28 2.897 10.694 5.77 13.755 11.061 1.878 3.278 3.914 6.755 4.439 10.357.882 6.047.803 12.261.803 18.383.04 65.971.053 131.956 0 197.912-12.782 2.156-25.961 3.278-39.414 3.289z" fill="#BF0830"/><path d="M121.274 61.739c.118-.365.25-.705.381-1.084a230.427 230.427 0 0 1 35.012-17.512c.369.086.71.201 1.078.3a233.097 233.097 0 0 0-36.471 18.296z" fill="#E3E3E3"/><path d="M343.068 442.673c-2.784-2.092-5.202-4.789-7.147-8.203-2.929-5.065-3.796-10.293-3.796-15.938.077-70.671-.012-141.317.21-211.962.028-4.107-1.812-5.871-4.862-7.522-6.554-3.577-13.098-7.168-19.679-10.709-8.396-4.511-16.896-8.895-25.237-13.495-6.373-3.501-12.55-7.294-18.881-10.834-5.768-3.239-11.601-6.338-17.394-9.475-7.332-3.944-14.675-7.851-21.994-11.831a5806.445 5806.445 0 0 1-25.842-14.239c-9.88-5.467-19.706-11.025-29.639-16.442-10.614-5.795-21.348-11.415-31.979-17.211-6.411-3.49-11.876-8.089-14.555-14.828-2.51-6.289-2.929-12.462-1.012-18.245a229.8 229.8 0 0 1 36.471-18.269 26.388 26.388 0 0 1 6.372 3.05c3.822 2.531 8.185 4.296 12.284 6.475 4.784 2.544 9.537 5.115 14.293 7.736 7.319 4.082 14.635 8.228 21.954 12.322 9.88 5.506 19.735 11 29.626 16.456a9781.383 9781.383 0 0 0 40.727 22.325c10.63 5.785 21.365 11.403 31.965 17.212 11.851 6.513 23.623 13.216 35.487 19.743 8.131 4.484 16.394 8.718 24.488 13.268 5.031 2.835 8.896 6.74 11.482 11.917 2.259 4.524 3.181 9.175 3.181 14.125-.04 38.517-.025 77.034-.025 115.564 0 36.841.116 73.694-.055 110.535a231.482 231.482 0 0 1-46.443 28.475z" fill="#BF0830"/><path d="M472.438 245.49C472.346 124.85 370.342 27.066 244.52 27.066c-2.679 0-5.333.036-8.001.125a9.897 9.897 0 0 1-.695-.578c2.784-.102 5.584-.153 8.397-.153 126.044 0 228.217 97.986 228.217 218.866v.164z" fill="#E3E3E3"/><path d="M438.306 360.524a35.833 35.833 0 0 1-.341-4.99c-.159-71.274-.134-142.538-.027-213.814 0-2.796-1.051-4.158-3.286-5.393-8.683-4.799-17.261-9.788-25.985-14.526-6.334-3.452-12.864-6.539-19.21-9.967-5.2-2.808-10.232-5.921-15.382-8.806a1284.49 1284.49 0 0 0-17.408-9.601c-7.409-3.995-14.886-7.901-22.283-11.92-8.697-4.748-17.341-9.639-26.051-14.375-9.185-4.991-18.461-9.79-27.629-14.818-13.206-7.27-26.291-14.703-39.468-21.987a36.462 36.462 0 0 1-4.756-3.123c2.668-.089 5.321-.126 8.002-.126 125.823 0 227.839 97.785 227.917 218.437 0 42.185-12.469 81.594-34.093 115.009z" fill="#BF0830"/><path d="M204.162 165.633a97.665 97.665 0 0 1 26.289 3.605c8.593 2.406 16.054 5.998 22.374 10.81 6.515-4.17 13.885-7.624 22.045-10.33 8.158-2.723 18-4.085 29.561-4.085a95.107 95.107 0 0 1 24.317 3.14c7.936 2.091 15.018 5.379 21.219 9.877 6.201 4.499 11.154 10.444 14.846 17.853 3.691 7.408 5.544 16.443 5.544 27.076v98.656c-2.18.618-5.61 1.245-10.287 1.863-4.691.632-9.538.945-14.533.945-4.793 0-9.089-.313-12.886-.945-3.81-.618-7.029-1.863-9.645-3.753-2.599-1.891-4.636-4.448-6.057-7.674-1.403-3.225-2.113-7.472-2.113-12.674v-74.855c0-6.25-1.853-10.811-5.558-13.633-3.705-2.809-8.697-4.22-15.016-4.22-3.062 0-6.307.68-9.789 2.041-3.482 1.36-6.11 2.771-7.856 4.221.223.843.329 1.613.329 2.343v106.314c-2.39.631-5.926 1.248-10.615 1.878-4.691.617-9.42.932-14.202.932-4.785 0-9.079-.315-12.89-.932-3.809-.63-7.03-1.878-9.629-3.768-2.614-1.89-4.624-4.435-6.045-7.66-1.419-3.239-2.128-7.472-2.128-12.687v-74.843c0-6.26-2.009-10.809-6.043-13.632-4.033-2.809-8.88-4.22-14.517-4.22-3.928 0-7.29.567-10.13 1.725-2.825 1.148-5.215 2.231-7.187 3.278v109.917c-2.179.617-5.609 1.248-10.272 1.866-4.691.629-9.538.943-14.53.943-4.797 0-9.079-.314-12.889-.943-3.812-.618-7.029-1.866-9.63-3.756-2.603-1.889-4.624-4.447-6.045-7.672-1.419-3.226-2.126-7.472-2.126-12.676v-94.572c0-5.632 1.247-10.129 3.757-13.47 2.482-3.338 5.925-6.475 10.272-9.399 7.41-5.001 16.607-9.084 27.591-12.221 11.024-3.073 22.503-4.663 34.474-4.663z" fill="#fff"/></svg>