<svg width="286" height="179" viewBox="0 0 286 179" fill="none" xmlns="http://www.w3.org/2000/svg">
<g filter="url(#filter0_dd_1_258181)">
<rect x="35" width="251" height="119" rx="8" fill="white"/>
<g clip-path="url(#clip0_1_258181)">
<path d="M99.5 66.4V73.6C99.5 74.5 99.7 75.2 100.1 75.7C100.5 76.2 101.1 76.5 101.7 76.5H104.6V78.2H101.8C100.7 78.2 99.7 77.8 98.9 77C98.1 76.2 97.7 75.1 97.7 73.6V66.4C97.7 65.1 97.5 63.8 97 62.7C96.6 61.6 96 60.7 95.3 60C94.6 59.3 93.7 58.7 92.8 58.3C91.9 57.9 90.9 57.7 89.8 57.7H88V56H89.9C91.2 56 92.4 56.2 93.5 56.7C94.7 57.2 95.7 57.8 96.6 58.7C97.5 59.6 98.2 60.7 98.7 62C99.3 63.4 99.5 64.8 99.5 66.4ZM96.1 66.4V73.6C96.1 75.6 96.7 77.1 97.8 78.2C98.9 79.3 100.3 79.9 101.9 79.9H104.7V81.6H101.9C99.8 81.6 98 80.9 96.6 79.4C95.1 78 94.4 76 94.4 73.6V66.4C94.4 64.7 94 63.4 93.2 62.5C92.4 61.6 91.3 61.1 90 61.1H88V59.4H89.9C91.6 59.4 93.1 60 94.3 61.3C95.5 62.5 96.1 64.2 96.1 66.4ZM92.7 66.4V73.6C92.7 76.5 93.6 78.9 95.4 80.6C97.2 82.4 99.4 83.3 101.9 83.3H104.8V85H102C100.1 85 98.3 84.5 96.6 83.6C94.9 82.7 93.6 81.4 92.6 79.6C91.6 77.8 91.1 75.8 91.1 73.5V66.3C91.1 65.6 91 65.1 90.8 64.9C90.6 64.7 90.3 64.5 89.9 64.5H88V62.8H89.8C90.6 62.8 91.3 63.1 91.8 63.7C92.4 64.3 92.7 65.2 92.7 66.4ZM92.6 55.3L90.9 55.1C90.9 54.8 91 54.5 91 54.2V45C91 42.7 91.5 40.7 92.5 38.9C93.5 37.1 94.9 35.8 96.5 34.9C98.1 34 99.9 33.5 101.9 33.5H104.7V35.2H101.8C99.3 35.2 97.1 36.1 95.3 37.9C93.5 39.7 92.6 42 92.6 44.9V54.1C92.7 54.6 92.6 55 92.6 55.3ZM95.7 56.7L94.1 55.9C94.3 55.1 94.3 54.5 94.3 54.2V45C94.3 42.6 95 40.6 96.5 39.2C98 37.8 99.7 37 101.8 37H104.6V38.7H101.8C100.2 38.7 98.8 39.3 97.7 40.4C96.6 41.5 96.1 43.1 96.1 45V54.2C96.1 55 96 55.8 95.7 56.7ZM98.5 59.1L97.2 57.8C97.6 56.7 97.8 55.5 97.8 54.2V45C97.8 43.6 98.2 42.5 99 41.6C99.8 40.9 100.7 40.5 101.9 40.5H104.7V42.2H101.8C101.1 42.2 100.6 42.5 100.2 43C99.8 43.5 99.6 44.2 99.6 45.1V54.3C99.5 56 99.2 57.6 98.5 59.1Z" fill="black"/>
<path d="M146.5 47.2L145 48.1C143.2 45.4 140.9 43.4 138 41.8C135.1 40.3 132 39.5 128.7 39.5C126 39.5 123.5 40 121 41.1C118.6 42.1 116.5 43.5 114.7 45.3C112.9 47.1 111.5 49.2 110.5 51.6C109.5 54 108.9 56.6 108.9 59.3C108.9 62 109.4 64.5 110.5 67C111.5 69.4 112.9 71.5 114.7 73.3C116.5 75.1 118.6 76.5 121 77.5C123.4 78.5 126 79.1 128.7 79.1C132 79.1 135.1 78.3 138 76.8C140.9 75.2 143.2 73.1 145 70.5L146.4 71.5C144.4 74.4 141.9 76.6 138.8 78.3C135.7 80 132.3 80.8 128.7 80.8C125.8 80.8 123 80.2 120.4 79.1C117.8 78 115.5 76.4 113.6 74.5C111.7 72.6 110.2 70.3 109 67.7C107.9 65.1 107.3 62.3 107.3 59.4C107.3 56.5 107.9 53.7 109 51.1C110.1 48.5 111.7 46.2 113.6 44.3C115.5 42.4 117.8 40.9 120.4 39.7C123 38.5 125.8 38 128.7 38C132.3 38 135.7 38.8 138.8 40.5C142 42 144.5 44.3 146.5 47.2ZM143.7 49.2L142.3 50.1C140.8 47.9 138.9 46.2 136.5 44.9C134.1 43.6 131.6 43 128.8 43C126.6 43 124.5 43.4 122.5 44.3C120.5 45.2 118.8 46.3 117.3 47.8C115.8 49.3 114.7 51 113.8 53C112.9 55 112.5 57.1 112.5 59.3C112.5 61.5 112.9 63.6 113.8 65.6C114.7 67.6 115.8 69.4 117.3 70.8C118.8 72.3 120.5 73.4 122.5 74.3C124.5 75.2 126.6 75.6 128.8 75.6C131.6 75.6 134.1 75 136.5 73.7C138.9 72.4 140.8 70.7 142.3 68.5L143.7 69.5C142 71.9 139.9 73.8 137.3 75.2C134.7 76.6 131.9 77.3 128.8 77.3C125.5 77.3 122.5 76.5 119.8 74.9C117 73.3 114.9 71.1 113.2 68.3C111.6 65.5 110.8 62.5 110.8 59.3C110.8 56.1 111.6 53 113.2 50.3C114.8 47.5 117 45.4 119.8 43.7C122.6 42.1 125.6 41.3 128.8 41.3C131.8 41.3 134.7 42 137.3 43.4C139.9 44.8 142 46.7 143.7 49.2ZM140.8 51.1L139.4 52C138.2 50.3 136.7 48.9 134.8 47.9C132.9 46.9 130.9 46.4 128.7 46.4C126.4 46.4 124.2 47 122.2 48.1C120.2 49.3 118.7 50.8 117.5 52.8C116.3 54.8 115.8 56.9 115.8 59.3C115.8 61.6 116.4 63.8 117.5 65.8C118.6 67.8 120.2 69.3 122.2 70.5C124.2 71.7 126.3 72.2 128.7 72.2C130.9 72.2 132.9 71.7 134.8 70.7C136.7 69.7 138.2 68.3 139.4 66.6L140.8 67.6C139.5 69.6 137.7 71.1 135.6 72.3C133.5 73.4 131.2 74 128.7 74C126.1 74 123.6 73.3 121.4 72C119.2 70.7 117.4 68.9 116.1 66.7C114.8 64.5 114.1 62 114.1 59.4C114.1 56.8 114.8 54.3 116.1 52.1C117.4 49.9 119.2 48.1 121.4 46.8C123.6 45.5 126.1 44.8 128.7 44.8C131.2 44.8 133.5 45.4 135.6 46.5C137.7 47.6 139.5 49.1 140.8 51.1ZM138 53L136.6 53.9C135.7 52.6 134.6 51.6 133.3 50.9C132 50.2 130.4 49.8 128.8 49.8C126.2 49.8 124 50.7 122.1 52.6C120.3 54.4 119.3 56.7 119.3 59.3C119.3 61.9 120.2 64.1 122.1 66C123.9 67.8 126.2 68.8 128.8 68.8C130.4 68.8 131.9 68.4 133.3 67.7C134.7 67 135.8 65.9 136.6 64.7L138 65.7C137 67.2 135.7 68.4 134 69.2C132.4 70.1 130.6 70.5 128.8 70.5C127.3 70.5 125.9 70.2 124.5 69.6C123.1 69 121.9 68.2 120.9 67.2C119.9 66.2 119.1 65 118.5 63.6C117.9 62.2 117.6 60.8 117.6 59.3C117.6 57.8 117.9 56.4 118.5 55C119.1 53.6 119.9 52.4 120.9 51.4C121.9 50.4 123.1 49.6 124.5 49C125.9 48.4 127.3 48.1 128.8 48.1C130.7 48.1 132.4 48.5 134.1 49.4C135.6 50.3 137 51.5 138 53Z" fill="black"/>
<path d="M165.7 55.0002H162.8C161.6 55.0002 160.7 54.7002 160.2 54.1002C159.7 53.5002 159.4 52.6002 159.4 51.6002C159.4 49.3002 161.1 48.2002 164.5 48.2002C167.7 48.2002 170.1 48.7002 171.7 49.6002L170.3 50.6002C169.2 50.1002 167.2 49.8002 164.4 49.8002C163 49.8002 162.1 50.0002 161.6 50.3002C161.2 50.6002 161 51.0002 161 51.5002C161 52.0002 161.1 52.5002 161.4 52.8002C161.7 53.1002 162.1 53.3002 162.8 53.3002H165.8C167.9 53.3002 169.9 53.7002 171.6 54.4002C173.3 55.1002 174.7 56.1002 175.8 57.4002C176.9 58.7002 177.8 60.1002 178.3 61.8002C178.9 63.4002 179.2 65.2002 179.2 67.1002C179.2 68.6002 179 70.1002 178.6 71.4002C178.2 72.8002 177.5 74.0002 176.7 75.2002C175.8 76.3002 174.8 77.3002 173.6 78.2002C172.4 79.0002 170.9 79.7002 169.3 80.2002C167.6 80.7002 165.8 80.9002 163.9 80.9002C160.8 80.9002 158 80.4002 155.3 79.5002C152.6 78.6002 150.4 77.3002 148.6 75.6002L150 74.6002C151.6 76.1002 153.6 77.2002 156.1 78.0002C158.5 78.8002 161.1 79.2002 163.9 79.2002C166.1 79.2002 168 78.9002 169.8 78.3002C171.6 77.7002 173 76.8002 174.1 75.7002C175.2 74.6002 176.1 73.3002 176.7 71.9002C177.3 70.5002 177.6 68.9002 177.6 67.2002C177.6 65.0002 177.2 63.0002 176.3 61.2002C175.4 59.4002 174.1 58.0002 172.2 56.9002C170.3 55.8002 168.2 55.0002 165.7 55.0002ZM162.8 63.5002H165.4C166.6 63.5002 167.5 63.8002 168 64.5002C168.5 65.1002 168.8 66.0002 168.8 67.0002C168.8 69.3002 167.1 70.4002 163.7 70.4002C160.5 70.4002 158.1 69.9002 156.4 69.0002L157.8 68.0002C158.9 68.5002 160.9 68.8002 163.7 68.8002C165.1 68.8002 166 68.6002 166.5 68.3002C167 68.0002 167.2 67.6002 167.2 67.0002C167.2 66.5002 167.1 66.1002 166.8 65.7002C166.5 65.4002 166.1 65.2002 165.4 65.2002H162.8C160.6 65.2002 158.6 64.8002 156.9 64.1002C155.1 63.4002 153.7 62.4002 152.5 61.1002C151.4 59.8002 150.5 58.4002 149.9 56.7002C149.3 55.2002 149 53.5002 149 51.5002C149 50.0002 149.2 48.5002 149.6 47.2002C150 45.8002 150.7 44.6002 151.5 43.4002C152.4 42.3002 153.4 41.3002 154.6 40.4002C155.8 39.5002 157.3 38.9002 158.9 38.4002C160.5 37.9002 162.4 37.7002 164.3 37.7002C167.4 37.7002 170.2 38.2002 172.9 39.1002C175.6 40.0002 177.8 41.3002 179.6 43.0002L178.2 44.0002C176.6 42.5002 174.6 41.4002 172.1 40.6002C169.7 39.8002 167.1 39.4002 164.3 39.4002C162.1 39.4002 160.2 39.7002 158.4 40.3002C156.6 40.9002 155.2 41.8002 154.1 42.9002C153 44.0002 152.1 45.3002 151.5 46.7002C150.9 48.1002 150.6 49.7002 150.6 51.4002C150.6 53.6002 151.1 55.7002 152 57.4002C152.9 59.2002 154.3 60.6002 156.1 61.7002C158.1 63.0002 160.3 63.5002 162.8 63.5002ZM162.8 56.7002H165.5C168.7 56.7002 171.2 57.7002 173.1 59.7002C174.9 61.7002 175.8 64.1002 175.8 67.0002C175.8 70.0002 174.7 72.4002 172.6 74.4002C170.5 76.4002 167.5 77.3002 163.7 77.3002C161.2 77.3002 158.8 77.0002 156.6 76.3002C154.4 75.6002 152.6 74.6002 151.1 73.3002L152.4 72.2002C153.7 73.3002 155.3 74.1002 157.3 74.7002C159.3 75.3002 161.4 75.6002 163.7 75.6002C167 75.6002 169.6 74.8002 171.4 73.2002C173.2 71.6002 174.1 69.5002 174.1 67.0002C174.1 64.5002 173.4 62.5002 171.9 60.9002C170.4 59.3002 168.3 58.5002 165.5 58.5002H162.8C160.5 58.5002 158.7 57.9002 157.6 56.6002C156.5 55.3002 155.9 53.7002 155.9 51.6002C155.9 49.5002 156.6 47.9002 158.1 46.6002C159.5 45.3002 161.7 44.7002 164.6 44.7002C166.6 44.7002 168.5 44.9002 170.2 45.4002C171.9 45.9002 173.4 46.5002 174.5 47.4002L173 48.5002C171 47.1002 168.2 46.5002 164.5 46.5002C162.1 46.5002 160.4 47.0002 159.3 47.9002C158.2 48.8002 157.6 50.1002 157.6 51.6002C157.6 53.2002 158 54.4002 158.8 55.3002C159.6 56.2002 160.9 56.7002 162.8 56.7002ZM162.8 60.1002H165.4C167.7 60.1002 169.5 60.7002 170.6 62.0002C171.8 63.3002 172.3 64.9002 172.3 66.9002C172.3 68.9002 171.6 70.6002 170.1 71.9002C168.7 73.2002 166.5 73.8002 163.6 73.8002C161.6 73.8002 159.7 73.6002 158 73.1002C156.3 72.6002 154.8 72.0002 153.7 71.1002L155.1 70.1002C157.1 71.5002 159.9 72.1002 163.7 72.1002C166.1 72.1002 167.8 71.6002 168.9 70.7002C170 69.8002 170.6 68.5002 170.6 67.0002C170.6 65.5002 170.2 64.2002 169.4 63.3002C168.6 62.4002 167.2 61.9002 165.4 61.9002H162.8C159.5 61.9002 157 60.9002 155.2 59.0002C153.4 57.1002 152.5 54.6002 152.5 51.6002C152.5 48.6002 153.6 46.2002 155.7 44.2002C157.8 42.3002 160.8 41.3002 164.6 41.3002C167.1 41.3002 169.5 41.6002 171.7 42.3002C173.9 43.0002 175.7 44.0002 177.2 45.3002L175.9 46.4002C174.6 45.3002 173 44.5002 171 43.9002C169 43.3002 166.9 43.0002 164.6 43.0002C161.3 43.0002 158.7 43.8002 156.9 45.4002C155.1 47.0002 154.2 49.1002 154.2 51.6002C154.2 54.1002 154.9 56.1002 156.4 57.8002C157.9 59.3002 160 60.1002 162.8 60.1002Z" fill="black"/>
<path d="M198.9 54.9996H196C194.8 54.9996 193.9 54.6996 193.4 54.0996C192.9 53.4996 192.6 52.5996 192.6 51.5996C192.6 49.2996 194.3 48.1996 197.7 48.1996C200.9 48.1996 203.3 48.6996 204.9 49.5996L203.5 50.5996C202.4 50.0996 200.4 49.7996 197.6 49.7996C196.2 49.7996 195.3 49.9996 194.8 50.2996C194.3 50.5996 194.1 50.9996 194.1 51.5996C194.1 52.1996 194.2 52.5996 194.5 52.8996C194.8 53.1996 195.2 53.3996 195.9 53.3996H198.9C201 53.3996 203 53.7996 204.7 54.4996C206.4 55.1996 207.8 56.1996 208.9 57.4996C210 58.7996 210.9 60.1996 211.4 61.8996C212 63.4996 212.3 65.2996 212.3 67.1996C212.3 68.6996 212.1 70.1996 211.7 71.4996C211.3 72.8996 210.6 74.0996 209.8 75.2996C208.9 76.3996 207.9 77.3996 206.7 78.2996C205.5 79.0996 204 79.7996 202.4 80.2996C200.7 80.7996 198.9 80.9996 197 80.9996C193.9 80.9996 191.1 80.4996 188.4 79.5996C185.7 78.6996 183.5 77.3996 181.7 75.6996L183.1 74.6996C184.7 76.1996 186.7 77.2996 189.2 78.0996C191.6 78.8996 194.2 79.2996 197 79.2996C199.2 79.2996 201.1 78.9996 202.9 78.3996C204.7 77.7996 206.1 76.8996 207.2 75.7996C208.3 74.6996 209.2 73.3996 209.8 71.9996C210.4 70.5996 210.7 68.9996 210.7 67.2996C210.7 65.0996 210.3 63.0996 209.4 61.2996C208.5 59.4996 207.2 58.0996 205.3 56.9996C203.4 55.8996 201.4 54.9996 198.9 54.9996ZM196.1 63.4996H198.7C199.9 63.4996 200.8 63.7996 201.3 64.4996C201.8 65.0996 202.1 65.9996 202.1 66.9996C202.1 69.2996 200.4 70.3996 197 70.3996C193.8 70.3996 191.4 69.8996 189.7 68.9996L191.1 67.9996C192.2 68.4996 194.2 68.7996 197 68.7996C198.4 68.7996 199.3 68.5996 199.8 68.2996C200.3 67.9996 200.5 67.5996 200.5 66.9996C200.5 66.4996 200.4 66.0996 200.1 65.6996C199.8 65.3996 199.4 65.1996 198.7 65.1996H196.1C193.9 65.1996 191.9 64.7996 190.2 64.0996C188.4 63.3996 187 62.3996 185.8 61.0996C184.7 59.7996 183.8 58.3996 183.2 56.6996C182.6 54.9996 182.3 53.2996 182.3 51.3996C182.3 49.8996 182.5 48.3996 182.9 47.0996C183.3 45.6996 184 44.4996 184.8 43.2996C185.7 42.1996 186.7 41.1996 187.9 40.2996C189.1 39.4996 190.6 38.7996 192.2 38.2996C193.8 37.7996 195.7 37.5996 197.6 37.5996C200.7 37.5996 203.5 38.0996 206.2 38.9996C208.9 39.8996 211.1 41.1996 212.9 42.8996L211.5 43.8996C209.9 42.3996 207.9 41.2996 205.4 40.4996C203 39.6996 200.4 39.2996 197.6 39.2996C195.4 39.2996 193.5 39.5996 191.7 40.1996C189.9 40.7996 188.5 41.6996 187.4 42.7996C186.3 43.8996 185.4 45.1996 184.8 46.5996C184.2 47.9996 183.9 49.5996 183.9 51.2996C183.9 53.4996 184.4 55.5996 185.3 57.2996C186.2 59.0996 187.6 60.4996 189.4 61.5996C191.3 62.9996 193.5 63.4996 196.1 63.4996ZM196.1 56.6996H198.8C202 56.6996 204.5 57.6996 206.4 59.6996C208.3 61.6996 209.1 64.0996 209.1 66.9996C209.1 69.9996 208 72.3996 205.9 74.3996C203.8 76.3996 200.8 77.2996 197 77.2996C194.5 77.2996 192.1 76.9996 189.9 76.2996C187.7 75.5996 185.9 74.5996 184.4 73.2996L185.7 72.1996C187 73.2996 188.6 74.0996 190.6 74.6996C192.6 75.2996 194.7 75.5996 197 75.5996C200.3 75.5996 202.9 74.7996 204.7 73.1996C206.5 71.5996 207.4 69.4996 207.4 66.9996C207.4 64.4996 206.7 62.4996 205.2 60.8996C203.7 59.2996 201.6 58.4996 198.8 58.4996H196.1C193.8 58.4996 192 57.8996 190.9 56.5996C189.8 55.2996 189.2 53.6996 189.2 51.5996C189.2 49.4996 189.9 47.8996 191.4 46.5996C192.8 45.2996 195 44.6996 197.9 44.6996C199.9 44.6996 201.8 44.8996 203.5 45.3996C205.2 45.8996 206.7 46.4996 207.8 47.3996L206.4 48.3996C204.4 46.9996 201.6 46.3996 197.9 46.3996C195.5 46.3996 193.8 46.8996 192.7 47.7996C191.6 48.6996 191 49.9996 191 51.4996C191 53.0996 191.4 54.2996 192.2 55.1996C193 56.0996 194.2 56.6996 196.1 56.6996ZM196.1 60.0996H198.7C201 60.0996 202.8 60.6996 203.9 61.9996C205.1 63.2996 205.6 64.8996 205.6 66.8996C205.6 68.8996 204.9 70.5996 203.4 71.8996C202 73.1996 199.8 73.7996 196.9 73.7996C194.9 73.7996 193 73.5996 191.3 73.0996C189.6 72.5996 188.1 71.9996 187 71.0996L188.4 70.0996C190.4 71.4996 193.2 72.0996 197 72.0996C199.4 72.0996 201.1 71.5996 202.2 70.6996C203.3 69.7996 203.9 68.4996 203.9 66.9996C203.9 65.4996 203.5 64.1996 202.7 63.2996C201.9 62.3996 200.5 61.8996 198.7 61.8996H196.1C192.8 61.8996 190.3 60.8996 188.5 58.9996C186.7 57.0996 185.8 54.5996 185.8 51.5996C185.8 48.5996 186.9 46.1996 189 44.1996C191.1 42.1996 194.1 41.2996 197.9 41.2996C200.4 41.2996 202.8 41.5996 205 42.2996C207.2 42.9996 209 43.9996 210.5 45.2996L209.2 46.3996C207.9 45.2996 206.3 44.4996 204.3 43.8996C202.3 43.2996 200.2 42.9996 197.9 42.9996C194.6 42.9996 192 43.7996 190.2 45.3996C188.4 46.9996 187.5 49.0996 187.5 51.5996C187.5 54.0996 188.2 56.0996 189.7 57.7996C191.1 59.2996 193.3 60.0996 196.1 60.0996Z" fill="black"/>
<path d="M227.6 52.2V45C227.6 42.1 226.7 39.7 224.9 38C223.1 36.3 220.9 35.3 218.4 35.3H215.5V33.5H218.3C220.2 33.5 222 34 223.7 34.9C225.3 35.8 226.7 37.1 227.7 38.9C228.7 40.7 229.2 42.7 229.2 45V52.2C229.2 52.9 229.3 53.4 229.5 53.6C229.7 53.8 230 54 230.4 54H232.2V55.7H230.4C229.6 55.7 228.9 55.4 228.4 54.8C227.9 54.2 227.6 53.3 227.6 52.2ZM224.2 52.2V45C224.2 43 223.6 41.5 222.5 40.4C221.4 39.3 220 38.7 218.4 38.7H215.6V36.9H218.4C220.5 36.9 222.3 37.6 223.7 39.1C225.2 40.5 225.9 42.5 225.9 44.9V52.1C225.9 53.8 226.3 55.1 227.1 56C227.9 56.9 229 57.4 230.3 57.4H232.3V59.1H230.4C228.7 59.1 227.2 58.5 226 57.2C224.8 56 224.2 54.3 224.2 52.2ZM220.8 52.2V45C220.8 44.1 220.6 43.4 220.2 42.9C219.8 42.4 219.2 42.1 218.6 42.1H215.7V40.4H218.5C219.6 40.4 220.6 40.8 221.4 41.6C222.2 42.4 222.6 43.5 222.6 45V52.2C222.6 53.5 222.8 54.8 223.3 55.9C223.7 57 224.3 57.9 225.1 58.6C225.8 59.3 226.7 59.9 227.6 60.3C228.5 60.7 229.5 60.9 230.6 60.9H232.5V62.5H230.6C229.3 62.5 228.1 62.3 227 61.8C225.8 61.3 224.8 60.6 223.9 59.8C223 58.9 222.3 57.8 221.8 56.5C221.1 55.2 220.8 53.7 220.8 52.2ZM221.8 59.5L223.1 60.8C222.7 61.9 222.5 63.1 222.5 64.4V73.5C222.5 74.9 222.1 76 221.3 76.9C220.5 77.7 219.6 78.1 218.4 78.1H215.6V76.4H218.5C219.2 76.4 219.7 76.1 220.1 75.6C220.5 75.1 220.7 74.4 220.7 73.5V64.3C220.8 62.6 221.1 61 221.8 59.5ZM224.6 61.9L226.2 62.7C226 63.5 226 64.1 226 64.4V73.5C226 75.9 225.3 77.9 223.8 79.3C222.3 80.7 220.6 81.5 218.5 81.5H215.7V79.8H218.5C220.1 79.8 221.5 79.2 222.6 78.1C223.7 77 224.3 75.4 224.3 73.5V64.3C224.2 63.6 224.3 62.7 224.6 61.9ZM227.7 63.2L229.4 63.4C229.3 63.7 229.3 64 229.3 64.3V73.5C229.3 75.8 228.8 77.8 227.8 79.6C226.8 81.4 225.4 82.7 223.8 83.6C222.2 84.5 220.4 85 218.4 85H215.6V83.3H218.5C221 83.3 223.2 82.4 225 80.6C226.8 78.8 227.7 76.5 227.7 73.6V64.4C227.6 63.9 227.7 63.5 227.7 63.2Z" fill="black"/>
</g>
</g>
<defs>
<filter id="filter0_dd_1_258181" x="0" y="-10" width="321" height="189" filterUnits="userSpaceOnUse" color-interpolation-filters="sRGB">
<feFlood flood-opacity="0" result="BackgroundImageFix"/>
<feColorMatrix in="SourceAlpha" type="matrix" values="0 0 0 0 0 0 0 0 0 0 0 0 0 0 0 0 0 0 127 0" result="hardAlpha"/>
<feOffset dy="25"/>
<feGaussianBlur stdDeviation="17.5"/>
<feColorMatrix type="matrix" values="0 0 0 0 0.0862745 0 0 0 0 0.0901961 0 0 0 0 0.282353 0 0 0 0.05 0"/>
<feBlend mode="normal" in2="BackgroundImageFix" result="effect1_dropShadow_1_258181"/>
<feColorMatrix in="SourceAlpha" type="matrix" values="0 0 0 0 0 0 0 0 0 0 0 0 0 0 0 0 0 0 127 0" result="hardAlpha"/>
<feOffset/>
<feGaussianBlur stdDeviation="4"/>
<feColorMatrix type="matrix" values="0 0 0 0 0.0862745 0 0 0 0 0.0901961 0 0 0 0 0.282353 0 0 0 0.07 0"/>
<feBlend mode="normal" in2="effect1_dropShadow_1_258181" result="effect2_dropShadow_1_258181"/>
<feBlend mode="normal" in="SourceGraphic" in2="effect2_dropShadow_1_258181" result="shape"/>
</filter>
<clipPath id="clip0_1_258181">
<rect width="145" height="52" fill="white" transform="translate(88 33.5)"/>
</clipPath>
</defs>
</svg>
