<svg width="330" height="179" fill="none" xmlns="http://www.w3.org/2000/svg"><g filter="url(#a)"><rect x="35" width="260" height="119" rx="8" fill="#fff"/><g clip-path="url(#b)"><path opacity=".05" d="M83.75 85.08c13.603 0 24.63-1.513 24.63-3.38 0-1.866-11.027-3.38-24.63-3.38s-24.63 1.514-24.63 3.38c0 1.867 11.027 3.38 24.63 3.38z" fill="#000"/><path d="M250.45 49.15a10.887 10.887 0 0 1 8.272-10.633A10.89 10.89 0 0 1 271 44.06l-4 1.3a6.779 6.779 0 0 0-11.331 7.447 6.782 6.782 0 0 0 10.891.713l-2.38.39-2.89-2.89 6.22-1 6.23-1-1 6.22-1 6.22-2.97-2.96.28-1.71a10.887 10.887 0 0 1-16.758-1.63 10.894 10.894 0 0 1-1.842-6.05v.04zM124.6 52.39a7 7 0 0 0 .71 3.39 6.745 6.745 0 0 0 2 2.35 8.565 8.565 0 0 0 2.92 1.37c1.116.3 2.266.451 3.42.45a12.92 12.92 0 0 0 3.81-.5 8.097 8.097 0 0 0 2.77-1.4 5.917 5.917 0 0 0 1.69-2.17 6.522 6.522 0 0 0 .57-2.71 5.069 5.069 0 0 0-.78-2.92 6.054 6.054 0 0 0-1.78-1.84 7.447 7.447 0 0 0-2.11-1 16.348 16.348 0 0 0-1.64-.45l-3.25-.83a12.802 12.802 0 0 1-1.93-.63 2.134 2.134 0 0 1-.92-.71 1.908 1.908 0 0 1-.24-1c-.014-.398.09-.791.3-1.13.197-.292.448-.543.74-.74a3.242 3.242 0 0 1 1-.42c.372-.079.751-.119 1.13-.12a7.673 7.673 0 0 1 1.62.12c.465.087.909.26 1.31.51.383.245.691.592.89 1 .247.46.391.97.42 1.49h4.52a6.328 6.328 0 0 0-.71-3.13 5.902 5.902 0 0 0-1.87-2.14 7.72 7.72 0 0 0-2.74-1.19 12.763 12.763 0 0 0-3.18-.39c-.966.002-1.928.133-2.86.39a8.001 8.001 0 0 0-2.56 1.19 6.477 6.477 0 0 0-1.85 2 5.577 5.577 0 0 0-.68 2.83 5.392 5.392 0 0 0 .54 2.5c.363.663.86 1.242 1.46 1.7.61.47 1.284.85 2 1.13.76.284 1.534.524 2.32.72.77.22 1.54.42 2.29.59.681.164 1.349.374 2 .63a4.278 4.278 0 0 1 1.43.89 1.835 1.835 0 0 1 .57 1.4 2.11 2.11 0 0 1-.42 1.34 2.992 2.992 0 0 1-1 .8 4.885 4.885 0 0 1-1.34.42c-.444.058-.892.088-1.34.09a7.711 7.711 0 0 1-1.83-.16 5.203 5.203 0 0 1-1.52-.68 3.561 3.561 0 0 1-1-1.22 3.882 3.882 0 0 1-.39-1.81l-4.49-.01zm51.88-9 2.68 7.8h-5.5l2.82-7.8zm-10.32 15.8V38.2h-6.58l-4.76 14.61-5-14.61h-6.54v21.24h4.37l.06-14.94 5.21 14.91h3.6l5.27-15.06v15.09h9l1.67-4.73h7.94l1.6 4.73h4.85l-7.96-21.24h-4.79l-7.94 20.99zm19.2-6.79a7.003 7.003 0 0 0 .72 3.39 6.779 6.779 0 0 0 2 2.35A8.579 8.579 0 0 0 191 59.5c1.116.3 2.266.451 3.42.45a12.997 12.997 0 0 0 3.81-.5 8.097 8.097 0 0 0 2.77-1.4 5.883 5.883 0 0 0 1.7-2.17c.38-.852.571-1.776.56-2.71a5.056 5.056 0 0 0-.77-2.92 6.083 6.083 0 0 0-1.79-1.84 7.436 7.436 0 0 0-2.11-1 15.913 15.913 0 0 0-1.64-.45l-3.24-.83a12.96 12.96 0 0 1-1.94-.66 2.146 2.146 0 0 1-.92-.71 1.908 1.908 0 0 1-.24-1c-.014-.398.09-.791.3-1.13a2.7 2.7 0 0 1 .74-.74 3.215 3.215 0 0 1 1-.42c.372-.079.751-.119 1.13-.12a7.685 7.685 0 0 1 1.58.15c.465.087.909.26 1.31.51.383.246.691.592.89 1 .253.46.403.968.44 1.49h4.52a6.332 6.332 0 0 0-.72-3.13 5.88 5.88 0 0 0-1.87-2.14 7.696 7.696 0 0 0-2.74-1.19 12.752 12.752 0 0 0-3.19-.35c-.966.002-1.928.133-2.86.39a8.001 8.001 0 0 0-2.56 1.19 6.44 6.44 0 0 0-1.84 2 5.577 5.577 0 0 0-.68 2.83 5.379 5.379 0 0 0 .54 2.5 5.448 5.448 0 0 0 1.46 1.7 8.272 8.272 0 0 0 2 1.13c.76.283 1.534.524 2.32.72.77.22 1.54.42 2.29.59.681.163 1.349.374 2 .63a4.244 4.244 0 0 1 1.43.89c.187.181.333.4.429.64.097.242.142.5.131.76.015.482-.133.954-.42 1.34a2.992 2.992 0 0 1-1 .8 4.902 4.902 0 0 1-1.34.42c-.444.058-.892.088-1.34.09-.599 0-1.196-.07-1.78-.21a5.185 5.185 0 0 1-1.52-.68 3.6 3.6 0 0 1-1-1.22 3.907 3.907 0 0 1-.39-1.81l-4.51.01zm18.68 7h4.67v-9.12h8.6v9.16H222V38.2h-4.67v8.15h-8.6V38.2H204l.04 21.2zm20.07 0h4.67V38.2h-4.67v21.2zm6.81 0h4.37l.06-14.22 8.84 14.22h4.67V38.2h-4.38l-.05 14.3-8.86-14.3h-4.64l-.01 21.2zM91.57 63.61a27.552 27.552 0 0 0-7-3.78 28.319 28.319 0 0 1-5.36-2.87c-4-2.787-6-6.243-6-10.37a10.63 10.63 0 0 1 2.19-6.9c.267-.331.554-.645.86-.94l-8.55 2a4.62 4.62 0 0 0-3.46 5.54l7.08 30.59a4.62 4.62 0 0 0 5.53 3.46l3.5-.84-.27-.07a33.76 33.76 0 0 1-6.78-2.93L77 68.34A16.3 16.3 0 0 0 87.4 72c4 0 6-1.43 6-4.27a5.26 5.26 0 0 0-1.83-4.12zM110.911 67.72l-7.08-30.59a4.621 4.621 0 0 0-5.53-3.46l-5.15 1.19c.593.093 1.18.203 1.76.33a28.137 28.137 0 0 1 6.65 2.39l-3 8c-2.24-1.92-5.37-2.88-9.37-2.88-3.587 0-5.384 1.427-5.39 4.28a3.86 3.86 0 0 0 1.77 3 36.82 36.82 0 0 0 7.56 3.66 23.64 23.64 0 0 1 6.39 3.55c.739.59 1.41 1.26 2 2a12.353 12.353 0 0 1 2.55 7.85 11.853 11.853 0 0 1-2.45 7.58l5.83-1.35a4.612 4.612 0 0 0 3.46-5.55zM127.5 66.5h1.72l4.24 10.94 4.22-10.94h1.72v12.46h-1.17V68.18L134 78.96h-1.1l-4.2-10.78v10.78h-1.2V66.5zM148.85 66.5h1.3L155 78.96h-1.29l-1.49-3.88h-5.58l-1.48 3.88h-1.25l4.94-12.46zM147 74.07h4.82l-2.37-6.4-2.45 6.4zM170 78.96h-.84l-.16-2.27a4.415 4.415 0 0 1-4.24 2.53c-3.86 0-5.78-3.09-5.78-6.5s1.92-6.5 5.78-6.5a4.821 4.821 0 0 1 5.12 4.14h-1.17a3.837 3.837 0 0 0-3.95-3.13c-3.24 0-4.62 2.76-4.62 5.49 0 2.73 1.37 5.49 4.62 5.49 2.71 0 4.29-1.94 4.24-4.58h-4.17v-1H170v6.33zM179.25 66.5h1.3l4.81 12.47h-1.25l-1.49-3.88H177l-1.48 3.88h-1.25l4.98-12.47zm-1.85 7.58h4.82l-2.37-6.4-2.45 6.4zM189.31 66.5h8.82v1l-8.07 10.41h8.24v1h-9.54v-1l8.07-10.41h-7.52v-1zM203.28 66.5h1.17v12.46h-1.17V66.5zM210.42 66.5h1.3l7.14 10.55V66.5h1.17v12.46h-1.3l-7.14-10.55v10.55h-1.17V66.5zM226 66.5h8.46v1h-7.3v4.51H234v1h-6.83v4.93h7.38v1H226V66.5z" fill="#E96033"/></g></g><defs><clipPath id="b"><path fill="#fff" transform="translate(55 33.5)" d="M0 0h220v52H0z"/></clipPath><filter id="a" x="0" y="-10" width="330" height="189" filterUnits="userSpaceOnUse" color-interpolation-filters="sRGB"><feFlood flood-opacity="0" result="BackgroundImageFix"/><feColorMatrix in="SourceAlpha" values="0 0 0 0 0 0 0 0 0 0 0 0 0 0 0 0 0 0 127 0" result="hardAlpha"/><feOffset dy="25"/><feGaussianBlur stdDeviation="17.5"/><feColorMatrix values="0 0 0 0 0.0862745 0 0 0 0 0.0901961 0 0 0 0 0.282353 0 0 0 0.05 0"/><feBlend in2="BackgroundImageFix" result="effect1_dropShadow_1_258163"/><feColorMatrix in="SourceAlpha" values="0 0 0 0 0 0 0 0 0 0 0 0 0 0 0 0 0 0 127 0" result="hardAlpha"/><feOffset/><feGaussianBlur stdDeviation="4"/><feColorMatrix values="0 0 0 0 0.0862745 0 0 0 0 0.0901961 0 0 0 0 0.282353 0 0 0 0.07 0"/><feBlend in2="effect1_dropShadow_1_258163" result="effect2_dropShadow_1_258163"/><feBlend in="SourceGraphic" in2="effect2_dropShadow_1_258163" result="shape"/></filter></defs></svg>